{"glyphs":{"0":{"ha":501,"x_min":69,"x_max":432,"o":"m 432 754 l 432 110 q 405 27 432 54 q 322 0 378 0 l 179 0 q 97 27 124 0 q 69 110 69 54 l 69 754 q 97 837 69 810 q 179 864 124 864 l 322 864 q 405 837 378 864 q 432 754 432 810 m 336 125 l 336 739 q 328 774 336 767 q 293 782 321 782 l 208 782 q 174 774 182 782 q 165 739 165 767 l 165 125 q 174 90 165 99 q 208 82 182 82 l 293 82 q 328 90 321 82 q 336 125 336 99 z "},"1":{"ha":293,"x_min":28,"x_max":217,"o":"m 160 864 l 160 782 l 28 782 l 28 864 l 160 864 m 122 864 l 217 864 l 217 0 l 122 0 l 122 864 z "},"2":{"ha":403,"x_min":35,"x_max":368,"o":"m 129 739 l 129 586 l 35 586 l 35 754 q 62 837 35 810 q 144 864 89 864 l 251 864 q 334 837 307 864 q 361 754 361 810 l 361 678 q 353 586 361 626 q 325 497 346 546 l 135 82 l 368 82 l 368 0 l 36 0 l 36 81 l 233 513 q 259 595 253 557 q 265 683 265 633 l 265 739 q 258 774 265 767 q 222 782 250 782 l 172 782 q 138 774 146 782 q 129 739 129 767 z "},"3":{"ha":447,"x_min":42,"x_max":378,"o":"m 136 739 l 136 597 l 42 597 l 42 754 q 69 837 42 810 q 151 864 96 864 l 268 864 q 351 837 324 864 q 378 754 378 810 l 378 506 q 364 458 378 475 q 326 439 350 442 q 364 419 350 435 q 378 374 378 404 l 378 110 q 351 27 378 54 q 268 0 324 0 l 151 0 q 69 27 96 0 q 42 110 42 54 l 42 265 l 136 265 l 136 125 q 144 90 136 99 q 179 82 153 82 l 240 82 q 276 90 268 82 q 283 125 283 99 l 283 353 q 276 388 283 381 q 240 396 268 396 l 139 396 l 139 479 l 240 479 q 276 488 268 479 q 283 522 283 496 l 283 739 q 276 774 283 767 q 240 782 268 782 l 179 782 q 144 774 153 782 q 136 739 136 767 z "},"4":{"ha":451,"x_min":7,"x_max":451,"o":"m 53 176 l 53 258 l 451 258 l 451 176 l 53 176 m 7 176 l 7 250 l 235 864 l 328 864 l 74 176 l 7 176 m 286 422 l 378 422 l 378 0 l 286 0 l 286 422 z "},"5":{"ha":446,"x_min":56,"x_max":394,"o":"m 151 267 l 151 125 q 160 90 151 99 q 194 82 168 82 l 256 82 q 291 90 283 82 q 299 125 299 99 l 299 407 q 291 442 299 435 q 256 450 283 450 l 115 450 l 115 532 l 285 532 q 367 505 340 532 q 394 422 394 478 l 394 110 q 367 27 394 54 q 285 0 340 0 l 165 0 q 83 27 110 0 q 56 110 56 54 l 56 267 l 151 267 m 151 450 l 56 450 l 56 864 l 394 864 l 394 782 l 151 782 l 151 450 z "},"6":{"ha":489,"x_min":69,"x_max":426,"o":"m 331 125 l 331 365 q 323 401 331 393 q 288 408 315 408 l 131 408 l 131 490 l 317 490 q 399 463 372 490 q 426 381 426 436 l 426 110 q 399 27 426 54 q 317 0 372 0 l 242 0 l 242 82 l 288 82 q 323 90 315 82 q 331 125 331 99 m 165 739 l 165 125 q 174 90 165 99 q 208 82 182 82 l 254 82 l 254 0 l 179 0 q 97 27 124 0 q 69 110 69 54 l 69 754 q 97 837 69 810 q 179 864 124 864 l 253 864 l 253 782 l 208 782 q 174 774 182 782 q 165 739 165 767 m 331 592 l 331 739 q 323 774 331 767 q 288 782 315 782 l 238 782 l 238 864 l 315 864 q 398 837 371 864 q 425 754 425 810 l 425 592 l 331 592 z "},"7":{"ha":356,"x_min":7,"x_max":349,"o":"m 311 864 l 311 782 l 7 782 l 7 864 l 311 864 m 349 864 l 349 800 l 125 0 l 31 0 l 268 864 l 349 864 z "},"8":{"ha":500,"x_min":69,"x_max":431,"o":"m 164 350 l 164 125 q 172 90 164 99 q 207 82 181 82 l 250 82 l 250 0 l 179 0 q 97 27 124 0 q 69 110 69 54 l 69 368 q 83 414 69 399 q 121 433 97 429 q 83 453 97 436 q 69 500 69 469 l 69 754 q 97 837 69 810 q 179 864 124 864 l 254 864 l 254 782 l 207 782 q 172 774 181 782 q 164 739 164 767 l 164 519 q 172 485 164 493 q 207 476 181 476 l 258 476 l 258 393 l 207 393 q 172 385 181 393 q 164 350 164 378 m 336 519 l 336 739 q 328 774 336 767 q 293 782 321 782 l 246 782 l 246 864 l 321 864 q 403 837 376 864 q 431 754 431 810 l 431 500 q 417 453 431 469 q 379 433 403 436 q 417 414 403 429 q 431 368 431 399 l 431 110 q 403 27 431 54 q 321 0 376 0 l 236 0 l 236 82 l 293 82 q 328 90 321 82 q 336 125 336 99 l 336 350 q 328 385 336 378 q 293 393 321 393 l 242 393 l 242 476 l 293 476 q 328 485 321 476 q 336 519 336 493 z "},"9":{"ha":482,"x_min":56,"x_max":413,"o":"m 151 739 l 151 485 q 160 450 151 458 q 194 442 168 442 l 351 442 l 351 360 l 165 360 q 83 387 110 360 q 56 469 56 414 l 56 754 q 83 837 56 810 q 165 864 110 864 l 240 864 l 240 782 l 194 782 q 160 774 168 782 q 151 739 151 767 m 317 125 l 317 739 q 309 774 317 767 q 274 782 301 782 l 228 782 l 228 864 l 303 864 q 385 837 358 864 q 413 754 413 810 l 413 110 q 385 27 413 54 q 303 0 358 0 l 229 0 l 229 82 l 274 82 q 309 90 301 82 q 317 125 317 99 m 151 272 l 151 125 q 160 90 151 99 q 194 82 168 82 l 244 82 l 244 0 l 167 0 q 84 27 111 0 q 57 110 57 54 l 57 272 l 151 272 z "},"A":{"ha":476,"x_min":21,"x_max":456,"o":"m 357 301 l 357 219 l 115 219 l 115 301 l 357 301 m 456 0 l 360 0 l 231 797 l 117 0 l 21 0 l 156 864 l 307 864 l 456 0 z "},"Æ":{"ha":733,"x_min":19,"x_max":700,"o":"m 422 864 l 115 0 l 19 0 l 333 864 l 422 864 m 388 301 l 388 219 l 146 219 l 146 301 l 388 301 m 367 864 l 463 864 l 463 0 l 367 0 l 367 864 m 700 82 l 700 0 l 428 0 l 428 82 l 700 82 m 649 490 l 649 408 l 428 408 l 428 490 l 649 490 m 690 864 l 690 782 l 428 782 l 428 864 l 690 864 z "},"Á":{"ha":476,"x_min":21,"x_max":456,"o":"m 357 301 l 357 219 l 115 219 l 115 301 l 357 301 m 456 0 l 360 0 l 231 797 l 117 0 l 21 0 l 156 864 l 307 864 l 456 0 m 188 907 l 296 1083 l 410 1083 l 274 907 l 188 907 z "},"Ă":{"ha":476,"x_min":21,"x_max":456,"o":"m 357 301 l 357 219 l 115 219 l 115 301 l 357 301 m 456 0 l 360 0 l 231 797 l 117 0 l 21 0 l 156 864 l 307 864 l 456 0 m 319 1083 l 411 1083 l 411 1017 q 384 934 411 961 q 301 907 357 907 l 224 907 l 224 985 l 276 985 q 312 993 304 985 q 319 1028 319 1001 l 319 1083 m 50 1083 l 142 1083 l 142 1028 q 150 993 142 1001 q 185 985 158 985 l 238 985 l 238 907 l 160 907 q 77 934 104 907 q 50 1017 50 961 l 50 1083 z "},"Â":{"ha":476,"x_min":21,"x_max":456,"o":"m 357 301 l 357 219 l 115 219 l 115 301 l 357 301 m 456 0 l 360 0 l 231 797 l 117 0 l 21 0 l 156 864 l 307 864 l 456 0 m 53 907 l 171 1083 l 292 1083 l 410 907 l 304 907 l 231 1024 l 158 907 l 53 907 z "},"Ä":{"ha":476,"x_min":21,"x_max":456,"o":"m 47 907 l 47 1024 l 169 1024 l 169 907 l 47 907 m 292 907 l 292 1024 l 414 1024 l 414 907 l 292 907 m 357 301 l 357 219 l 115 219 l 115 301 l 357 301 m 456 0 l 360 0 l 231 797 l 117 0 l 21 0 l 156 864 l 307 864 l 456 0 z "},"À":{"ha":476,"x_min":21,"x_max":456,"o":"m 357 301 l 357 219 l 115 219 l 115 301 l 357 301 m 456 0 l 360 0 l 231 797 l 117 0 l 21 0 l 156 864 l 307 864 l 456 0 m 157 1083 l 265 907 l 179 907 l 43 1083 l 157 1083 z "},"Ā":{"ha":476,"x_min":21,"x_max":456,"o":"m 357 301 l 357 219 l 115 219 l 115 301 l 357 301 m 456 0 l 360 0 l 231 797 l 117 0 l 21 0 l 156 864 l 307 864 l 456 0 m 67 907 l 67 988 l 394 988 l 394 907 l 67 907 z "},"Ą":{"ha":476,"x_min":21,"x_max":479,"o":"m 357 301 l 357 219 l 115 219 l 115 301 l 357 301 m 456 0 l 360 0 l 231 797 l 117 0 l 21 0 l 156 864 l 307 864 l 456 0 m 242 -144 q 269 -62 242 -89 q 351 -35 296 -35 l 454 -35 l 454 -108 l 371 -108 q 335 -115 344 -108 q 326 -150 326 -122 l 326 -178 q 335 -212 326 -204 q 371 -219 344 -219 l 479 -219 l 479 -294 l 351 -294 q 269 -267 296 -294 q 242 -185 242 -240 l 242 -144 m 454 -39 l 363 -39 l 363 14 l 454 14 l 454 -39 z "},"Å":{"ha":476,"x_min":21,"x_max":456,"o":"m 357 301 l 357 219 l 115 219 l 115 301 l 357 301 m 456 0 l 360 0 l 231 797 l 117 0 l 21 0 l 156 864 l 307 864 l 456 0 m 363 1021 l 363 997 q 340 928 363 950 q 272 907 318 907 l 189 907 q 121 928 143 907 q 99 997 99 950 l 99 1021 q 121 1090 99 1068 q 189 1111 143 1111 l 272 1111 q 340 1090 318 1111 q 363 1021 363 1068 m 292 1006 l 292 1013 q 285 1043 292 1036 q 253 1050 279 1050 l 208 1050 q 176 1043 182 1050 q 169 1013 169 1036 l 169 1006 q 176 976 169 983 q 208 968 182 968 l 253 968 q 285 976 279 968 q 292 1006 292 983 z "},"Ã":{"ha":476,"x_min":21,"x_max":456,"o":"m 357 301 l 357 219 l 115 219 l 115 301 l 357 301 m 456 0 l 360 0 l 231 797 l 117 0 l 21 0 l 156 864 l 307 864 l 456 0 m 299 907 q 246 919 269 907 q 203 944 222 932 q 167 956 185 956 q 143 922 143 956 l 143 907 l 57 907 l 57 926 q 78 1003 57 975 q 157 1032 100 1032 l 165 1032 q 217 1020 194 1032 q 257 996 239 1008 q 292 983 275 983 q 313 990 307 983 q 318 1018 318 996 l 318 1032 l 404 1032 l 404 1013 q 384 936 404 965 q 306 907 364 907 l 299 907 z "},"B":{"ha":529,"x_min":76,"x_max":460,"o":"m 76 864 l 350 864 q 433 837 406 864 q 460 754 460 810 l 460 506 q 446 458 460 475 q 408 438 432 440 q 446 419 432 433 q 460 374 460 404 l 460 110 q 433 27 460 54 q 350 0 406 0 l 76 0 l 76 864 m 364 125 l 364 357 q 356 392 364 385 q 321 400 349 400 l 172 400 l 172 82 l 321 82 q 356 90 349 82 q 364 125 364 99 m 364 525 l 364 739 q 356 774 364 767 q 321 782 349 782 l 172 782 l 172 482 l 321 482 q 356 490 349 482 q 364 525 364 499 z "},"C":{"ha":479,"x_min":69,"x_max":424,"o":"m 165 739 l 165 124 q 174 89 165 97 q 208 81 182 81 l 249 81 l 249 -1 l 179 -1 q 97 26 124 -1 q 69 108 69 53 l 69 754 q 97 837 69 810 q 179 864 124 864 l 258 864 l 258 782 l 208 782 q 174 774 182 782 q 165 739 165 767 m 328 608 l 328 739 q 320 774 328 767 q 285 782 313 782 l 238 782 l 238 864 l 314 864 q 397 837 369 864 q 424 754 424 810 l 424 608 l 328 608 m 328 124 l 328 254 l 424 254 l 424 108 q 397 26 424 53 q 314 -1 369 -1 l 238 -1 l 238 81 l 285 81 q 320 89 313 81 q 328 124 328 97 z "},"Ć":{"ha":479,"x_min":69,"x_max":425,"o":"m 165 739 l 165 124 q 174 89 165 97 q 208 81 182 81 l 249 81 l 249 -1 l 179 -1 q 97 26 124 -1 q 69 108 69 53 l 69 754 q 97 837 69 810 q 179 864 124 864 l 258 864 l 258 782 l 208 782 q 174 774 182 782 q 165 739 165 767 m 328 608 l 328 739 q 320 774 328 767 q 285 782 313 782 l 238 782 l 238 864 l 314 864 q 397 837 369 864 q 424 754 424 810 l 424 608 l 328 608 m 328 124 l 328 254 l 424 254 l 424 108 q 397 26 424 53 q 314 -1 369 -1 l 238 -1 l 238 81 l 285 81 q 320 89 313 81 q 328 124 328 97 m 203 907 l 311 1083 l 425 1083 l 289 907 l 203 907 z "},"Č":{"ha":479,"x_min":69,"x_max":426,"o":"m 165 739 l 165 124 q 174 89 165 97 q 208 81 182 81 l 249 81 l 249 -1 l 179 -1 q 97 26 124 -1 q 69 108 69 53 l 69 754 q 97 837 69 810 q 179 864 124 864 l 258 864 l 258 782 l 208 782 q 174 774 182 782 q 165 739 165 767 m 328 608 l 328 739 q 320 774 328 767 q 285 782 313 782 l 238 782 l 238 864 l 314 864 q 397 837 369 864 q 424 754 424 810 l 424 608 l 328 608 m 328 124 l 328 254 l 424 254 l 424 108 q 397 26 424 53 q 314 -1 369 -1 l 238 -1 l 238 81 l 285 81 q 320 89 313 81 q 328 124 328 97 m 188 907 l 69 1083 l 175 1083 l 247 967 l 321 1083 l 426 1083 l 308 907 l 188 907 z "},"Ç":{"ha":479,"x_min":69,"x_max":424,"o":"m 165 739 l 165 124 q 174 89 165 97 q 208 81 182 81 l 249 81 l 249 -1 l 179 -1 q 97 26 124 -1 q 69 108 69 53 l 69 754 q 97 837 69 810 q 179 864 124 864 l 258 864 l 258 782 l 208 782 q 174 774 182 782 q 165 739 165 767 m 328 608 l 328 739 q 320 774 328 767 q 285 782 313 782 l 238 782 l 238 864 l 314 864 q 397 837 369 864 q 424 754 424 810 l 424 608 l 328 608 m 328 124 l 328 254 l 424 254 l 424 108 q 397 26 424 53 q 314 -1 369 -1 l 238 -1 l 238 81 l 285 81 q 320 89 313 81 q 328 124 328 97 m 207 -101 l 207 -71 l 297 -71 l 297 -110 q 264 -203 297 -174 q 174 -233 231 -233 l 107 -233 l 107 -153 l 158 -153 q 197 -140 186 -153 q 207 -101 207 -128 z "},"D":{"ha":529,"x_min":76,"x_max":460,"o":"m 364 551 l 364 739 q 356 774 364 767 q 321 782 349 782 l 131 782 l 131 864 l 350 864 q 433 837 406 864 q 460 754 460 810 l 460 551 l 364 551 m 364 125 l 364 586 l 460 586 l 460 110 q 433 27 460 54 q 350 0 406 0 l 131 0 l 131 82 l 321 82 q 356 90 349 82 q 364 125 364 99 m 76 864 l 172 864 l 172 0 l 76 0 l 76 864 z "},"Ď":{"ha":529,"x_min":76,"x_max":460,"o":"m 364 551 l 364 739 q 356 774 364 767 q 321 782 349 782 l 131 782 l 131 864 l 350 864 q 433 837 406 864 q 460 754 460 810 l 460 551 l 364 551 m 364 125 l 364 586 l 460 586 l 460 110 q 433 27 460 54 q 350 0 406 0 l 131 0 l 131 82 l 321 82 q 356 90 349 82 q 364 125 364 99 m 76 864 l 172 864 l 172 0 l 76 0 l 76 864 m 200 907 l 82 1083 l 188 1083 l 260 967 l 333 1083 l 439 1083 l 321 907 l 200 907 z "},"Đ":{"ha":529,"x_min":7,"x_max":460,"o":"m 364 551 l 364 739 q 356 774 364 767 q 321 782 349 782 l 131 782 l 131 864 l 350 864 q 433 837 406 864 q 460 754 460 810 l 460 551 l 364 551 m 364 125 l 364 586 l 460 586 l 460 110 q 433 27 460 54 q 350 0 406 0 l 131 0 l 131 82 l 321 82 q 356 90 349 82 q 364 125 364 99 m 76 864 l 172 864 l 172 0 l 76 0 l 76 864 m 283 475 l 283 393 l 7 393 l 7 475 l 283 475 z "},"E":{"ha":438,"x_min":76,"x_max":410,"o":"m 76 864 l 172 864 l 172 0 l 76 0 l 76 864 m 358 490 l 358 408 l 138 408 l 138 490 l 358 490 m 400 864 l 400 782 l 138 782 l 138 864 l 400 864 m 410 82 l 410 0 l 138 0 l 138 82 l 410 82 z "},"É":{"ha":438,"x_min":76,"x_max":411,"o":"m 76 864 l 172 864 l 172 0 l 76 0 l 76 864 m 358 490 l 358 408 l 138 408 l 138 490 l 358 490 m 400 864 l 400 782 l 138 782 l 138 864 l 400 864 m 410 82 l 410 0 l 138 0 l 138 82 l 410 82 m 189 907 l 297 1083 l 411 1083 l 275 907 l 189 907 z "},"Ě":{"ha":438,"x_min":57,"x_max":414,"o":"m 76 864 l 172 864 l 172 0 l 76 0 l 76 864 m 358 490 l 358 408 l 138 408 l 138 490 l 358 490 m 400 864 l 400 782 l 138 782 l 138 864 l 400 864 m 410 82 l 410 0 l 138 0 l 138 82 l 410 82 m 175 907 l 57 1083 l 163 1083 l 235 967 l 308 1083 l 414 1083 l 296 907 l 175 907 z "},"Ê":{"ha":438,"x_min":61,"x_max":418,"o":"m 76 864 l 172 864 l 172 0 l 76 0 l 76 864 m 358 490 l 358 408 l 138 408 l 138 490 l 358 490 m 400 864 l 400 782 l 138 782 l 138 864 l 400 864 m 410 82 l 410 0 l 138 0 l 138 82 l 410 82 m 61 907 l 179 1083 l 300 1083 l 418 907 l 313 907 l 239 1024 l 167 907 l 61 907 z "},"Ë":{"ha":438,"x_min":51,"x_max":418,"o":"m 51 907 l 51 1024 l 174 1024 l 174 907 l 51 907 m 296 907 l 296 1024 l 418 1024 l 418 907 l 296 907 m 76 864 l 172 864 l 172 0 l 76 0 l 76 864 m 358 490 l 358 408 l 138 408 l 138 490 l 358 490 m 400 864 l 400 782 l 138 782 l 138 864 l 400 864 m 410 82 l 410 0 l 138 0 l 138 82 l 410 82 z "},"Ė":{"ha":438,"x_min":76,"x_max":410,"o":"m 76 864 l 172 864 l 172 0 l 76 0 l 76 864 m 358 490 l 358 408 l 138 408 l 138 490 l 358 490 m 400 864 l 400 782 l 138 782 l 138 864 l 400 864 m 410 82 l 410 0 l 138 0 l 138 82 l 410 82 m 186 907 l 186 1026 l 314 1026 l 314 907 l 186 907 z "},"È":{"ha":438,"x_min":58,"x_max":410,"o":"m 76 864 l 172 864 l 172 0 l 76 0 l 76 864 m 358 490 l 358 408 l 138 408 l 138 490 l 358 490 m 400 864 l 400 782 l 138 782 l 138 864 l 400 864 m 410 82 l 410 0 l 138 0 l 138 82 l 410 82 m 172 1083 l 281 907 l 194 907 l 58 1083 l 172 1083 z "},"Ē":{"ha":438,"x_min":74,"x_max":410,"o":"m 76 864 l 172 864 l 172 0 l 76 0 l 76 864 m 358 490 l 358 408 l 138 408 l 138 490 l 358 490 m 400 864 l 400 782 l 138 782 l 138 864 l 400 864 m 410 82 l 410 0 l 138 0 l 138 82 l 410 82 m 74 931 l 74 1011 l 401 1011 l 401 931 l 74 931 z "},"Ę":{"ha":438,"x_min":76,"x_max":435,"o":"m 76 864 l 172 864 l 172 0 l 76 0 l 76 864 m 358 490 l 358 408 l 138 408 l 138 490 l 358 490 m 400 864 l 400 782 l 138 782 l 138 864 l 400 864 m 410 82 l 410 0 l 138 0 l 138 82 l 410 82 m 197 -144 q 224 -62 197 -89 q 307 -35 251 -35 l 410 -35 l 410 -108 l 326 -108 q 291 -115 300 -108 q 282 -150 282 -122 l 282 -178 q 291 -212 282 -204 q 326 -219 300 -219 l 435 -219 l 435 -294 l 307 -294 q 224 -267 251 -294 q 197 -185 197 -240 l 197 -144 m 410 -39 l 318 -39 l 318 14 l 410 14 l 410 -39 z "},"Ð":{"ha":529,"x_min":7,"x_max":460,"o":"m 364 551 l 364 739 q 356 774 364 767 q 321 782 349 782 l 131 782 l 131 864 l 350 864 q 433 837 406 864 q 460 754 460 810 l 460 551 l 364 551 m 364 125 l 364 586 l 460 586 l 460 110 q 433 27 460 54 q 350 0 406 0 l 131 0 l 131 82 l 321 82 q 356 90 349 82 q 364 125 364 99 m 76 864 l 172 864 l 172 0 l 76 0 l 76 864 m 283 475 l 283 393 l 7 393 l 7 475 l 283 475 z "},"F":{"ha":421,"x_min":76,"x_max":414,"o":"m 76 864 l 172 864 l 172 0 l 76 0 l 76 864 m 358 476 l 358 394 l 138 394 l 138 476 l 358 476 m 414 864 l 414 782 l 138 782 l 138 864 l 414 864 z "},"G":{"ha":486,"x_min":69,"x_max":424,"o":"m 165 739 l 165 124 q 174 89 165 97 q 208 81 182 81 l 249 81 l 249 -1 l 179 -1 q 97 26 124 -1 q 69 108 69 53 l 69 754 q 97 837 69 810 q 179 864 124 864 l 258 864 l 258 782 l 208 782 q 174 774 182 782 q 165 739 165 767 m 424 435 l 424 353 l 258 353 l 258 435 l 424 435 m 328 622 l 328 739 q 320 774 328 767 q 285 782 313 782 l 238 782 l 238 864 l 314 864 q 397 837 369 864 q 424 754 424 810 l 424 622 l 328 622 m 328 124 l 328 379 l 424 379 l 424 108 q 397 26 424 53 q 314 -1 369 -1 l 238 -1 l 238 81 l 285 81 q 320 89 313 81 q 328 124 328 97 z "},"Ğ":{"ha":486,"x_min":67,"x_max":428,"o":"m 165 739 l 165 124 q 174 89 165 97 q 208 81 182 81 l 249 81 l 249 -1 l 179 -1 q 97 26 124 -1 q 69 108 69 53 l 69 754 q 97 837 69 810 q 179 864 124 864 l 258 864 l 258 782 l 208 782 q 174 774 182 782 q 165 739 165 767 m 424 435 l 424 353 l 258 353 l 258 435 l 424 435 m 328 622 l 328 739 q 320 774 328 767 q 285 782 313 782 l 238 782 l 238 864 l 314 864 q 397 837 369 864 q 424 754 424 810 l 424 622 l 328 622 m 328 124 l 328 379 l 424 379 l 424 108 q 397 26 424 53 q 314 -1 369 -1 l 238 -1 l 238 81 l 285 81 q 320 89 313 81 q 328 124 328 97 m 336 1083 l 428 1083 l 428 1017 q 401 934 428 961 q 318 907 374 907 l 240 907 l 240 985 l 293 985 q 328 993 321 985 q 336 1028 336 1001 l 336 1083 m 67 1083 l 158 1083 l 158 1028 q 167 993 158 1001 q 201 985 175 985 l 254 985 l 254 907 l 176 907 q 94 934 121 907 q 67 1017 67 961 l 67 1083 z "},"Ģ":{"ha":486,"x_min":69,"x_max":424,"o":"m 165 739 l 165 124 q 174 89 165 97 q 208 81 182 81 l 249 81 l 249 -1 l 179 -1 q 97 26 124 -1 q 69 108 69 53 l 69 754 q 97 837 69 810 q 179 864 124 864 l 258 864 l 258 782 l 208 782 q 174 774 182 782 q 165 739 165 767 m 424 435 l 424 353 l 258 353 l 258 435 l 424 435 m 328 622 l 328 739 q 320 774 328 767 q 285 782 313 782 l 238 782 l 238 864 l 314 864 q 397 837 369 864 q 424 754 424 810 l 424 622 l 328 622 m 328 124 l 328 379 l 424 379 l 424 108 q 397 26 424 53 q 314 -1 369 -1 l 238 -1 l 238 81 l 285 81 q 320 89 313 81 q 328 124 328 97 m 194 -71 l 306 -71 l 306 -125 l 232 -293 l 194 -293 l 194 -71 z "},"H":{"ha":531,"x_min":76,"x_max":454,"o":"m 400 472 l 400 390 l 138 390 l 138 472 l 400 472 m 76 864 l 172 864 l 172 0 l 76 0 l 76 864 m 358 864 l 454 864 l 454 0 l 358 0 l 358 864 z "},"I":{"ha":275,"x_min":90,"x_max":185,"o":"m 90 864 l 185 864 l 185 0 l 90 0 l 90 864 z "},"Í":{"ha":275,"x_min":90,"x_max":322,"o":"m 90 864 l 185 864 l 185 0 l 90 0 l 90 864 m 100 907 l 208 1083 l 322 1083 l 186 907 l 100 907 z "},"Î":{"ha":275,"x_min":-39,"x_max":318,"o":"m 90 864 l 185 864 l 185 0 l 90 0 l 90 864 m -39 907 l 79 1083 l 200 1083 l 318 907 l 213 907 l 139 1024 l 67 907 l -39 907 z "},"Ï":{"ha":275,"x_min":-49,"x_max":318,"o":"m -49 907 l -49 1024 l 74 1024 l 74 907 l -49 907 m 196 907 l 196 1024 l 318 1024 l 318 907 l 196 907 m 90 864 l 185 864 l 185 0 l 90 0 l 90 864 z "},"İ":{"ha":275,"x_min":72,"x_max":200,"o":"m 90 864 l 185 864 l 185 0 l 90 0 l 90 864 m 72 929 l 72 1049 l 200 1049 l 200 929 l 72 929 z "},"Ì":{"ha":275,"x_min":-42,"x_max":185,"o":"m 90 864 l 185 864 l 185 0 l 90 0 l 90 864 m 72 1083 l 181 907 l 94 907 l -42 1083 l 72 1083 z "},"Ī":{"ha":275,"x_min":-28,"x_max":300,"o":"m 90 864 l 185 864 l 185 0 l 90 0 l 90 864 m -28 931 l -28 1011 l 300 1011 l 300 931 l -28 931 z "},"Į":{"ha":275,"x_min":-28,"x_max":210,"o":"m 90 864 l 185 864 l 185 0 l 90 0 l 90 864 m -28 -144 q -1 -62 -28 -89 q 82 -35 26 -35 l 185 -35 l 185 -108 l 101 -108 q 66 -115 75 -108 q 57 -150 57 -122 l 57 -178 q 66 -212 57 -204 q 101 -219 75 -219 l 210 -219 l 210 -294 l 82 -294 q -1 -267 26 -294 q -28 -185 -28 -240 l -28 -144 m 185 -39 l 93 -39 l 93 14 l 185 14 l 185 -39 z "},"J":{"ha":418,"x_min":21,"x_max":346,"o":"m 21 267 l 117 267 l 117 125 q 125 90 117 99 q 160 82 133 82 l 207 82 q 242 90 235 82 q 250 125 250 99 l 250 864 l 346 864 l 346 110 q 319 27 346 54 q 236 0 292 0 l 131 0 q 48 27 75 0 q 21 110 21 54 l 21 267 z "},"K":{"ha":479,"x_min":76,"x_max":465,"o":"m 181 428 l 279 428 l 463 0 l 360 0 l 181 428 m 279 428 l 181 428 l 363 864 l 465 864 l 279 428 m 76 864 l 171 864 l 171 0 l 76 0 l 76 864 z "},"Ķ":{"ha":479,"x_min":76,"x_max":465,"o":"m 181 428 l 279 428 l 463 0 l 360 0 l 181 428 m 279 428 l 181 428 l 363 864 l 465 864 l 279 428 m 76 864 l 171 864 l 171 0 l 76 0 l 76 864 m 196 -71 l 307 -71 l 307 -125 l 233 -293 l 196 -293 l 196 -71 z "},"L":{"ha":376,"x_min":76,"x_max":369,"o":"m 76 864 l 171 864 l 171 0 l 76 0 l 76 864 m 133 0 l 133 82 l 369 82 l 369 0 l 133 0 z "},"Ĺ":{"ha":376,"x_min":76,"x_max":369,"o":"m 76 864 l 171 864 l 171 0 l 76 0 l 76 864 m 133 0 l 133 82 l 369 82 l 369 0 l 133 0 m 79 907 l 188 1083 l 301 1083 l 165 907 l 79 907 z "},"Ļ":{"ha":376,"x_min":76,"x_max":369,"o":"m 76 864 l 171 864 l 171 0 l 76 0 l 76 864 m 133 0 l 133 82 l 369 82 l 369 0 l 133 0 m 165 -71 l 276 -71 l 276 -125 l 203 -293 l 165 -293 l 165 -71 z "},"Ł":{"ha":383,"x_min":-25,"x_max":369,"o":"m 306 544 l 306 463 l -25 310 l -25 392 l 306 544 m 76 864 l 171 864 l 171 0 l 76 0 l 76 864 m 133 0 l 133 82 l 369 82 l 369 0 l 133 0 z "},"M":{"ha":660,"x_min":76,"x_max":583,"o":"m 381 188 l 279 188 l 158 654 l 158 0 l 76 0 l 76 864 l 181 864 l 329 308 l 479 864 l 583 864 l 583 0 l 501 0 l 501 654 l 381 188 z "},"N":{"ha":524,"x_min":76,"x_max":447,"o":"m 360 864 l 447 864 l 447 0 l 343 0 l 164 669 l 164 0 l 76 0 l 76 864 l 188 864 l 360 218 l 360 864 z "},"Ń":{"ha":524,"x_min":76,"x_max":447,"o":"m 360 864 l 447 864 l 447 0 l 343 0 l 164 669 l 164 0 l 76 0 l 76 864 l 188 864 l 360 218 l 360 864 m 224 907 l 332 1083 l 446 1083 l 310 907 l 224 907 z "},"Ň":{"ha":524,"x_min":76,"x_max":447,"o":"m 360 864 l 447 864 l 447 0 l 343 0 l 164 669 l 164 0 l 76 0 l 76 864 l 188 864 l 360 218 l 360 864 m 207 907 l 89 1083 l 194 1083 l 267 967 l 340 1083 l 446 1083 l 328 907 l 207 907 z "},"Ņ":{"ha":524,"x_min":76,"x_max":447,"o":"m 360 864 l 447 864 l 447 0 l 343 0 l 164 669 l 164 0 l 76 0 l 76 864 l 188 864 l 360 218 l 360 864 m 193 -71 l 304 -71 l 304 -125 l 231 -293 l 193 -293 l 193 -71 z "},"Ñ":{"ha":524,"x_min":76,"x_max":447,"o":"m 360 864 l 447 864 l 447 0 l 343 0 l 164 669 l 164 0 l 76 0 l 76 864 l 188 864 l 360 218 l 360 864 m 329 907 q 276 919 300 907 q 234 944 253 932 q 197 956 215 956 q 174 922 174 956 l 174 907 l 88 907 l 88 926 q 109 1003 88 975 q 188 1032 131 1032 l 196 1032 q 247 1020 225 1032 q 288 996 269 1008 q 322 983 306 983 q 343 990 338 983 q 349 1018 349 996 l 349 1032 l 435 1032 l 435 1013 q 415 936 435 965 q 336 907 394 907 l 329 907 z "},"O":{"ha":500,"x_min":69,"x_max":431,"o":"m 336 196 l 336 739 q 328 774 336 767 q 293 782 321 782 l 246 782 l 246 864 l 321 864 q 403 837 376 864 q 431 754 431 810 l 431 196 l 336 196 m 336 125 l 336 265 l 431 265 l 431 110 q 403 27 431 54 q 321 0 376 0 l 236 0 l 236 82 l 293 82 q 328 90 321 82 q 336 125 336 99 m 164 739 l 164 194 l 69 194 l 69 754 q 97 837 69 810 q 179 864 124 864 l 254 864 l 254 782 l 207 782 q 172 774 181 782 q 164 739 164 767 m 164 276 l 164 125 q 172 90 164 99 q 207 82 181 82 l 250 82 l 250 0 l 179 0 q 97 27 124 0 q 69 110 69 54 l 69 276 l 164 276 z "},"Œ":{"ha":718,"x_min":69,"x_max":683,"o":"m 336 196 l 336 739 q 328 774 336 767 q 293 782 321 782 l 246 782 l 246 864 l 285 864 q 345 852 322 864 q 378 816 368 840 q 389 754 389 792 l 389 196 l 336 196 m 336 125 l 336 265 l 389 265 l 389 110 q 378 49 389 74 q 346 12 368 24 q 286 0 324 0 l 236 0 l 236 82 l 293 82 q 328 90 321 82 q 336 125 336 99 m 164 739 l 164 194 l 69 194 l 69 754 q 97 837 69 810 q 179 864 124 864 l 254 864 l 254 782 l 207 782 q 172 774 181 782 q 164 739 164 767 m 164 276 l 164 125 q 172 90 164 99 q 207 82 181 82 l 250 82 l 250 0 l 179 0 q 97 27 124 0 q 69 110 69 54 l 69 276 l 164 276 m 364 864 l 446 864 l 446 0 l 364 0 l 364 864 m 632 490 l 632 408 l 411 408 l 411 490 l 632 490 m 674 864 l 674 782 l 411 782 l 411 864 l 674 864 m 683 82 l 683 0 l 411 0 l 411 82 l 683 82 z "},"Ó":{"ha":500,"x_min":69,"x_max":431,"o":"m 336 196 l 336 739 q 328 774 336 767 q 293 782 321 782 l 246 782 l 246 864 l 321 864 q 403 837 376 864 q 431 754 431 810 l 431 196 l 336 196 m 336 125 l 336 265 l 431 265 l 431 110 q 403 27 431 54 q 321 0 376 0 l 236 0 l 236 82 l 293 82 q 328 90 321 82 q 336 125 336 99 m 164 739 l 164 194 l 69 194 l 69 754 q 97 837 69 810 q 179 864 124 864 l 254 864 l 254 782 l 207 782 q 172 774 181 782 q 164 739 164 767 m 164 276 l 164 125 q 172 90 164 99 q 207 82 181 82 l 250 82 l 250 0 l 179 0 q 97 27 124 0 q 69 110 69 54 l 69 276 l 164 276 m 194 907 l 303 1083 l 417 1083 l 281 907 l 194 907 z "},"Ô":{"ha":500,"x_min":69,"x_max":431,"o":"m 336 196 l 336 739 q 328 774 336 767 q 293 782 321 782 l 246 782 l 246 864 l 321 864 q 403 837 376 864 q 431 754 431 810 l 431 196 l 336 196 m 336 125 l 336 265 l 431 265 l 431 110 q 403 27 431 54 q 321 0 376 0 l 236 0 l 236 82 l 293 82 q 328 90 321 82 q 336 125 336 99 m 164 739 l 164 194 l 69 194 l 69 754 q 97 837 69 810 q 179 864 124 864 l 254 864 l 254 782 l 207 782 q 172 774 181 782 q 164 739 164 767 m 164 276 l 164 125 q 172 90 164 99 q 207 82 181 82 l 250 82 l 250 0 l 179 0 q 97 27 124 0 q 69 110 69 54 l 69 276 l 164 276 m 71 907 l 189 1083 l 310 1083 l 428 907 l 322 907 l 249 1024 l 176 907 l 71 907 z "},"Ö":{"ha":500,"x_min":67,"x_max":433,"o":"m 67 907 l 67 1024 l 189 1024 l 189 907 l 67 907 m 311 907 l 311 1024 l 433 1024 l 433 907 l 311 907 m 336 196 l 336 739 q 328 774 336 767 q 293 782 321 782 l 246 782 l 246 864 l 321 864 q 403 837 376 864 q 431 754 431 810 l 431 196 l 336 196 m 336 125 l 336 265 l 431 265 l 431 110 q 403 27 431 54 q 321 0 376 0 l 236 0 l 236 82 l 293 82 q 328 90 321 82 q 336 125 336 99 m 164 739 l 164 194 l 69 194 l 69 754 q 97 837 69 810 q 179 864 124 864 l 254 864 l 254 782 l 207 782 q 172 774 181 782 q 164 739 164 767 m 164 276 l 164 125 q 172 90 164 99 q 207 82 181 82 l 250 82 l 250 0 l 179 0 q 97 27 124 0 q 69 110 69 54 l 69 276 l 164 276 z "},"Ò":{"ha":500,"x_min":56,"x_max":431,"o":"m 336 196 l 336 739 q 328 774 336 767 q 293 782 321 782 l 246 782 l 246 864 l 321 864 q 403 837 376 864 q 431 754 431 810 l 431 196 l 336 196 m 336 125 l 336 265 l 431 265 l 431 110 q 403 27 431 54 q 321 0 376 0 l 236 0 l 236 82 l 293 82 q 328 90 321 82 q 336 125 336 99 m 164 739 l 164 194 l 69 194 l 69 754 q 97 837 69 810 q 179 864 124 864 l 254 864 l 254 782 l 207 782 q 172 774 181 782 q 164 739 164 767 m 164 276 l 164 125 q 172 90 164 99 q 207 82 181 82 l 250 82 l 250 0 l 179 0 q 97 27 124 0 q 69 110 69 54 l 69 276 l 164 276 m 169 1083 l 278 907 l 192 907 l 56 1083 l 169 1083 z "},"Ő":{"ha":500,"x_min":69,"x_max":492,"o":"m 281 907 l 389 1083 l 492 1083 l 356 907 l 281 907 m 142 907 l 250 1083 l 353 1083 l 217 907 l 142 907 m 336 196 l 336 739 q 328 774 336 767 q 293 782 321 782 l 246 782 l 246 864 l 321 864 q 403 837 376 864 q 431 754 431 810 l 431 196 l 336 196 m 336 125 l 336 265 l 431 265 l 431 110 q 403 27 431 54 q 321 0 376 0 l 236 0 l 236 82 l 293 82 q 328 90 321 82 q 336 125 336 99 m 164 739 l 164 194 l 69 194 l 69 754 q 97 837 69 810 q 179 864 124 864 l 254 864 l 254 782 l 207 782 q 172 774 181 782 q 164 739 164 767 m 164 276 l 164 125 q 172 90 164 99 q 207 82 181 82 l 250 82 l 250 0 l 179 0 q 97 27 124 0 q 69 110 69 54 l 69 276 l 164 276 z "},"Ō":{"ha":500,"x_min":69,"x_max":431,"o":"m 336 196 l 336 739 q 328 774 336 767 q 293 782 321 782 l 246 782 l 246 864 l 321 864 q 403 837 376 864 q 431 754 431 810 l 431 196 l 336 196 m 336 125 l 336 265 l 431 265 l 431 110 q 403 27 431 54 q 321 0 376 0 l 236 0 l 236 82 l 293 82 q 328 90 321 82 q 336 125 336 99 m 164 739 l 164 194 l 69 194 l 69 754 q 97 837 69 810 q 179 864 124 864 l 254 864 l 254 782 l 207 782 q 172 774 181 782 q 164 739 164 767 m 164 276 l 164 125 q 172 90 164 99 q 207 82 181 82 l 250 82 l 250 0 l 179 0 q 97 27 124 0 q 69 110 69 54 l 69 276 l 164 276 m 86 907 l 86 988 l 414 988 l 414 907 l 86 907 z "},"Ø":{"ha":514,"x_min":76,"x_max":438,"o":"m 438 754 l 438 110 q 410 27 438 54 q 328 0 383 0 l 186 0 q 103 27 131 0 q 76 110 76 54 l 76 754 q 103 837 76 810 q 186 864 131 864 l 328 864 q 410 837 383 864 q 438 754 438 810 m 344 121 l 344 743 q 336 778 344 771 q 300 786 328 786 l 213 786 q 178 778 186 786 q 169 743 169 771 l 169 121 q 178 86 169 94 q 213 78 186 78 l 300 78 q 336 86 328 78 q 344 121 344 94 m 371 892 l 438 892 l 143 -28 l 76 -28 l 371 892 z "},"Õ":{"ha":500,"x_min":69,"x_max":431,"o":"m 336 196 l 336 739 q 328 774 336 767 q 293 782 321 782 l 246 782 l 246 864 l 321 864 q 403 837 376 864 q 431 754 431 810 l 431 196 l 336 196 m 336 125 l 336 265 l 431 265 l 431 110 q 403 27 431 54 q 321 0 376 0 l 236 0 l 236 82 l 293 82 q 328 90 321 82 q 336 125 336 99 m 164 739 l 164 194 l 69 194 l 69 754 q 97 837 69 810 q 179 864 124 864 l 254 864 l 254 782 l 207 782 q 172 774 181 782 q 164 739 164 767 m 164 276 l 164 125 q 172 90 164 99 q 207 82 181 82 l 250 82 l 250 0 l 179 0 q 97 27 124 0 q 69 110 69 54 l 69 276 l 164 276 m 317 907 q 264 919 288 907 q 222 944 240 932 q 185 956 203 956 q 161 922 161 956 l 161 907 l 75 907 l 75 926 q 97 1003 75 975 q 175 1032 118 1032 l 183 1032 q 235 1020 213 1032 q 275 996 257 1008 q 310 983 293 983 q 331 990 325 983 q 336 1018 336 996 l 336 1032 l 422 1032 l 422 1013 q 402 936 422 965 q 324 907 382 907 l 317 907 z "},"P":{"ha":479,"x_min":76,"x_max":438,"o":"m 343 472 l 343 739 q 335 774 343 767 q 300 782 328 782 l 76 782 l 76 864 l 328 864 q 410 837 383 864 q 438 754 438 810 l 438 457 q 410 374 438 401 q 328 347 383 347 l 133 347 l 133 429 l 300 429 q 335 438 328 429 q 343 472 343 446 m 76 864 l 171 864 l 171 0 l 76 0 l 76 864 z "},"Q":{"ha":500,"x_min":69,"x_max":435,"o":"m 336 196 l 336 739 q 328 774 336 767 q 293 782 321 782 l 246 782 l 246 864 l 321 864 q 403 837 376 864 q 431 754 431 810 l 431 196 l 336 196 m 336 125 l 336 265 l 431 265 l 431 110 q 403 27 431 54 q 321 0 376 0 l 236 0 l 236 82 l 293 82 q 328 90 321 82 q 336 125 336 99 m 164 739 l 164 194 l 69 194 l 69 754 q 97 837 69 810 q 179 864 124 864 l 254 864 l 254 782 l 207 782 q 172 774 181 782 q 164 739 164 767 m 164 276 l 164 125 q 172 90 164 99 q 207 82 181 82 l 250 82 l 250 0 l 179 0 q 97 27 124 0 q 69 110 69 54 l 69 276 l 164 276 m 219 50 l 313 50 l 435 -135 l 340 -135 l 219 50 z "},"R":{"ha":506,"x_min":76,"x_max":482,"o":"m 343 486 l 343 739 q 335 774 343 767 q 300 782 328 782 l 76 782 l 76 864 l 328 864 q 410 837 383 864 q 438 754 438 810 l 438 471 q 410 388 438 415 q 328 361 383 361 l 133 361 l 133 443 l 300 443 q 335 451 328 443 q 343 486 343 460 m 76 864 l 171 864 l 171 0 l 76 0 l 76 864 m 240 397 l 339 397 l 482 0 l 379 0 l 240 397 z "},"Ŕ":{"ha":506,"x_min":76,"x_max":482,"o":"m 343 486 l 343 739 q 335 774 343 767 q 300 782 328 782 l 76 782 l 76 864 l 328 864 q 410 837 383 864 q 438 754 438 810 l 438 471 q 410 388 438 415 q 328 361 383 361 l 133 361 l 133 443 l 300 443 q 335 451 328 443 q 343 486 343 460 m 76 864 l 171 864 l 171 0 l 76 0 l 76 864 m 240 397 l 339 397 l 482 0 l 379 0 l 240 397 m 204 907 l 313 1083 l 426 1083 l 290 907 l 204 907 z "},"Ř":{"ha":506,"x_min":72,"x_max":482,"o":"m 343 486 l 343 739 q 335 774 343 767 q 300 782 328 782 l 76 782 l 76 864 l 328 864 q 410 837 383 864 q 438 754 438 810 l 438 471 q 410 388 438 415 q 328 361 383 361 l 133 361 l 133 443 l 300 443 q 335 451 328 443 q 343 486 343 460 m 76 864 l 171 864 l 171 0 l 76 0 l 76 864 m 240 397 l 339 397 l 482 0 l 379 0 l 240 397 m 190 907 l 72 1083 l 178 1083 l 250 967 l 324 1083 l 429 1083 l 311 907 l 190 907 z "},"Ŗ":{"ha":506,"x_min":76,"x_max":482,"o":"m 343 486 l 343 739 q 335 774 343 767 q 300 782 328 782 l 76 782 l 76 864 l 328 864 q 410 837 383 864 q 438 754 438 810 l 438 471 q 410 388 438 415 q 328 361 383 361 l 133 361 l 133 443 l 300 443 q 335 451 328 443 q 343 486 343 460 m 76 864 l 171 864 l 171 0 l 76 0 l 76 864 m 240 397 l 339 397 l 482 0 l 379 0 l 240 397 m 206 -71 l 317 -71 l 317 -125 l 243 -293 l 206 -293 l 206 -71 z "},"S":{"ha":454,"x_min":56,"x_max":399,"o":"m 303 125 l 303 361 q 295 397 303 389 q 260 404 288 404 l 165 404 q 83 431 110 404 q 56 514 56 458 l 56 754 q 83 837 56 810 q 165 864 110 864 l 288 864 q 370 837 343 864 q 397 754 397 810 l 397 621 l 301 621 l 301 739 q 294 774 301 767 q 258 782 286 782 l 194 782 q 160 774 168 782 q 151 739 151 767 l 151 529 q 160 494 151 503 q 194 486 168 486 l 289 486 q 372 459 344 486 q 399 376 399 432 l 399 110 q 372 27 399 54 q 289 0 344 0 l 168 0 q 85 27 113 0 q 58 110 58 54 l 58 243 l 154 243 l 154 125 q 163 90 154 99 q 197 82 171 82 l 260 82 q 295 90 288 82 q 303 125 303 99 z "},"Ś":{"ha":454,"x_min":56,"x_max":400,"o":"m 303 125 l 303 361 q 295 397 303 389 q 260 404 288 404 l 165 404 q 83 431 110 404 q 56 514 56 458 l 56 754 q 83 837 56 810 q 165 864 110 864 l 288 864 q 370 837 343 864 q 397 754 397 810 l 397 621 l 301 621 l 301 739 q 294 774 301 767 q 258 782 286 782 l 194 782 q 160 774 168 782 q 151 739 151 767 l 151 529 q 160 494 151 503 q 194 486 168 486 l 289 486 q 372 459 344 486 q 399 376 399 432 l 399 110 q 372 27 399 54 q 289 0 344 0 l 168 0 q 85 27 113 0 q 58 110 58 54 l 58 243 l 154 243 l 154 125 q 163 90 154 99 q 197 82 171 82 l 260 82 q 295 90 288 82 q 303 125 303 99 m 178 907 l 286 1083 l 400 1083 l 264 907 l 178 907 z "},"Š":{"ha":454,"x_min":50,"x_max":407,"o":"m 303 125 l 303 361 q 295 397 303 389 q 260 404 288 404 l 165 404 q 83 431 110 404 q 56 514 56 458 l 56 754 q 83 837 56 810 q 165 864 110 864 l 288 864 q 370 837 343 864 q 397 754 397 810 l 397 621 l 301 621 l 301 739 q 294 774 301 767 q 258 782 286 782 l 194 782 q 160 774 168 782 q 151 739 151 767 l 151 529 q 160 494 151 503 q 194 486 168 486 l 289 486 q 372 459 344 486 q 399 376 399 432 l 399 110 q 372 27 399 54 q 289 0 344 0 l 168 0 q 85 27 113 0 q 58 110 58 54 l 58 243 l 154 243 l 154 125 q 163 90 154 99 q 197 82 171 82 l 260 82 q 295 90 288 82 q 303 125 303 99 m 168 907 l 50 1083 l 156 1083 l 228 967 l 301 1083 l 407 1083 l 289 907 l 168 907 z "},"Ş":{"ha":454,"x_min":56,"x_max":399,"o":"m 303 125 l 303 361 q 295 397 303 389 q 260 404 288 404 l 165 404 q 83 431 110 404 q 56 514 56 458 l 56 754 q 83 837 56 810 q 165 864 110 864 l 288 864 q 370 837 343 864 q 397 754 397 810 l 397 621 l 301 621 l 301 739 q 294 774 301 767 q 258 782 286 782 l 194 782 q 160 774 168 782 q 151 739 151 767 l 151 529 q 160 494 151 503 q 194 486 168 486 l 289 486 q 372 459 344 486 q 399 376 399 432 l 399 110 q 372 27 399 54 q 289 0 344 0 l 168 0 q 85 27 113 0 q 58 110 58 54 l 58 243 l 154 243 l 154 125 q 163 90 154 99 q 197 82 171 82 l 260 82 q 295 90 288 82 q 303 125 303 99 m 176 -71 l 288 -71 l 288 -125 l 214 -293 l 176 -293 l 176 -71 z "},"Ș":{"ha":454,"x_min":56,"x_max":399,"o":"m 303 125 l 303 361 q 295 397 303 389 q 260 404 288 404 l 165 404 q 83 431 110 404 q 56 514 56 458 l 56 754 q 83 837 56 810 q 165 864 110 864 l 288 864 q 370 837 343 864 q 397 754 397 810 l 397 621 l 301 621 l 301 739 q 294 774 301 767 q 258 782 286 782 l 194 782 q 160 774 168 782 q 151 739 151 767 l 151 529 q 160 494 151 503 q 194 486 168 486 l 289 486 q 372 459 344 486 q 399 376 399 432 l 399 110 q 372 27 399 54 q 289 0 344 0 l 168 0 q 85 27 113 0 q 58 110 58 54 l 58 243 l 154 243 l 154 125 q 163 90 154 99 q 197 82 171 82 l 260 82 q 295 90 288 82 q 303 125 303 99 m 175 -71 l 286 -71 l 286 -125 l 213 -293 l 175 -293 l 175 -71 z "},"T":{"ha":386,"x_min":7,"x_max":379,"o":"m 146 864 l 240 864 l 240 0 l 146 0 l 146 864 m 379 864 l 379 782 l 7 782 l 7 864 l 379 864 z "},"Ť":{"ha":386,"x_min":7,"x_max":379,"o":"m 146 864 l 240 864 l 240 0 l 146 0 l 146 864 m 379 864 l 379 782 l 7 782 l 7 864 l 379 864 m 133 907 l 15 1083 l 121 1083 l 193 967 l 267 1083 l 372 1083 l 254 907 l 133 907 z "},"Ţ":{"ha":386,"x_min":7,"x_max":379,"o":"m 146 864 l 240 864 l 240 0 l 146 0 l 146 864 m 379 864 l 379 782 l 7 782 l 7 864 l 379 864 m 135 -71 l 246 -71 l 246 -125 l 172 -293 l 135 -293 l 135 -71 z "},"Ț":{"ha":386,"x_min":7,"x_max":379,"o":"m 146 864 l 240 864 l 240 0 l 146 0 l 146 864 m 379 864 l 379 782 l 7 782 l 7 864 l 379 864 m 140 -71 l 251 -71 l 251 -125 l 178 -293 l 140 -293 l 140 -71 z "},"Þ":{"ha":479,"x_min":76,"x_max":438,"o":"m 343 299 l 343 565 q 335 601 343 593 q 300 608 328 608 l 118 608 l 118 690 l 328 690 q 410 663 383 690 q 438 581 438 636 l 438 283 q 410 201 438 228 q 328 174 383 174 l 133 174 l 133 256 l 300 256 q 335 264 328 256 q 343 299 343 272 m 76 864 l 171 864 l 171 0 l 76 0 l 76 864 z "},"U":{"ha":506,"x_min":72,"x_max":433,"o":"m 339 125 l 339 864 l 433 864 l 433 110 q 406 27 433 54 q 324 0 379 0 l 239 0 l 239 82 l 296 82 q 331 90 324 82 q 339 125 339 99 m 167 864 l 167 125 q 175 90 167 99 q 210 82 183 82 l 253 82 l 253 0 l 182 0 q 99 27 126 0 q 72 110 72 54 l 72 864 l 167 864 z "},"Ú":{"ha":506,"x_min":72,"x_max":433,"o":"m 339 125 l 339 864 l 433 864 l 433 110 q 406 27 433 54 q 324 0 379 0 l 239 0 l 239 82 l 296 82 q 331 90 324 82 q 339 125 339 99 m 167 864 l 167 125 q 175 90 167 99 q 210 82 183 82 l 253 82 l 253 0 l 182 0 q 99 27 126 0 q 72 110 72 54 l 72 864 l 167 864 m 208 907 l 317 1083 l 431 1083 l 294 907 l 208 907 z "},"Û":{"ha":506,"x_min":72,"x_max":433,"o":"m 339 125 l 339 864 l 433 864 l 433 110 q 406 27 433 54 q 324 0 379 0 l 239 0 l 239 82 l 296 82 q 331 90 324 82 q 339 125 339 99 m 167 864 l 167 125 q 175 90 167 99 q 210 82 183 82 l 253 82 l 253 0 l 182 0 q 99 27 126 0 q 72 110 72 54 l 72 864 l 167 864 m 74 907 l 192 1083 l 313 1083 l 431 907 l 325 907 l 251 1024 l 179 907 l 74 907 z "},"Ü":{"ha":506,"x_min":69,"x_max":436,"o":"m 69 907 l 69 1024 l 192 1024 l 192 907 l 69 907 m 314 907 l 314 1024 l 436 1024 l 436 907 l 314 907 m 339 125 l 339 864 l 433 864 l 433 110 q 406 27 433 54 q 324 0 379 0 l 239 0 l 239 82 l 296 82 q 331 90 324 82 q 339 125 339 99 m 167 864 l 167 125 q 175 90 167 99 q 210 82 183 82 l 253 82 l 253 0 l 182 0 q 99 27 126 0 q 72 110 72 54 l 72 864 l 167 864 z "},"Ù":{"ha":506,"x_min":72,"x_max":433,"o":"m 339 125 l 339 864 l 433 864 l 433 110 q 406 27 433 54 q 324 0 379 0 l 239 0 l 239 82 l 296 82 q 331 90 324 82 q 339 125 339 99 m 167 864 l 167 125 q 175 90 167 99 q 210 82 183 82 l 253 82 l 253 0 l 182 0 q 99 27 126 0 q 72 110 72 54 l 72 864 l 167 864 m 188 1083 l 296 907 l 210 907 l 74 1083 l 188 1083 z "},"Ű":{"ha":506,"x_min":72,"x_max":492,"o":"m 281 907 l 389 1083 l 492 1083 l 356 907 l 281 907 m 142 907 l 250 1083 l 353 1083 l 217 907 l 142 907 m 339 125 l 339 864 l 433 864 l 433 110 q 406 27 433 54 q 324 0 379 0 l 239 0 l 239 82 l 296 82 q 331 90 324 82 q 339 125 339 99 m 167 864 l 167 125 q 175 90 167 99 q 210 82 183 82 l 253 82 l 253 0 l 182 0 q 99 27 126 0 q 72 110 72 54 l 72 864 l 167 864 z "},"Ū":{"ha":506,"x_min":72,"x_max":433,"o":"m 339 125 l 339 864 l 433 864 l 433 110 q 406 27 433 54 q 324 0 379 0 l 239 0 l 239 82 l 296 82 q 331 90 324 82 q 339 125 339 99 m 167 864 l 167 125 q 175 90 167 99 q 210 82 183 82 l 253 82 l 253 0 l 182 0 q 99 27 126 0 q 72 110 72 54 l 72 864 l 167 864 m 90 907 l 90 988 l 418 988 l 418 907 l 90 907 z "},"Ų":{"ha":506,"x_min":72,"x_max":433,"o":"m 339 125 l 339 864 l 433 864 l 433 110 q 406 27 433 54 q 324 0 379 0 l 239 0 l 239 82 l 296 82 q 331 90 324 82 q 339 125 339 99 m 167 864 l 167 125 q 175 90 167 99 q 210 82 183 82 l 253 82 l 253 0 l 182 0 q 99 27 126 0 q 72 110 72 54 l 72 864 l 167 864 m 96 -144 q 123 -62 96 -89 q 206 -35 150 -35 l 308 -35 l 308 -108 l 225 -108 q 190 -115 199 -108 q 181 -150 181 -122 l 181 -178 q 190 -212 181 -204 q 225 -219 199 -219 l 333 -219 l 333 -294 l 206 -294 q 123 -267 150 -294 q 96 -185 96 -240 l 96 -144 m 308 -39 l 217 -39 l 217 14 l 308 14 l 308 -39 z "},"Ů":{"ha":506,"x_min":72,"x_max":433,"o":"m 339 125 l 339 864 l 433 864 l 433 110 q 406 27 433 54 q 324 0 379 0 l 239 0 l 239 82 l 296 82 q 331 90 324 82 q 339 125 339 99 m 167 864 l 167 125 q 175 90 167 99 q 210 82 183 82 l 253 82 l 253 0 l 182 0 q 99 27 126 0 q 72 110 72 54 l 72 864 l 167 864 m 383 1021 l 383 997 q 361 928 383 950 q 293 907 339 907 l 210 907 q 142 928 164 907 q 119 997 119 950 l 119 1021 q 142 1090 119 1068 q 210 1111 164 1111 l 293 1111 q 361 1090 339 1111 q 383 1021 383 1068 m 313 1006 l 313 1013 q 306 1043 313 1036 q 274 1050 300 1050 l 229 1050 q 197 1043 203 1050 q 190 1013 190 1036 l 190 1006 q 197 976 190 983 q 229 968 203 968 l 274 968 q 306 976 300 968 q 313 1006 313 983 z "},"V":{"ha":443,"x_min":7,"x_max":436,"o":"m 340 864 l 436 864 l 297 0 l 146 0 l 7 864 l 103 864 l 221 67 l 340 864 z "},"W":{"ha":763,"x_min":14,"x_max":749,"o":"m 653 864 l 749 864 l 622 0 l 478 0 l 381 685 l 285 0 l 140 0 l 14 864 l 110 864 l 214 67 l 324 864 l 438 864 l 547 67 l 653 864 z "},"X":{"ha":464,"x_min":7,"x_max":457,"o":"m 282 442 l 457 0 l 354 0 l 232 351 l 110 0 l 7 0 l 182 442 l 21 864 l 124 864 l 232 528 l 340 864 l 443 864 l 282 442 z "},"Y":{"ha":443,"x_min":7,"x_max":436,"o":"m 272 264 l 178 264 l 7 864 l 103 864 l 225 357 l 340 864 l 436 864 l 272 264 m 178 318 l 272 318 l 272 0 l 178 0 l 178 318 z "},"Ý":{"ha":443,"x_min":7,"x_max":436,"o":"m 272 264 l 178 264 l 7 864 l 103 864 l 225 357 l 340 864 l 436 864 l 272 264 m 178 318 l 272 318 l 272 0 l 178 0 l 178 318 m 182 907 l 290 1083 l 404 1083 l 268 907 l 182 907 z "},"Ÿ":{"ha":443,"x_min":7,"x_max":436,"o":"m 43 907 l 43 1024 l 165 1024 l 165 907 l 43 907 m 288 907 l 288 1024 l 410 1024 l 410 907 l 288 907 m 272 264 l 178 264 l 7 864 l 103 864 l 225 357 l 340 864 l 436 864 l 272 264 m 178 318 l 272 318 l 272 0 l 178 0 l 178 318 z "},"Z":{"ha":379,"x_min":7,"x_max":372,"o":"m 372 865 l 372 783 l 21 783 l 21 865 l 372 865 m 278 783 l 372 783 l 101 82 l 7 82 l 278 783 m 365 82 l 365 0 l 7 0 l 7 82 l 365 82 z "},"Ź":{"ha":379,"x_min":7,"x_max":383,"o":"m 372 865 l 372 783 l 21 783 l 21 865 l 372 865 m 278 783 l 372 783 l 101 82 l 7 82 l 278 783 m 365 82 l 365 0 l 7 0 l 7 82 l 365 82 m 161 907 l 269 1083 l 383 1083 l 247 907 l 161 907 z "},"Ž":{"ha":379,"x_min":7,"x_max":372,"o":"m 372 865 l 372 783 l 21 783 l 21 865 l 372 865 m 278 783 l 372 783 l 101 82 l 7 82 l 278 783 m 365 82 l 365 0 l 7 0 l 7 82 l 365 82 m 132 907 l 14 1083 l 119 1083 l 192 967 l 265 1083 l 371 1083 l 253 907 l 132 907 z "},"Ż":{"ha":379,"x_min":7,"x_max":372,"o":"m 372 865 l 372 783 l 21 783 l 21 865 l 372 865 m 278 783 l 372 783 l 101 82 l 7 82 l 278 783 m 365 82 l 365 0 l 7 0 l 7 82 l 365 82 m 136 907 l 136 1026 l 264 1026 l 264 907 l 136 907 z "},"a":{"ha":456,"x_min":56,"x_max":393,"o":"m 151 311 l 56 311 l 56 564 q 83 647 56 619 q 165 674 110 674 l 221 674 q 280 655 257 674 q 303 589 303 636 l 303 503 l 297 503 l 297 542 q 286 581 297 569 q 250 592 275 592 l 194 592 q 160 584 168 592 q 151 549 151 576 l 151 311 m 393 0 l 297 0 l 297 586 l 297 597 l 297 674 l 393 674 l 393 0 m 56 363 l 151 363 l 151 125 q 160 90 151 99 q 194 82 168 82 l 250 82 q 286 93 275 82 q 297 132 297 104 l 297 168 l 303 168 l 303 85 q 280 19 303 38 q 221 0 257 0 l 165 0 q 83 27 110 0 q 56 110 56 54 l 56 363 z "},"á":{"ha":456,"x_min":56,"x_max":414,"o":"m 151 311 l 56 311 l 56 564 q 83 647 56 619 q 165 674 110 674 l 221 674 q 280 655 257 674 q 303 589 303 636 l 303 503 l 297 503 l 297 542 q 286 581 297 569 q 250 592 275 592 l 194 592 q 160 584 168 592 q 151 549 151 576 l 151 311 m 393 0 l 297 0 l 297 586 l 297 597 l 297 674 l 393 674 l 393 0 m 56 363 l 151 363 l 151 125 q 160 90 151 99 q 194 82 168 82 l 250 82 q 286 93 275 82 q 297 132 297 104 l 297 168 l 303 168 l 303 85 q 280 19 303 38 q 221 0 257 0 l 165 0 q 83 27 110 0 q 56 110 56 54 l 56 363 m 192 717 l 300 893 l 414 893 l 278 717 l 192 717 z "},"ă":{"ha":456,"x_min":44,"x_max":406,"o":"m 151 311 l 56 311 l 56 564 q 83 647 56 619 q 165 674 110 674 l 221 674 q 280 655 257 674 q 303 589 303 636 l 303 503 l 297 503 l 297 542 q 286 581 297 569 q 250 592 275 592 l 194 592 q 160 584 168 592 q 151 549 151 576 l 151 311 m 393 0 l 297 0 l 297 586 l 297 597 l 297 674 l 393 674 l 393 0 m 56 363 l 151 363 l 151 125 q 160 90 151 99 q 194 82 168 82 l 250 82 q 286 93 275 82 q 297 132 297 104 l 297 168 l 303 168 l 303 85 q 280 19 303 38 q 221 0 257 0 l 165 0 q 83 27 110 0 q 56 110 56 54 l 56 363 m 314 893 l 406 893 l 406 826 q 378 744 406 771 q 296 717 351 717 l 218 717 l 218 794 l 271 794 q 306 803 299 794 q 314 838 314 811 l 314 893 m 44 893 l 136 893 l 136 838 q 144 803 136 811 q 179 794 153 794 l 232 794 l 232 717 l 154 717 q 72 744 99 717 q 44 826 44 771 l 44 893 z "},"â":{"ha":456,"x_min":53,"x_max":410,"o":"m 151 311 l 56 311 l 56 564 q 83 647 56 619 q 165 674 110 674 l 221 674 q 280 655 257 674 q 303 589 303 636 l 303 503 l 297 503 l 297 542 q 286 581 297 569 q 250 592 275 592 l 194 592 q 160 584 168 592 q 151 549 151 576 l 151 311 m 393 0 l 297 0 l 297 586 l 297 597 l 297 674 l 393 674 l 393 0 m 56 363 l 151 363 l 151 125 q 160 90 151 99 q 194 82 168 82 l 250 82 q 286 93 275 82 q 297 132 297 104 l 297 168 l 303 168 l 303 85 q 280 19 303 38 q 221 0 257 0 l 165 0 q 83 27 110 0 q 56 110 56 54 l 56 363 m 53 717 l 171 893 l 292 893 l 410 717 l 304 717 l 231 833 l 158 717 l 53 717 z "},"ä":{"ha":456,"x_min":39,"x_max":406,"o":"m 39 751 l 39 868 l 161 868 l 161 751 l 39 751 m 283 751 l 283 868 l 406 868 l 406 751 l 283 751 m 151 311 l 56 311 l 56 564 q 83 647 56 619 q 165 674 110 674 l 221 674 q 280 655 257 674 q 303 589 303 636 l 303 503 l 297 503 l 297 542 q 286 581 297 569 q 250 592 275 592 l 194 592 q 160 584 168 592 q 151 549 151 576 l 151 311 m 393 0 l 297 0 l 297 586 l 297 597 l 297 674 l 393 674 l 393 0 m 56 363 l 151 363 l 151 125 q 160 90 151 99 q 194 82 168 82 l 250 82 q 286 93 275 82 q 297 132 297 104 l 297 168 l 303 168 l 303 85 q 280 19 303 38 q 221 0 257 0 l 165 0 q 83 27 110 0 q 56 110 56 54 l 56 363 z "},"æ":{"ha":707,"x_min":63,"x_max":651,"o":"m 350 396 l 378 318 l 158 231 l 63 278 l 350 396 m 63 278 l 158 231 l 158 125 q 167 90 158 99 q 201 82 175 82 l 257 82 q 292 91 281 82 q 304 124 303 100 l 304 550 q 257 592 300 592 l 201 592 q 167 584 175 592 q 158 549 158 576 l 158 433 l 63 433 l 63 564 q 90 647 63 619 q 172 674 117 674 l 271 674 q 324 657 304 674 q 350 621 344 640 q 376 657 356 640 q 426 674 396 674 l 542 674 q 624 647 597 674 q 651 564 651 619 l 651 304 l 556 304 l 556 549 q 548 584 556 576 q 513 592 540 592 l 443 592 q 408 584 417 592 q 400 549 400 576 l 400 125 q 408 90 400 99 q 443 82 417 82 l 508 82 q 544 90 536 82 q 551 125 551 99 l 551 186 l 647 186 l 647 110 q 620 27 647 54 q 538 0 593 0 l 426 0 q 376 17 396 0 q 350 53 356 35 q 324 17 344 35 q 271 0 304 0 l 172 0 q 90 27 117 0 q 63 110 63 54 l 63 278 m 633 386 l 633 304 l 346 304 l 346 386 l 633 386 z "},"à":{"ha":456,"x_min":56,"x_max":393,"o":"m 151 311 l 56 311 l 56 564 q 83 647 56 619 q 165 674 110 674 l 221 674 q 280 655 257 674 q 303 589 303 636 l 303 503 l 297 503 l 297 542 q 286 581 297 569 q 250 592 275 592 l 194 592 q 160 584 168 592 q 151 549 151 576 l 151 311 m 393 0 l 297 0 l 297 586 l 297 597 l 297 674 l 393 674 l 393 0 m 56 363 l 151 363 l 151 125 q 160 90 151 99 q 194 82 168 82 l 250 82 q 286 93 275 82 q 297 132 297 104 l 297 168 l 303 168 l 303 85 q 280 19 303 38 q 221 0 257 0 l 165 0 q 83 27 110 0 q 56 110 56 54 l 56 363 m 199 893 l 307 717 l 221 717 l 85 893 l 199 893 z "},"ā":{"ha":456,"x_min":56,"x_max":393,"o":"m 151 311 l 56 311 l 56 564 q 83 647 56 619 q 165 674 110 674 l 221 674 q 280 655 257 674 q 303 589 303 636 l 303 503 l 297 503 l 297 542 q 286 581 297 569 q 250 592 275 592 l 194 592 q 160 584 168 592 q 151 549 151 576 l 151 311 m 393 0 l 297 0 l 297 586 l 297 597 l 297 674 l 393 674 l 393 0 m 56 363 l 151 363 l 151 125 q 160 90 151 99 q 194 82 168 82 l 250 82 q 286 93 275 82 q 297 132 297 104 l 297 168 l 303 168 l 303 85 q 280 19 303 38 q 221 0 257 0 l 165 0 q 83 27 110 0 q 56 110 56 54 l 56 363 m 58 764 l 58 844 l 386 844 l 386 764 l 58 764 z "},"ą":{"ha":456,"x_min":56,"x_max":418,"o":"m 151 311 l 56 311 l 56 564 q 83 647 56 619 q 165 674 110 674 l 221 674 q 280 655 257 674 q 303 589 303 636 l 303 503 l 297 503 l 297 542 q 286 581 297 569 q 250 592 275 592 l 194 592 q 160 584 168 592 q 151 549 151 576 l 151 311 m 393 0 l 297 0 l 297 586 l 297 597 l 297 674 l 393 674 l 393 0 m 56 363 l 151 363 l 151 125 q 160 90 151 99 q 194 82 168 82 l 250 82 q 286 93 275 82 q 297 132 297 104 l 297 168 l 303 168 l 303 85 q 280 19 303 38 q 221 0 257 0 l 165 0 q 83 27 110 0 q 56 110 56 54 l 56 363 m 181 -144 q 208 -62 181 -89 q 290 -35 235 -35 l 393 -35 l 393 -108 l 310 -108 q 274 -115 283 -108 q 265 -150 265 -122 l 265 -178 q 274 -212 265 -204 q 310 -219 283 -219 l 418 -219 l 418 -294 l 290 -294 q 208 -267 235 -294 q 181 -185 181 -240 l 181 -144 m 393 -39 l 301 -39 l 301 14 l 393 14 l 393 -39 z "},"å":{"ha":456,"x_min":56,"x_max":393,"o":"m 151 311 l 56 311 l 56 564 q 83 647 56 619 q 165 674 110 674 l 221 674 q 280 655 257 674 q 303 589 303 636 l 303 503 l 297 503 l 297 542 q 286 581 297 569 q 250 592 275 592 l 194 592 q 160 584 168 592 q 151 549 151 576 l 151 311 m 393 0 l 297 0 l 297 586 l 297 597 l 297 674 l 393 674 l 393 0 m 56 363 l 151 363 l 151 125 q 160 90 151 99 q 194 82 168 82 l 250 82 q 286 93 275 82 q 297 132 297 104 l 297 168 l 303 168 l 303 85 q 280 19 303 38 q 221 0 257 0 l 165 0 q 83 27 110 0 q 56 110 56 54 l 56 363 m 365 846 l 365 822 q 343 753 365 775 q 275 732 321 732 l 192 732 q 124 753 146 732 q 101 822 101 775 l 101 846 q 124 915 101 893 q 192 936 146 936 l 275 936 q 343 915 321 936 q 365 846 365 893 m 294 831 l 294 838 q 288 868 294 861 q 256 875 282 875 l 211 875 q 178 868 185 875 q 172 838 172 861 l 172 831 q 178 801 172 808 q 211 793 185 793 l 256 793 q 288 801 282 793 q 294 831 294 808 z "},"ã":{"ha":456,"x_min":47,"x_max":394,"o":"m 151 311 l 56 311 l 56 564 q 83 647 56 619 q 165 674 110 674 l 221 674 q 280 655 257 674 q 303 589 303 636 l 303 503 l 297 503 l 297 542 q 286 581 297 569 q 250 592 275 592 l 194 592 q 160 584 168 592 q 151 549 151 576 l 151 311 m 393 0 l 297 0 l 297 586 l 297 597 l 297 674 l 393 674 l 393 0 m 56 363 l 151 363 l 151 125 q 160 90 151 99 q 194 82 168 82 l 250 82 q 286 93 275 82 q 297 132 297 104 l 297 168 l 303 168 l 303 85 q 280 19 303 38 q 221 0 257 0 l 165 0 q 83 27 110 0 q 56 110 56 54 l 56 363 m 289 742 q 236 754 260 742 q 194 778 213 767 q 157 790 175 790 q 133 757 133 790 l 133 742 l 47 742 l 47 761 q 69 838 47 810 q 147 867 90 867 l 156 867 q 207 855 185 867 q 247 831 229 843 q 282 818 265 818 q 303 824 297 818 q 308 853 308 831 l 308 867 l 394 867 l 394 847 q 374 771 394 800 q 296 742 354 742 l 289 742 z "},"b":{"ha":456,"x_min":63,"x_max":400,"o":"m 304 364 l 400 364 l 400 110 q 373 27 400 54 q 290 0 346 0 l 235 0 q 176 19 199 0 q 153 85 153 38 l 153 163 l 158 164 l 158 132 q 169 93 158 104 q 206 82 181 82 l 261 82 q 297 90 289 82 q 304 125 304 99 l 304 364 m 400 313 l 304 313 l 304 550 q 297 585 304 578 q 261 593 289 593 l 206 593 q 169 582 181 593 q 158 543 158 571 l 158 496 l 153 496 l 153 590 q 176 656 153 638 q 235 675 199 675 l 290 675 q 373 648 346 675 q 400 565 400 621 l 400 313 m 63 929 l 158 929 l 158 83 l 158 74 l 158 0 l 63 0 l 63 929 z "},"c":{"ha":451,"x_min":56,"x_max":403,"o":"m 151 549 l 151 125 q 160 90 151 99 q 194 82 168 82 l 228 82 l 228 0 l 165 0 q 83 27 110 0 q 56 110 56 54 l 56 564 q 83 647 56 619 q 165 674 110 674 l 238 674 l 238 592 l 194 592 q 160 584 168 592 q 151 549 151 576 m 307 474 l 307 549 q 299 584 307 576 q 264 592 292 592 l 217 592 l 217 674 l 293 674 q 376 647 349 674 q 403 564 403 619 l 403 474 l 307 474 m 307 125 l 307 200 l 403 200 l 403 110 q 376 27 403 54 q 293 0 349 0 l 217 0 l 217 82 l 264 82 q 299 90 292 82 q 307 125 307 99 z "},"ć":{"ha":451,"x_min":56,"x_max":404,"o":"m 151 549 l 151 125 q 160 90 151 99 q 194 82 168 82 l 228 82 l 228 0 l 165 0 q 83 27 110 0 q 56 110 56 54 l 56 564 q 83 647 56 619 q 165 674 110 674 l 238 674 l 238 592 l 194 592 q 160 584 168 592 q 151 549 151 576 m 307 474 l 307 549 q 299 584 307 576 q 264 592 292 592 l 217 592 l 217 674 l 293 674 q 376 647 349 674 q 403 564 403 619 l 403 474 l 307 474 m 307 125 l 307 200 l 403 200 l 403 110 q 376 27 403 54 q 293 0 349 0 l 217 0 l 217 82 l 264 82 q 299 90 292 82 q 307 125 307 99 m 182 717 l 290 893 l 404 893 l 268 717 l 182 717 z "},"č":{"ha":451,"x_min":53,"x_max":410,"o":"m 151 549 l 151 125 q 160 90 151 99 q 194 82 168 82 l 228 82 l 228 0 l 165 0 q 83 27 110 0 q 56 110 56 54 l 56 564 q 83 647 56 619 q 165 674 110 674 l 238 674 l 238 592 l 194 592 q 160 584 168 592 q 151 549 151 576 m 307 474 l 307 549 q 299 584 307 576 q 264 592 292 592 l 217 592 l 217 674 l 293 674 q 376 647 349 674 q 403 564 403 619 l 403 474 l 307 474 m 307 125 l 307 200 l 403 200 l 403 110 q 376 27 403 54 q 293 0 349 0 l 217 0 l 217 82 l 264 82 q 299 90 292 82 q 307 125 307 99 m 171 717 l 53 893 l 158 893 l 231 776 l 304 893 l 410 893 l 292 717 l 171 717 z "},"ç":{"ha":451,"x_min":56,"x_max":403,"o":"m 151 549 l 151 125 q 160 90 151 99 q 194 82 168 82 l 228 82 l 228 0 l 165 0 q 83 27 110 0 q 56 110 56 54 l 56 564 q 83 647 56 619 q 165 674 110 674 l 238 674 l 238 592 l 194 592 q 160 584 168 592 q 151 549 151 576 m 307 474 l 307 549 q 299 584 307 576 q 264 592 292 592 l 217 592 l 217 674 l 293 674 q 376 647 349 674 q 403 564 403 619 l 403 474 l 307 474 m 307 125 l 307 200 l 403 200 l 403 110 q 376 27 403 54 q 293 0 349 0 l 217 0 l 217 82 l 264 82 q 299 90 292 82 q 307 125 307 99 m 189 -101 l 189 -71 l 279 -71 l 279 -110 q 246 -203 279 -174 q 156 -233 213 -233 l 89 -233 l 89 -153 l 140 -153 q 178 -140 168 -153 q 189 -101 189 -128 z "},"d":{"ha":456,"x_min":56,"x_max":393,"o":"m 151 313 l 56 313 l 56 565 q 83 648 56 621 q 165 675 110 675 l 221 675 q 280 656 257 675 q 303 590 303 638 l 303 496 l 297 496 l 297 543 q 286 582 297 571 q 250 593 275 593 l 194 593 q 160 585 168 593 q 151 550 151 578 l 151 313 m 297 929 l 393 929 l 393 0 l 297 0 l 297 74 l 297 83 l 297 929 m 56 364 l 151 364 l 151 125 q 160 90 151 99 q 194 82 168 82 l 250 82 q 286 93 275 82 q 297 132 297 104 l 297 164 l 303 163 l 303 85 q 280 19 303 38 q 221 0 257 0 l 165 0 q 83 27 110 0 q 56 110 56 54 l 56 364 z "},"ď":{"ha":492,"x_min":56,"x_max":542,"o":"m 456 929 l 542 929 l 542 875 l 493 707 l 456 707 l 456 929 m 151 313 l 56 313 l 56 565 q 83 648 56 621 q 165 675 110 675 l 221 675 q 280 656 257 675 q 303 590 303 638 l 303 496 l 297 496 l 297 543 q 286 582 297 571 q 250 593 275 593 l 194 593 q 160 585 168 593 q 151 550 151 578 l 151 313 m 297 929 l 393 929 l 393 0 l 297 0 l 297 74 l 297 83 l 297 929 m 56 364 l 151 364 l 151 125 q 160 90 151 99 q 194 82 168 82 l 250 82 q 286 93 275 82 q 297 132 297 104 l 297 164 l 303 163 l 303 85 q 280 19 303 38 q 221 0 257 0 l 165 0 q 83 27 110 0 q 56 110 56 54 l 56 364 z "},"đ":{"ha":463,"x_min":63,"x_max":463,"o":"m 158 311 l 63 311 l 63 564 q 90 647 63 619 q 172 674 117 674 l 228 674 q 287 655 264 674 q 310 589 310 636 l 310 494 l 304 494 l 304 542 q 293 581 304 569 q 257 592 282 592 l 201 592 q 167 584 175 592 q 158 549 158 576 l 158 311 m 304 929 l 400 929 l 400 0 l 304 0 l 304 74 l 304 83 l 304 929 m 63 364 l 158 364 l 158 125 q 167 90 158 99 q 201 82 175 82 l 257 82 q 293 93 282 82 q 304 132 304 104 l 304 164 l 310 163 l 310 85 q 287 19 310 38 q 228 0 264 0 l 172 0 q 90 27 117 0 q 63 110 63 54 l 63 364 m 463 838 l 463 756 l 186 756 l 186 838 l 463 838 z "},"ı":{"ha":221,"x_min":63,"x_max":158,"o":"m 158 0 l 63 0 l 63 674 l 158 674 l 158 0 z "},"e":{"ha":458,"x_min":63,"x_max":410,"o":"m 158 549 l 158 125 q 167 90 158 99 q 201 82 175 82 l 235 82 l 235 0 l 172 0 q 90 27 117 0 q 63 110 63 54 l 63 564 q 90 647 63 619 q 172 674 117 674 l 244 674 l 244 592 l 201 592 q 167 584 175 592 q 158 549 158 576 m 314 318 l 314 549 q 306 584 314 576 q 271 592 299 592 l 224 592 l 224 674 l 300 674 q 383 647 356 674 q 410 564 410 619 l 410 318 l 314 318 m 310 125 l 310 186 l 406 186 l 406 110 q 378 27 406 54 q 296 0 351 0 l 224 0 l 224 82 l 267 82 q 302 90 294 82 q 310 125 310 99 m 410 386 l 410 304 l 104 304 l 104 386 l 410 386 z "},"é":{"ha":458,"x_min":63,"x_max":414,"o":"m 158 549 l 158 125 q 167 90 158 99 q 201 82 175 82 l 235 82 l 235 0 l 172 0 q 90 27 117 0 q 63 110 63 54 l 63 564 q 90 647 63 619 q 172 674 117 674 l 244 674 l 244 592 l 201 592 q 167 584 175 592 q 158 549 158 576 m 314 318 l 314 549 q 306 584 314 576 q 271 592 299 592 l 224 592 l 224 674 l 300 674 q 383 647 356 674 q 410 564 410 619 l 410 318 l 314 318 m 310 125 l 310 186 l 406 186 l 406 110 q 378 27 406 54 q 296 0 351 0 l 224 0 l 224 82 l 267 82 q 302 90 294 82 q 310 125 310 99 m 410 386 l 410 304 l 104 304 l 104 386 l 410 386 m 192 717 l 300 893 l 414 893 l 278 717 l 192 717 z "},"ě":{"ha":458,"x_min":57,"x_max":414,"o":"m 158 549 l 158 125 q 167 90 158 99 q 201 82 175 82 l 235 82 l 235 0 l 172 0 q 90 27 117 0 q 63 110 63 54 l 63 564 q 90 647 63 619 q 172 674 117 674 l 244 674 l 244 592 l 201 592 q 167 584 175 592 q 158 549 158 576 m 314 318 l 314 549 q 306 584 314 576 q 271 592 299 592 l 224 592 l 224 674 l 300 674 q 383 647 356 674 q 410 564 410 619 l 410 318 l 314 318 m 310 125 l 310 186 l 406 186 l 406 110 q 378 27 406 54 q 296 0 351 0 l 224 0 l 224 82 l 267 82 q 302 90 294 82 q 310 125 310 99 m 410 386 l 410 304 l 104 304 l 104 386 l 410 386 m 175 717 l 57 893 l 163 893 l 235 776 l 308 893 l 414 893 l 296 717 l 175 717 z "},"ê":{"ha":456,"x_min":60,"x_max":417,"o":"m 60 717 l 178 893 l 299 893 l 417 717 l 311 717 l 238 833 l 165 717 l 60 717 m 158 549 l 158 125 q 167 90 158 99 q 201 82 175 82 l 235 82 l 235 0 l 172 0 q 90 27 117 0 q 63 110 63 54 l 63 564 q 90 647 63 619 q 172 674 117 674 l 244 674 l 244 592 l 201 592 q 167 584 175 592 q 158 549 158 576 m 314 318 l 314 549 q 306 584 314 576 q 271 592 299 592 l 224 592 l 224 674 l 300 674 q 383 647 356 674 q 410 564 410 619 l 410 318 l 314 318 m 310 125 l 310 186 l 406 186 l 406 110 q 378 27 406 54 q 296 0 351 0 l 224 0 l 224 82 l 267 82 q 302 90 294 82 q 310 125 310 99 m 410 386 l 410 304 l 104 304 l 104 386 l 410 386 z "},"ë":{"ha":456,"x_min":44,"x_max":411,"o":"m 44 751 l 44 868 l 167 868 l 167 751 l 44 751 m 289 751 l 289 868 l 411 868 l 411 751 l 289 751 m 158 549 l 158 125 q 167 90 158 99 q 201 82 175 82 l 235 82 l 235 0 l 172 0 q 90 27 117 0 q 63 110 63 54 l 63 564 q 90 647 63 619 q 172 674 117 674 l 244 674 l 244 592 l 201 592 q 167 584 175 592 q 158 549 158 576 m 314 318 l 314 549 q 306 584 314 576 q 271 592 299 592 l 224 592 l 224 674 l 300 674 q 383 647 356 674 q 410 564 410 619 l 410 318 l 314 318 m 310 125 l 310 186 l 406 186 l 406 110 q 378 27 406 54 q 296 0 351 0 l 224 0 l 224 82 l 267 82 q 302 90 294 82 q 310 125 310 99 m 410 386 l 410 304 l 104 304 l 104 386 l 410 386 z "},"ė":{"ha":458,"x_min":63,"x_max":410,"o":"m 158 549 l 158 125 q 167 90 158 99 q 201 82 175 82 l 235 82 l 235 0 l 172 0 q 90 27 117 0 q 63 110 63 54 l 63 564 q 90 647 63 619 q 172 674 117 674 l 244 674 l 244 592 l 201 592 q 167 584 175 592 q 158 549 158 576 m 314 318 l 314 549 q 306 584 314 576 q 271 592 299 592 l 224 592 l 224 674 l 300 674 q 383 647 356 674 q 410 564 410 619 l 410 318 l 314 318 m 310 125 l 310 186 l 406 186 l 406 110 q 378 27 406 54 q 296 0 351 0 l 224 0 l 224 82 l 267 82 q 302 90 294 82 q 310 125 310 99 m 410 386 l 410 304 l 104 304 l 104 386 l 410 386 m 178 744 l 178 864 l 306 864 l 306 744 l 178 744 z "},"è":{"ha":458,"x_min":51,"x_max":410,"o":"m 158 549 l 158 125 q 167 90 158 99 q 201 82 175 82 l 235 82 l 235 0 l 172 0 q 90 27 117 0 q 63 110 63 54 l 63 564 q 90 647 63 619 q 172 674 117 674 l 244 674 l 244 592 l 201 592 q 167 584 175 592 q 158 549 158 576 m 314 318 l 314 549 q 306 584 314 576 q 271 592 299 592 l 224 592 l 224 674 l 300 674 q 383 647 356 674 q 410 564 410 619 l 410 318 l 314 318 m 310 125 l 310 186 l 406 186 l 406 110 q 378 27 406 54 q 296 0 351 0 l 224 0 l 224 82 l 267 82 q 302 90 294 82 q 310 125 310 99 m 410 386 l 410 304 l 104 304 l 104 386 l 410 386 m 165 893 l 274 717 l 188 717 l 51 893 l 165 893 z "},"ē":{"ha":458,"x_min":63,"x_max":410,"o":"m 158 549 l 158 125 q 167 90 158 99 q 201 82 175 82 l 235 82 l 235 0 l 172 0 q 90 27 117 0 q 63 110 63 54 l 63 564 q 90 647 63 619 q 172 674 117 674 l 244 674 l 244 592 l 201 592 q 167 584 175 592 q 158 549 158 576 m 314 318 l 314 549 q 306 584 314 576 q 271 592 299 592 l 224 592 l 224 674 l 300 674 q 383 647 356 674 q 410 564 410 619 l 410 318 l 314 318 m 310 125 l 310 186 l 406 186 l 406 110 q 378 27 406 54 q 296 0 351 0 l 224 0 l 224 82 l 267 82 q 302 90 294 82 q 310 125 310 99 m 410 386 l 410 304 l 104 304 l 104 386 l 410 386 m 65 764 l 65 844 l 393 844 l 393 764 l 65 764 z "},"ę":{"ha":458,"x_min":63,"x_max":410,"o":"m 158 549 l 158 125 q 167 90 158 99 q 201 82 175 82 l 235 82 l 235 0 l 172 0 q 90 27 117 0 q 63 110 63 54 l 63 564 q 90 647 63 619 q 172 674 117 674 l 244 674 l 244 592 l 201 592 q 167 584 175 592 q 158 549 158 576 m 314 318 l 314 549 q 306 584 314 576 q 271 592 299 592 l 224 592 l 224 674 l 300 674 q 383 647 356 674 q 410 564 410 619 l 410 318 l 314 318 m 310 125 l 310 186 l 406 186 l 406 110 q 378 27 406 54 q 296 0 351 0 l 224 0 l 224 82 l 267 82 q 302 90 294 82 q 310 125 310 99 m 410 386 l 410 304 l 104 304 l 104 386 l 410 386 m 75 -144 q 102 -62 75 -89 q 185 -35 129 -35 l 288 -35 l 288 -108 l 204 -108 q 169 -115 178 -108 q 160 -150 160 -122 l 160 -178 q 169 -212 160 -204 q 204 -219 178 -219 l 313 -219 l 313 -294 l 185 -294 q 102 -267 129 -294 q 75 -185 75 -240 l 75 -144 m 288 -39 l 196 -39 l 196 14 l 288 14 l 288 -39 z "},"ð":{"ha":482,"x_min":56,"x_max":413,"o":"m 151 125 q 160 90 151 99 q 194 82 168 82 l 240 82 l 240 0 l 165 0 q 83 27 110 0 q 56 110 56 54 l 56 464 q 83 547 56 519 q 165 574 110 574 l 351 574 l 351 492 l 194 492 q 160 484 168 492 q 151 449 151 476 l 151 125 m 317 414 q 306 524 317 471 q 276 626 296 578 q 228 717 256 674 q 169 797 201 760 q 99 864 136 833 l 231 864 q 299 782 267 828 q 358 681 332 736 q 398 563 383 626 q 413 429 413 500 l 413 110 q 385 27 413 54 q 303 0 358 0 l 228 0 l 228 82 l 274 82 q 309 90 301 82 q 317 125 317 99 l 317 414 m 96 675 l 96 742 l 401 858 l 401 792 l 96 675 z "},"f":{"ha":274,"x_min":7,"x_max":267,"o":"m 169 797 l 169 0 l 74 0 l 74 819 q 101 902 74 875 q 183 929 128 929 l 267 929 l 267 840 l 213 840 q 178 833 186 840 q 169 797 169 825 m 267 674 l 267 592 l 7 592 l 7 674 l 267 674 z "},"g":{"ha":456,"x_min":56,"x_max":393,"o":"m 56 364 l 151 364 l 151 125 q 160 90 151 99 q 194 82 168 82 l 250 82 q 286 93 275 82 q 297 132 297 104 l 297 164 l 303 163 l 303 85 q 280 19 303 38 q 221 0 257 0 l 165 0 q 83 27 110 0 q 56 110 56 54 l 56 364 m 151 311 l 56 311 l 56 564 q 83 647 56 619 q 165 674 110 674 l 221 674 q 280 655 257 674 q 303 589 303 636 l 303 494 l 297 494 l 297 542 q 286 581 297 569 q 250 592 275 592 l 194 592 q 160 584 168 592 q 151 549 151 576 l 151 311 m 297 -71 l 297 14 l 393 14 l 393 -86 q 366 -169 393 -142 q 283 -196 339 -196 l 76 -196 l 76 -114 l 254 -114 q 290 -106 282 -114 q 297 -71 297 -97 m 393 -3 l 297 -3 l 297 600 l 297 604 l 297 674 l 393 674 l 393 -3 z "},"ğ":{"ha":456,"x_min":47,"x_max":408,"o":"m 56 364 l 151 364 l 151 125 q 160 90 151 99 q 194 82 168 82 l 250 82 q 286 93 275 82 q 297 132 297 104 l 297 164 l 303 163 l 303 85 q 280 19 303 38 q 221 0 257 0 l 165 0 q 83 27 110 0 q 56 110 56 54 l 56 364 m 151 311 l 56 311 l 56 564 q 83 647 56 619 q 165 674 110 674 l 221 674 q 280 655 257 674 q 303 589 303 636 l 303 494 l 297 494 l 297 542 q 286 581 297 569 q 250 592 275 592 l 194 592 q 160 584 168 592 q 151 549 151 576 l 151 311 m 297 -71 l 297 14 l 393 14 l 393 -86 q 366 -169 393 -142 q 283 -196 339 -196 l 76 -196 l 76 -114 l 254 -114 q 290 -106 282 -114 q 297 -71 297 -97 m 393 -3 l 297 -3 l 297 600 l 297 604 l 297 674 l 393 674 l 393 -3 m 317 893 l 408 893 l 408 826 q 381 744 408 771 q 299 717 354 717 l 221 717 l 221 794 l 274 794 q 309 803 301 794 q 317 838 317 811 l 317 893 m 47 893 l 139 893 l 139 838 q 147 803 139 811 q 182 794 156 794 l 235 794 l 235 717 l 157 717 q 74 744 101 717 q 47 826 47 771 l 47 893 z "},"ģ":{"ha":456,"x_min":56,"x_max":393,"o":"m 292 717 l 181 717 l 181 771 l 254 939 l 292 939 l 292 717 m 56 364 l 151 364 l 151 125 q 160 90 151 99 q 194 82 168 82 l 250 82 q 286 93 275 82 q 297 132 297 104 l 297 164 l 303 163 l 303 85 q 280 19 303 38 q 221 0 257 0 l 165 0 q 83 27 110 0 q 56 110 56 54 l 56 364 m 151 311 l 56 311 l 56 564 q 83 647 56 619 q 165 674 110 674 l 221 674 q 280 655 257 674 q 303 589 303 636 l 303 494 l 297 494 l 297 542 q 286 581 297 569 q 250 592 275 592 l 194 592 q 160 584 168 592 q 151 549 151 576 l 151 311 m 297 -71 l 297 14 l 393 14 l 393 -86 q 366 -169 393 -142 q 283 -196 339 -196 l 76 -196 l 76 -114 l 254 -114 q 290 -106 282 -114 q 297 -71 297 -97 m 393 -3 l 297 -3 l 297 600 l 297 604 l 297 674 l 393 674 l 393 -3 z "},"ß":{"ha":589,"x_min":63,"x_max":540,"o":"m 256 206 l 349 206 l 349 124 q 357 89 349 97 q 392 81 365 81 l 404 81 q 440 89 432 81 q 447 124 447 97 l 447 251 q 440 287 447 279 q 404 294 432 294 l 363 294 q 280 322 307 294 q 253 404 253 349 l 253 494 q 281 578 253 551 q 357 604 310 604 q 403 610 393 604 q 413 639 413 617 l 413 688 q 405 724 413 715 q 369 732 397 732 l 201 732 q 166 724 175 732 q 157 688 157 715 l 157 0 l 63 0 l 63 708 q 90 791 63 764 q 172 818 117 818 l 394 818 q 477 791 450 818 q 504 708 504 764 l 504 614 q 493 565 504 585 q 461 534 482 544 q 410 524 440 524 l 389 524 q 353 516 363 524 q 344 481 344 508 l 344 418 q 353 383 344 392 q 389 375 363 375 l 431 375 q 513 348 486 375 q 540 265 540 321 l 540 110 q 513 27 540 54 q 431 0 486 0 l 365 0 q 283 27 310 0 q 256 110 256 54 l 256 206 z "},"h":{"ha":463,"x_min":63,"x_max":400,"o":"m 400 0 l 304 0 l 304 549 q 297 584 304 576 q 261 592 289 592 l 206 592 q 169 581 181 592 q 158 542 158 569 l 158 499 l 153 499 l 153 589 q 176 655 153 636 q 235 674 199 674 l 290 674 q 373 647 346 674 q 400 564 400 619 l 400 0 m 158 0 l 63 0 l 63 929 l 158 929 l 158 0 z "},"i":{"ha":221,"x_min":60,"x_max":161,"o":"m 158 0 l 63 0 l 63 674 l 158 674 l 158 0 m 60 818 l 60 931 l 161 931 l 161 818 l 60 818 z "},"í":{"ha":221,"x_min":63,"x_max":285,"o":"m 158 0 l 63 0 l 63 674 l 158 674 l 158 0 m 63 717 l 171 893 l 285 893 l 149 717 l 63 717 z "},"î":{"ha":221,"x_min":-67,"x_max":290,"o":"m 158 0 l 63 0 l 63 674 l 158 674 l 158 0 m -67 717 l 51 893 l 172 893 l 290 717 l 185 717 l 111 833 l 39 717 l -67 717 z "},"ï":{"ha":221,"x_min":-72,"x_max":294,"o":"m 158 0 l 63 0 l 63 674 l 158 674 l 158 0 m -72 751 l -72 868 l 50 868 l 50 751 l -72 751 m 172 751 l 172 868 l 294 868 l 294 751 l 172 751 z "},"ì":{"ha":221,"x_min":-69,"x_max":158,"o":"m 158 0 l 63 0 l 63 674 l 158 674 l 158 0 m 44 893 l 153 717 l 67 717 l -69 893 l 44 893 z "},"ī":{"ha":221,"x_min":-53,"x_max":275,"o":"m 158 0 l 63 0 l 63 674 l 158 674 l 158 0 m -53 764 l -53 844 l 275 844 l 275 764 l -53 764 z "},"į":{"ha":221,"x_min":-54,"x_max":183,"o":"m 158 0 l 63 0 l 63 674 l 158 674 l 158 0 m 60 818 l 60 931 l 161 931 l 161 818 l 60 818 m -54 -144 q -27 -62 -54 -89 q 56 -35 0 -35 l 158 -35 l 158 -108 l 75 -108 q 40 -115 49 -108 q 31 -150 31 -122 l 31 -178 q 40 -212 31 -204 q 75 -219 49 -219 l 183 -219 l 183 -294 l 56 -294 q -27 -267 0 -294 q -54 -185 -54 -240 l -54 -144 m 158 -39 l 67 -39 l 67 14 l 158 14 l 158 -39 z "},"j":{"ha":221,"x_min":0,"x_max":161,"o":"m 63 -71 l 63 674 l 158 674 l 158 -86 q 131 -169 158 -142 q 49 -196 104 -196 l 0 -196 l 0 -114 l 19 -114 q 55 -106 47 -114 q 63 -71 63 -97 m 60 818 l 60 931 l 161 931 l 161 818 l 60 818 z "},"k":{"ha":451,"x_min":63,"x_max":444,"o":"m 158 0 l 63 0 l 63 929 l 158 929 l 158 0 m 189 356 l 288 356 l 444 0 l 342 0 l 189 356 m 288 356 l 189 356 l 342 674 l 444 674 l 288 356 z "},"ķ":{"ha":451,"x_min":63,"x_max":444,"o":"m 158 0 l 63 0 l 63 929 l 158 929 l 158 0 m 189 356 l 288 356 l 444 0 l 342 0 l 189 356 m 288 356 l 189 356 l 342 674 l 444 674 l 288 356 m 181 -71 l 292 -71 l 292 -125 l 218 -293 l 181 -293 l 181 -71 z "},"l":{"ha":221,"x_min":63,"x_max":158,"o":"m 158 0 l 63 0 l 63 929 l 158 929 l 158 0 z "},"ĺ":{"ha":221,"x_min":63,"x_max":289,"o":"m 158 0 l 63 0 l 63 929 l 158 929 l 158 0 m 67 972 l 175 1149 l 289 1149 l 153 972 l 67 972 z "},"ľ":{"ha":258,"x_min":63,"x_max":307,"o":"m 221 929 l 307 929 l 307 875 l 258 707 l 221 707 l 221 929 m 158 0 l 63 0 l 63 929 l 158 929 l 158 0 z "},"ļ":{"ha":221,"x_min":56,"x_max":167,"o":"m 158 0 l 63 0 l 63 929 l 158 929 l 158 0 m 56 -71 l 167 -71 l 167 -125 l 93 -293 l 56 -293 l 56 -71 z "},"ł":{"ha":235,"x_min":-39,"x_max":292,"o":"m 292 614 l 292 532 l -39 379 l -39 461 l 292 614 m 165 0 l 69 0 l 69 929 l 165 929 l 165 0 z "},"m":{"ha":697,"x_min":63,"x_max":642,"o":"m 400 0 l 304 0 l 304 549 q 297 584 304 576 q 261 592 289 592 l 206 592 q 169 581 181 592 q 158 542 158 569 l 158 494 l 153 494 l 153 589 q 176 655 153 636 q 235 674 199 674 l 290 674 q 373 647 346 674 q 400 564 400 619 l 400 0 m 158 0 l 63 0 l 63 674 l 158 674 l 158 601 l 158 592 l 158 0 m 642 0 l 546 0 l 546 549 q 538 584 546 576 q 503 592 531 592 l 447 592 q 411 581 422 592 q 400 542 400 569 l 400 494 l 388 494 l 388 588 q 413 654 388 635 q 476 674 438 674 l 532 674 q 615 647 588 674 q 642 564 642 619 l 642 0 z "},"n":{"ha":463,"x_min":63,"x_max":400,"o":"m 158 0 l 63 0 l 63 674 l 158 674 l 158 601 l 158 592 l 158 0 m 400 0 l 304 0 l 304 549 q 297 584 304 576 q 261 592 289 592 l 206 592 q 169 581 181 592 q 158 542 158 569 l 158 494 l 153 494 l 153 589 q 176 655 153 636 q 235 674 199 674 l 290 674 q 373 647 346 674 q 400 564 400 619 l 400 0 z "},"ń":{"ha":463,"x_min":63,"x_max":411,"o":"m 158 0 l 63 0 l 63 674 l 158 674 l 158 601 l 158 592 l 158 0 m 400 0 l 304 0 l 304 549 q 297 584 304 576 q 261 592 289 592 l 206 592 q 169 581 181 592 q 158 542 158 569 l 158 494 l 153 494 l 153 589 q 176 655 153 636 q 235 674 199 674 l 290 674 q 373 647 346 674 q 400 564 400 619 l 400 0 m 189 717 l 297 893 l 411 893 l 275 717 l 189 717 z "},"ň":{"ha":463,"x_min":44,"x_max":401,"o":"m 158 0 l 63 0 l 63 674 l 158 674 l 158 601 l 158 592 l 158 0 m 400 0 l 304 0 l 304 549 q 297 584 304 576 q 261 592 289 592 l 206 592 q 169 581 181 592 q 158 542 158 569 l 158 494 l 153 494 l 153 589 q 176 655 153 636 q 235 674 199 674 l 290 674 q 373 647 346 674 q 400 564 400 619 l 400 0 m 163 717 l 44 893 l 150 893 l 222 776 l 296 893 l 401 893 l 283 717 l 163 717 z "},"ņ":{"ha":463,"x_min":63,"x_max":400,"o":"m 158 0 l 63 0 l 63 674 l 158 674 l 158 601 l 158 592 l 158 0 m 400 0 l 304 0 l 304 549 q 297 584 304 576 q 261 592 289 592 l 206 592 q 169 581 181 592 q 158 542 158 569 l 158 494 l 153 494 l 153 589 q 176 655 153 636 q 235 674 199 674 l 290 674 q 373 647 346 674 q 400 564 400 619 l 400 0 m 169 -71 l 281 -71 l 281 -125 l 207 -293 l 169 -293 l 169 -71 z "},"ñ":{"ha":463,"x_min":47,"x_max":400,"o":"m 158 0 l 63 0 l 63 674 l 158 674 l 158 601 l 158 592 l 158 0 m 400 0 l 304 0 l 304 549 q 297 584 304 576 q 261 592 289 592 l 206 592 q 169 581 181 592 q 158 542 158 569 l 158 494 l 153 494 l 153 589 q 176 655 153 636 q 235 674 199 674 l 290 674 q 373 647 346 674 q 400 564 400 619 l 400 0 m 289 742 q 236 754 260 742 q 194 778 213 767 q 157 790 175 790 q 133 757 133 790 l 133 742 l 47 742 l 47 761 q 69 838 47 810 q 147 867 90 867 l 156 867 q 207 855 185 867 q 247 831 229 843 q 282 818 265 818 q 303 824 297 818 q 308 853 308 831 l 308 867 l 394 867 l 394 847 q 374 771 394 800 q 296 742 354 742 l 289 742 z "},"o":{"ha":472,"x_min":56,"x_max":417,"o":"m 322 196 l 322 549 q 315 584 322 576 q 279 592 307 592 l 232 592 l 232 674 l 307 674 q 390 647 363 674 q 417 564 417 619 l 417 196 l 322 196 m 322 125 l 322 265 l 417 265 l 417 110 q 390 27 417 54 q 307 0 363 0 l 222 0 l 222 82 l 279 82 q 315 90 307 82 q 322 125 322 99 m 150 549 l 150 194 l 56 194 l 56 564 q 83 647 56 619 q 165 674 110 674 l 240 674 l 240 592 l 193 592 q 158 584 167 592 q 150 549 150 576 m 150 276 l 150 125 q 158 90 150 99 q 193 82 167 82 l 236 82 l 236 0 l 165 0 q 83 27 110 0 q 56 110 56 54 l 56 276 l 150 276 z "},"ó":{"ha":472,"x_min":56,"x_max":417,"o":"m 322 196 l 322 549 q 315 584 322 576 q 279 592 307 592 l 232 592 l 232 674 l 307 674 q 390 647 363 674 q 417 564 417 619 l 417 196 l 322 196 m 322 125 l 322 265 l 417 265 l 417 110 q 390 27 417 54 q 307 0 363 0 l 222 0 l 222 82 l 279 82 q 315 90 307 82 q 322 125 322 99 m 150 549 l 150 194 l 56 194 l 56 564 q 83 647 56 619 q 165 674 110 674 l 240 674 l 240 592 l 193 592 q 158 584 167 592 q 150 549 150 576 m 150 276 l 150 125 q 158 90 150 99 q 193 82 167 82 l 236 82 l 236 0 l 165 0 q 83 27 110 0 q 56 110 56 54 l 56 276 l 150 276 m 186 717 l 294 893 l 408 893 l 272 717 l 186 717 z "},"ô":{"ha":472,"x_min":54,"x_max":417,"o":"m 322 196 l 322 549 q 315 584 322 576 q 279 592 307 592 l 232 592 l 232 674 l 307 674 q 390 647 363 674 q 417 564 417 619 l 417 196 l 322 196 m 322 125 l 322 265 l 417 265 l 417 110 q 390 27 417 54 q 307 0 363 0 l 222 0 l 222 82 l 279 82 q 315 90 307 82 q 322 125 322 99 m 150 549 l 150 194 l 56 194 l 56 564 q 83 647 56 619 q 165 674 110 674 l 240 674 l 240 592 l 193 592 q 158 584 167 592 q 150 549 150 576 m 150 276 l 150 125 q 158 90 150 99 q 193 82 167 82 l 236 82 l 236 0 l 165 0 q 83 27 110 0 q 56 110 56 54 l 56 276 l 150 276 m 54 717 l 172 893 l 293 893 l 411 717 l 306 717 l 232 833 l 160 717 l 54 717 z "},"ö":{"ha":472,"x_min":51,"x_max":418,"o":"m 51 751 l 51 868 l 174 868 l 174 751 l 51 751 m 296 751 l 296 868 l 418 868 l 418 751 l 296 751 m 322 196 l 322 549 q 315 584 322 576 q 279 592 307 592 l 232 592 l 232 674 l 307 674 q 390 647 363 674 q 417 564 417 619 l 417 196 l 322 196 m 322 125 l 322 265 l 417 265 l 417 110 q 390 27 417 54 q 307 0 363 0 l 222 0 l 222 82 l 279 82 q 315 90 307 82 q 322 125 322 99 m 150 549 l 150 194 l 56 194 l 56 564 q 83 647 56 619 q 165 674 110 674 l 240 674 l 240 592 l 193 592 q 158 584 167 592 q 150 549 150 576 m 150 276 l 150 125 q 158 90 150 99 q 193 82 167 82 l 236 82 l 236 0 l 165 0 q 83 27 110 0 q 56 110 56 54 l 56 276 l 150 276 z "},"œ":{"ha":719,"x_min":63,"x_max":651,"o":"m 172 0 q 90 27 117 0 q 63 110 63 54 l 63 564 q 90 647 63 619 q 172 674 117 674 l 271 674 q 324 657 304 674 q 350 621 344 640 q 376 657 356 640 q 426 674 396 674 l 542 674 q 624 647 597 674 q 651 564 651 619 l 651 304 l 556 304 l 556 549 q 548 584 556 576 q 513 592 540 592 l 443 592 q 408 584 417 592 q 400 549 400 576 l 400 125 q 408 90 400 99 q 443 82 417 82 l 508 82 q 544 90 536 82 q 551 125 551 99 l 551 186 l 647 186 l 647 110 q 620 27 647 54 q 538 0 593 0 l 426 0 q 376 17 396 0 q 350 53 356 35 q 324 17 344 35 q 271 0 304 0 l 172 0 m 158 549 l 158 125 q 167 90 158 99 q 201 82 175 82 l 257 82 q 292 91 281 82 q 304 124 303 100 l 304 550 q 257 592 300 592 l 201 592 q 167 584 175 592 q 158 549 158 576 m 651 386 l 651 304 l 346 304 l 346 386 l 651 386 z "},"ò":{"ha":472,"x_min":53,"x_max":417,"o":"m 322 196 l 322 549 q 315 584 322 576 q 279 592 307 592 l 232 592 l 232 674 l 307 674 q 390 647 363 674 q 417 564 417 619 l 417 196 l 322 196 m 322 125 l 322 265 l 417 265 l 417 110 q 390 27 417 54 q 307 0 363 0 l 222 0 l 222 82 l 279 82 q 315 90 307 82 q 322 125 322 99 m 150 549 l 150 194 l 56 194 l 56 564 q 83 647 56 619 q 165 674 110 674 l 240 674 l 240 592 l 193 592 q 158 584 167 592 q 150 549 150 576 m 150 276 l 150 125 q 158 90 150 99 q 193 82 167 82 l 236 82 l 236 0 l 165 0 q 83 27 110 0 q 56 110 56 54 l 56 276 l 150 276 m 167 893 l 275 717 l 189 717 l 53 893 l 167 893 z "},"ő":{"ha":472,"x_min":56,"x_max":479,"o":"m 268 717 l 376 893 l 479 893 l 343 717 l 268 717 m 129 717 l 238 893 l 340 893 l 204 717 l 129 717 m 322 196 l 322 549 q 315 584 322 576 q 279 592 307 592 l 232 592 l 232 674 l 307 674 q 390 647 363 674 q 417 564 417 619 l 417 196 l 322 196 m 322 125 l 322 265 l 417 265 l 417 110 q 390 27 417 54 q 307 0 363 0 l 222 0 l 222 82 l 279 82 q 315 90 307 82 q 322 125 322 99 m 150 549 l 150 194 l 56 194 l 56 564 q 83 647 56 619 q 165 674 110 674 l 240 674 l 240 592 l 193 592 q 158 584 167 592 q 150 549 150 576 m 150 276 l 150 125 q 158 90 150 99 q 193 82 167 82 l 236 82 l 236 0 l 165 0 q 83 27 110 0 q 56 110 56 54 l 56 276 l 150 276 z "},"ō":{"ha":472,"x_min":56,"x_max":417,"o":"m 322 196 l 322 549 q 315 584 322 576 q 279 592 307 592 l 232 592 l 232 674 l 307 674 q 390 647 363 674 q 417 564 417 619 l 417 196 l 322 196 m 322 125 l 322 265 l 417 265 l 417 110 q 390 27 417 54 q 307 0 363 0 l 222 0 l 222 82 l 279 82 q 315 90 307 82 q 322 125 322 99 m 150 549 l 150 194 l 56 194 l 56 564 q 83 647 56 619 q 165 674 110 674 l 240 674 l 240 592 l 193 592 q 158 584 167 592 q 150 549 150 576 m 150 276 l 150 125 q 158 90 150 99 q 193 82 167 82 l 236 82 l 236 0 l 165 0 q 83 27 110 0 q 56 110 56 54 l 56 276 l 150 276 m 71 764 l 71 844 l 399 844 l 399 764 l 71 764 z "},"ø":{"ha":486,"x_min":63,"x_max":424,"o":"m 424 564 l 424 110 q 397 27 424 54 q 314 0 369 0 l 172 0 q 90 27 117 0 q 63 110 63 54 l 63 564 q 90 647 63 619 q 172 674 117 674 l 314 674 q 397 647 369 674 q 424 564 424 619 m 332 118 l 332 556 q 324 592 332 583 q 288 600 315 600 l 199 600 q 163 592 171 600 q 154 556 154 583 l 154 118 q 163 82 154 90 q 199 74 171 74 l 288 74 q 324 82 315 74 q 332 118 332 90 m 357 701 l 424 701 l 129 -28 l 63 -28 l 357 701 z "},"õ":{"ha":472,"x_min":53,"x_max":417,"o":"m 322 196 l 322 549 q 315 584 322 576 q 279 592 307 592 l 232 592 l 232 674 l 307 674 q 390 647 363 674 q 417 564 417 619 l 417 196 l 322 196 m 322 125 l 322 265 l 417 265 l 417 110 q 390 27 417 54 q 307 0 363 0 l 222 0 l 222 82 l 279 82 q 315 90 307 82 q 322 125 322 99 m 150 549 l 150 194 l 56 194 l 56 564 q 83 647 56 619 q 165 674 110 674 l 240 674 l 240 592 l 193 592 q 158 584 167 592 q 150 549 150 576 m 150 276 l 150 125 q 158 90 150 99 q 193 82 167 82 l 236 82 l 236 0 l 165 0 q 83 27 110 0 q 56 110 56 54 l 56 276 l 150 276 m 294 742 q 242 754 265 742 q 199 778 218 767 q 163 790 181 790 q 139 757 139 790 l 139 742 l 53 742 l 53 761 q 74 838 53 810 q 153 867 96 867 l 161 867 q 213 855 190 867 q 253 831 235 843 q 288 818 271 818 q 308 824 303 818 q 314 853 314 831 l 314 867 l 400 867 l 400 847 q 380 771 400 800 q 301 742 360 742 l 294 742 z "},"p":{"ha":456,"x_min":63,"x_max":400,"o":"m 400 311 l 304 311 l 304 549 q 297 584 304 576 q 261 592 289 592 l 206 592 q 169 581 181 592 q 158 542 158 569 l 158 494 l 153 494 l 153 589 q 176 655 153 636 q 235 674 199 674 l 290 674 q 373 647 346 674 q 400 564 400 619 l 400 311 m 158 -196 l 63 -196 l 63 674 l 158 674 l 158 607 l 158 589 l 158 -196 m 304 364 l 400 364 l 400 110 q 373 27 400 54 q 290 0 346 0 l 235 0 q 176 19 199 0 q 153 85 153 38 l 153 163 l 158 164 l 158 132 q 169 93 158 104 q 206 82 181 82 l 261 82 q 297 90 289 82 q 304 125 304 99 l 304 364 z "},"q":{"ha":456,"x_min":56,"x_max":393,"o":"m 151 311 l 56 311 l 56 564 q 83 647 56 619 q 165 674 110 674 l 221 674 q 280 655 257 674 q 303 589 303 636 l 303 494 l 297 494 l 297 542 q 286 581 297 569 q 250 592 275 592 l 194 592 q 160 584 168 592 q 151 549 151 576 l 151 311 m 393 -196 l 297 -196 l 297 589 l 297 607 l 297 674 l 393 674 l 393 -196 m 56 364 l 151 364 l 151 125 q 160 90 151 99 q 194 82 168 82 l 250 82 q 286 93 275 82 q 297 132 297 104 l 297 164 l 303 163 l 303 85 q 280 19 303 38 q 221 0 257 0 l 165 0 q 83 27 110 0 q 56 110 56 54 l 56 364 z "},"r":{"ha":294,"x_min":63,"x_max":288,"o":"m 288 674 l 288 590 l 246 590 q 158 486 158 590 l 158 460 l 153 460 l 153 561 q 165 611 153 585 q 200 656 176 638 q 258 674 224 674 l 288 674 m 158 0 l 63 0 l 63 674 l 158 674 l 158 556 l 158 549 l 158 0 z "},"ŕ":{"ha":294,"x_min":63,"x_max":360,"o":"m 288 674 l 288 590 l 246 590 q 158 486 158 590 l 158 460 l 153 460 l 153 561 q 165 611 153 585 q 200 656 176 638 q 258 674 224 674 l 288 674 m 158 0 l 63 0 l 63 674 l 158 674 l 158 556 l 158 549 l 158 0 m 138 717 l 246 893 l 360 893 l 224 717 l 138 717 z "},"ř":{"ha":294,"x_min":-3,"x_max":354,"o":"m 288 674 l 288 590 l 246 590 q 158 486 158 590 l 158 460 l 153 460 l 153 561 q 165 611 153 585 q 200 656 176 638 q 258 674 224 674 l 288 674 m 158 0 l 63 0 l 63 674 l 158 674 l 158 556 l 158 549 l 158 0 m 115 717 l -3 893 l 103 893 l 175 776 l 249 893 l 354 893 l 236 717 l 115 717 z "},"ŗ":{"ha":294,"x_min":58,"x_max":288,"o":"m 288 674 l 288 590 l 246 590 q 158 486 158 590 l 158 460 l 153 460 l 153 561 q 165 611 153 585 q 200 656 176 638 q 258 674 224 674 l 288 674 m 158 0 l 63 0 l 63 674 l 158 674 l 158 556 l 158 549 l 158 0 m 58 -71 l 169 -71 l 169 -125 l 96 -293 l 58 -293 l 58 -71 z "},"s":{"ha":413,"x_min":49,"x_max":364,"o":"m 269 124 l 269 251 q 262 287 269 279 q 226 294 254 294 l 158 294 q 76 322 103 294 q 49 404 49 349 l 49 564 q 76 647 49 619 q 158 674 103 674 l 253 674 q 335 647 308 674 q 363 564 363 619 l 363 496 l 268 496 l 268 550 q 260 585 268 578 q 225 593 253 593 l 186 593 q 151 585 160 593 q 143 550 143 578 l 143 418 q 151 383 143 392 q 186 375 160 375 l 254 375 q 337 348 310 375 q 364 265 364 321 l 364 110 q 337 27 364 54 q 254 0 310 0 l 161 0 q 78 27 106 0 q 51 110 51 54 l 51 178 l 146 178 l 146 124 q 154 89 146 97 q 189 81 163 81 l 226 81 q 262 89 254 81 q 269 124 269 97 z "},"ś":{"ha":413,"x_min":49,"x_max":396,"o":"m 269 124 l 269 251 q 262 287 269 279 q 226 294 254 294 l 158 294 q 76 322 103 294 q 49 404 49 349 l 49 564 q 76 647 49 619 q 158 674 103 674 l 253 674 q 335 647 308 674 q 363 564 363 619 l 363 496 l 268 496 l 268 550 q 260 585 268 578 q 225 593 253 593 l 186 593 q 151 585 160 593 q 143 550 143 578 l 143 418 q 151 383 143 392 q 186 375 160 375 l 254 375 q 337 348 310 375 q 364 265 364 321 l 364 110 q 337 27 364 54 q 254 0 310 0 l 161 0 q 78 27 106 0 q 51 110 51 54 l 51 178 l 146 178 l 146 124 q 154 89 146 97 q 189 81 163 81 l 226 81 q 262 89 254 81 q 269 124 269 97 m 174 717 l 282 893 l 396 893 l 260 717 l 174 717 z "},"š":{"ha":413,"x_min":25,"x_max":382,"o":"m 269 124 l 269 251 q 262 287 269 279 q 226 294 254 294 l 158 294 q 76 322 103 294 q 49 404 49 349 l 49 564 q 76 647 49 619 q 158 674 103 674 l 253 674 q 335 647 308 674 q 363 564 363 619 l 363 496 l 268 496 l 268 550 q 260 585 268 578 q 225 593 253 593 l 186 593 q 151 585 160 593 q 143 550 143 578 l 143 418 q 151 383 143 392 q 186 375 160 375 l 254 375 q 337 348 310 375 q 364 265 364 321 l 364 110 q 337 27 364 54 q 254 0 310 0 l 161 0 q 78 27 106 0 q 51 110 51 54 l 51 178 l 146 178 l 146 124 q 154 89 146 97 q 189 81 163 81 l 226 81 q 262 89 254 81 q 269 124 269 97 m 143 717 l 25 893 l 131 893 l 203 776 l 276 893 l 382 893 l 264 717 l 143 717 z "},"ş":{"ha":413,"x_min":49,"x_max":364,"o":"m 269 124 l 269 251 q 262 287 269 279 q 226 294 254 294 l 158 294 q 76 322 103 294 q 49 404 49 349 l 49 564 q 76 647 49 619 q 158 674 103 674 l 253 674 q 335 647 308 674 q 363 564 363 619 l 363 496 l 268 496 l 268 550 q 260 585 268 578 q 225 593 253 593 l 186 593 q 151 585 160 593 q 143 550 143 578 l 143 418 q 151 383 143 392 q 186 375 160 375 l 254 375 q 337 348 310 375 q 364 265 364 321 l 364 110 q 337 27 364 54 q 254 0 310 0 l 161 0 q 78 27 106 0 q 51 110 51 54 l 51 178 l 146 178 l 146 124 q 154 89 146 97 q 189 81 163 81 l 226 81 q 262 89 254 81 q 269 124 269 97 m 150 -71 l 261 -71 l 261 -125 l 188 -293 l 150 -293 l 150 -71 z "},"ș":{"ha":413,"x_min":49,"x_max":364,"o":"m 269 124 l 269 251 q 262 287 269 279 q 226 294 254 294 l 158 294 q 76 322 103 294 q 49 404 49 349 l 49 564 q 76 647 49 619 q 158 674 103 674 l 253 674 q 335 647 308 674 q 363 564 363 619 l 363 496 l 268 496 l 268 550 q 260 585 268 578 q 225 593 253 593 l 186 593 q 151 585 160 593 q 143 550 143 578 l 143 418 q 151 383 143 392 q 186 375 160 375 l 254 375 q 337 348 310 375 q 364 265 364 321 l 364 110 q 337 27 364 54 q 254 0 310 0 l 161 0 q 78 27 106 0 q 51 110 51 54 l 51 178 l 146 178 l 146 124 q 154 89 146 97 q 189 81 163 81 l 226 81 q 262 89 254 81 q 269 124 269 97 m 174 -71 l 285 -71 l 285 -125 l 211 -293 l 174 -293 l 174 -71 z "},"t":{"ha":274,"x_min":7,"x_max":260,"o":"m 164 783 l 164 132 q 172 97 164 106 q 207 89 181 89 l 260 89 l 260 0 l 178 0 q 95 27 122 0 q 68 110 68 54 l 68 783 l 164 783 m 260 674 l 260 592 l 7 592 l 7 674 l 260 674 z "},"ť":{"ha":274,"x_min":7,"x_max":329,"o":"m 222 907 l 329 907 l 329 853 l 260 713 l 222 713 l 222 907 m 164 783 l 164 132 q 172 97 164 106 q 207 89 181 89 l 260 89 l 260 0 l 178 0 q 95 27 122 0 q 68 110 68 54 l 68 783 l 164 783 m 260 674 l 260 592 l 7 592 l 7 674 l 260 674 z "},"ţ":{"ha":386,"x_min":7,"x_max":379,"o":"m 146 864 l 240 864 l 240 0 l 146 0 l 146 864 m 379 864 l 379 782 l 7 782 l 7 864 l 379 864 m 139 -71 l 250 -71 l 250 -125 l 176 -293 l 139 -293 l 139 -71 z "},"ț":{"ha":274,"x_min":7,"x_max":260,"o":"m 164 783 l 164 132 q 172 97 164 106 q 207 89 181 89 l 260 89 l 260 0 l 178 0 q 95 27 122 0 q 68 110 68 54 l 68 783 l 164 783 m 260 674 l 260 592 l 7 592 l 7 674 l 260 674 m 108 -71 l 219 -71 l 219 -125 l 146 -293 l 108 -293 l 108 -71 z "},"þ":{"ha":456,"x_min":63,"x_max":400,"o":"m 400 311 l 304 311 l 304 549 q 297 584 304 576 q 261 592 289 592 l 206 592 q 169 581 181 592 q 158 542 158 569 l 158 494 l 153 494 l 153 589 q 176 655 153 636 q 235 674 199 674 l 290 674 q 373 647 346 674 q 400 564 400 619 l 400 311 m 158 -196 l 63 -196 l 63 929 l 158 929 l 158 607 l 158 589 l 158 -196 m 304 364 l 400 364 l 400 110 q 373 27 400 54 q 290 0 346 0 l 235 0 q 176 19 199 0 q 153 85 153 38 l 153 163 l 158 164 l 158 132 q 169 93 158 104 q 206 82 181 82 l 261 82 q 297 90 289 82 q 304 125 304 99 l 304 364 z "},"u":{"ha":463,"x_min":63,"x_max":400,"o":"m 63 674 l 158 674 l 158 125 q 167 90 158 99 q 201 82 175 82 l 257 82 q 293 93 282 82 q 304 132 304 104 l 304 179 l 310 179 l 310 85 q 287 19 310 38 q 228 0 264 0 l 172 0 q 90 27 117 0 q 63 110 63 54 l 63 674 m 304 674 l 400 674 l 400 0 l 304 0 l 304 72 l 304 82 l 304 674 z "},"ú":{"ha":463,"x_min":63,"x_max":413,"o":"m 63 674 l 158 674 l 158 125 q 167 90 158 99 q 201 82 175 82 l 257 82 q 293 93 282 82 q 304 132 304 104 l 304 179 l 310 179 l 310 85 q 287 19 310 38 q 228 0 264 0 l 172 0 q 90 27 117 0 q 63 110 63 54 l 63 674 m 304 674 l 400 674 l 400 0 l 304 0 l 304 72 l 304 82 l 304 674 m 190 717 l 299 893 l 413 893 l 276 717 l 190 717 z "},"û":{"ha":456,"x_min":46,"x_max":403,"o":"m 46 717 l 164 893 l 285 893 l 403 717 l 297 717 l 224 833 l 151 717 l 46 717 m 63 674 l 158 674 l 158 125 q 167 90 158 99 q 201 82 175 82 l 257 82 q 293 93 282 82 q 304 132 304 104 l 304 179 l 310 179 l 310 85 q 287 19 310 38 q 228 0 264 0 l 172 0 q 90 27 117 0 q 63 110 63 54 l 63 674 m 304 674 l 400 674 l 400 0 l 304 0 l 304 72 l 304 82 l 304 674 z "},"ü":{"ha":456,"x_min":40,"x_max":407,"o":"m 40 751 l 40 868 l 163 868 l 163 751 l 40 751 m 285 751 l 285 868 l 407 868 l 407 751 l 285 751 m 63 674 l 158 674 l 158 125 q 167 90 158 99 q 201 82 175 82 l 257 82 q 293 93 282 82 q 304 132 304 104 l 304 179 l 310 179 l 310 85 q 287 19 310 38 q 228 0 264 0 l 172 0 q 90 27 117 0 q 63 110 63 54 l 63 674 m 304 674 l 400 674 l 400 0 l 304 0 l 304 72 l 304 82 l 304 674 z "},"ù":{"ha":463,"x_min":56,"x_max":400,"o":"m 63 674 l 158 674 l 158 125 q 167 90 158 99 q 201 82 175 82 l 257 82 q 293 93 282 82 q 304 132 304 104 l 304 179 l 310 179 l 310 85 q 287 19 310 38 q 228 0 264 0 l 172 0 q 90 27 117 0 q 63 110 63 54 l 63 674 m 304 674 l 400 674 l 400 0 l 304 0 l 304 72 l 304 82 l 304 674 m 169 893 l 278 717 l 192 717 l 56 893 l 169 893 z "},"ű":{"ha":463,"x_min":63,"x_max":453,"o":"m 242 717 l 350 893 l 453 893 l 317 717 l 242 717 m 103 717 l 211 893 l 314 893 l 178 717 l 103 717 m 63 674 l 158 674 l 158 125 q 167 90 158 99 q 201 82 175 82 l 257 82 q 293 93 282 82 q 304 132 304 104 l 304 179 l 310 179 l 310 85 q 287 19 310 38 q 228 0 264 0 l 172 0 q 90 27 117 0 q 63 110 63 54 l 63 674 m 304 674 l 400 674 l 400 0 l 304 0 l 304 72 l 304 82 l 304 674 z "},"ū":{"ha":463,"x_min":63,"x_max":400,"o":"m 63 674 l 158 674 l 158 125 q 167 90 158 99 q 201 82 175 82 l 257 82 q 293 93 282 82 q 304 132 304 104 l 304 179 l 310 179 l 310 85 q 287 19 310 38 q 228 0 264 0 l 172 0 q 90 27 117 0 q 63 110 63 54 l 63 674 m 304 674 l 400 674 l 400 0 l 304 0 l 304 72 l 304 82 l 304 674 m 65 764 l 65 844 l 393 844 l 393 764 l 65 764 z "},"ų":{"ha":463,"x_min":63,"x_max":425,"o":"m 63 674 l 158 674 l 158 125 q 167 90 158 99 q 201 82 175 82 l 257 82 q 293 93 282 82 q 304 132 304 104 l 304 179 l 310 179 l 310 85 q 287 19 310 38 q 228 0 264 0 l 172 0 q 90 27 117 0 q 63 110 63 54 l 63 674 m 304 674 l 400 674 l 400 0 l 304 0 l 304 72 l 304 82 l 304 674 m 188 -144 q 215 -62 188 -89 q 297 -35 242 -35 l 400 -35 l 400 -108 l 317 -108 q 281 -115 290 -108 q 272 -150 272 -122 l 272 -178 q 281 -212 272 -204 q 317 -219 290 -219 l 425 -219 l 425 -294 l 297 -294 q 215 -267 242 -294 q 188 -185 188 -240 l 188 -144 m 400 -39 l 308 -39 l 308 14 l 400 14 l 400 -39 z "},"ů":{"ha":463,"x_min":63,"x_max":400,"o":"m 63 674 l 158 674 l 158 125 q 167 90 158 99 q 201 82 175 82 l 257 82 q 293 93 282 82 q 304 132 304 104 l 304 179 l 310 179 l 310 85 q 287 19 310 38 q 228 0 264 0 l 172 0 q 90 27 117 0 q 63 110 63 54 l 63 674 m 304 674 l 400 674 l 400 0 l 304 0 l 304 72 l 304 82 l 304 674 m 364 844 l 364 821 q 342 752 364 774 q 274 731 319 731 l 190 731 q 122 752 144 731 q 100 821 100 774 l 100 844 q 122 913 100 892 q 190 935 144 935 l 274 935 q 342 913 319 935 q 364 844 364 892 m 293 829 l 293 836 q 287 867 293 860 q 254 874 281 874 l 210 874 q 177 867 183 874 q 171 836 171 860 l 171 829 q 177 799 171 807 q 210 792 183 792 l 254 792 q 287 799 281 792 q 293 829 293 807 z "},"v":{"ha":388,"x_min":7,"x_max":381,"o":"m 103 674 l 193 67 l 285 674 l 381 674 l 269 0 l 118 0 l 7 674 l 103 674 z "},"w":{"ha":704,"x_min":7,"x_max":697,"o":"m 606 674 l 697 674 l 578 0 l 432 0 l 351 540 l 272 0 l 126 0 l 7 674 l 99 674 l 199 67 l 286 674 l 418 674 l 504 67 l 606 674 z "},"x":{"ha":436,"x_min":7,"x_max":429,"o":"m 261 344 l 429 0 l 326 0 l 218 243 l 110 0 l 7 0 l 175 344 l 21 674 l 124 674 l 219 444 l 313 674 l 415 674 l 261 344 z "},"y":{"ha":429,"x_min":14,"x_max":415,"o":"m 14 674 l 110 674 l 218 67 l 319 674 l 415 674 l 281 -86 q 238 -168 271 -140 q 149 -196 204 -196 l 74 -196 l 74 -114 l 119 -114 q 165 -106 147 -114 q 189 -71 183 -97 l 206 0 l 143 0 l 14 674 z "},"ý":{"ha":429,"x_min":14,"x_max":415,"o":"m 14 674 l 110 674 l 218 67 l 319 674 l 415 674 l 281 -86 q 238 -168 271 -140 q 149 -196 204 -196 l 74 -196 l 74 -114 l 119 -114 q 165 -106 147 -114 q 189 -71 183 -97 l 206 0 l 143 0 l 14 674 m 178 717 l 286 893 l 400 893 l 264 717 l 178 717 z "},"ÿ":{"ha":429,"x_min":14,"x_max":415,"o":"m 29 751 l 29 868 l 151 868 l 151 751 l 29 751 m 274 751 l 274 868 l 396 868 l 396 751 l 274 751 m 14 674 l 110 674 l 218 67 l 319 674 l 415 674 l 281 -86 q 238 -168 271 -140 q 149 -196 204 -196 l 74 -196 l 74 -114 l 119 -114 q 165 -106 147 -114 q 189 -71 183 -97 l 206 0 l 143 0 l 14 674 z "},"z":{"ha":369,"x_min":21,"x_max":349,"o":"m 349 674 l 349 592 l 35 592 l 35 674 l 349 674 m 253 592 l 349 592 l 117 82 l 21 82 l 253 592 m 349 82 l 349 0 l 21 0 l 21 82 l 349 82 z "},"ź":{"ha":369,"x_min":21,"x_max":383,"o":"m 349 674 l 349 592 l 35 592 l 35 674 l 349 674 m 253 592 l 349 592 l 117 82 l 21 82 l 253 592 m 349 82 l 349 0 l 21 0 l 21 82 l 349 82 m 161 717 l 269 893 l 383 893 l 247 717 l 161 717 z "},"ž":{"ha":369,"x_min":11,"x_max":368,"o":"m 349 674 l 349 592 l 35 592 l 35 674 l 349 674 m 253 592 l 349 592 l 117 82 l 21 82 l 253 592 m 349 82 l 349 0 l 21 0 l 21 82 l 349 82 m 129 717 l 11 893 l 117 893 l 189 776 l 263 893 l 368 893 l 250 717 l 129 717 z "},"ż":{"ha":369,"x_min":21,"x_max":349,"o":"m 349 674 l 349 592 l 35 592 l 35 674 l 349 674 m 253 592 l 349 592 l 117 82 l 21 82 l 253 592 m 349 82 l 349 0 l 21 0 l 21 82 l 349 82 m 132 744 l 132 864 l 260 864 l 260 744 l 132 744 z "},"ﬁ":{"ha":474,"x_min":7,"x_max":411,"o":"m 411 0 l 315 0 l 315 674 l 411 674 l 411 0 m 169 797 l 169 0 l 74 0 l 74 819 q 101 902 74 875 q 183 929 128 929 l 242 929 l 242 840 l 213 840 q 178 833 186 840 q 169 797 169 825 m 411 674 l 411 592 l 7 592 l 7 674 l 411 674 m 315 840 l 315 929 l 411 929 l 411 840 l 315 840 z "},"ﬂ":{"ha":474,"x_min":7,"x_max":411,"o":"m 169 797 l 169 0 l 74 0 l 74 819 q 101 902 74 875 q 183 929 128 929 l 242 929 l 242 840 l 213 840 q 178 833 186 840 q 169 797 169 825 m 411 674 l 411 592 l 7 592 l 7 674 l 411 674 m 411 0 l 315 0 l 315 929 l 411 929 l 411 0 z "},"ª":{"ha":328,"x_min":35,"x_max":286,"o":"m 101 608 l 35 608 l 35 786 q 54 845 35 826 q 113 864 74 864 l 164 864 q 206 850 190 864 q 222 803 222 836 l 222 742 l 218 742 l 218 769 q 185 806 218 806 l 133 806 q 108 800 114 806 q 101 775 101 794 l 101 608 m 286 389 l 218 389 l 218 801 l 218 808 l 218 864 l 286 864 l 286 389 m 35 646 l 101 646 l 101 479 q 108 455 101 461 q 133 449 114 449 l 185 449 q 210 456 203 449 q 218 483 218 464 l 218 508 l 222 508 l 222 450 q 206 403 222 417 q 164 389 190 389 l 113 389 q 54 408 74 389 q 35 467 35 428 l 35 646 z "},"º":{"ha":314,"x_min":36,"x_max":278,"o":"m 211 526 l 211 775 q 205 800 211 794 q 179 806 199 806 l 160 806 l 160 864 l 200 864 q 258 845 239 864 q 278 786 278 826 l 278 526 l 211 526 m 211 478 l 211 576 l 278 576 l 278 467 q 258 408 278 428 q 200 389 239 389 l 153 389 l 153 447 l 179 447 q 205 453 199 447 q 211 478 211 460 m 103 775 l 103 526 l 36 526 l 36 786 q 56 845 36 826 q 114 864 75 864 l 179 864 l 179 806 l 133 806 q 108 800 114 806 q 103 775 103 794 m 103 583 l 103 478 q 108 453 103 460 q 133 447 114 447 l 176 447 l 176 389 l 114 389 q 56 408 75 389 q 36 467 36 428 l 36 583 l 103 583 z "},"अ":{"ha":694,"x_min":42,"x_max":722,"o":"m 524 864 l 618 864 l 618 0 l 524 0 l 524 864 m 263 482 l 589 482 l 589 401 l 319 401 l 263 482 m 554 864 l 722 864 l 722 782 l 554 782 l 554 864 m 267 864 q 349 837 322 864 q 376 754 376 810 l 376 550 q 363 503 376 519 q 325 485 349 488 l 325 482 q 363 465 349 481 q 376 418 376 449 l 376 218 q 349 135 376 163 q 267 108 322 108 l 151 108 q 69 135 96 108 q 42 218 42 163 l 42 351 l 138 351 l 138 233 q 146 199 138 207 q 181 190 154 190 l 238 190 q 273 199 265 190 q 281 233 281 207 l 281 394 q 271 432 281 422 q 233 442 261 442 l 139 442 l 139 524 l 233 524 q 271 534 261 524 q 281 571 281 544 l 281 739 q 273 774 281 767 q 238 782 265 782 l 181 782 q 146 774 154 782 q 138 739 138 767 l 138 621 l 42 621 l 42 754 q 69 837 42 810 q 151 864 96 864 l 267 864 z "},"आ":{"ha":944,"x_min":42,"x_max":971,"o":"m 524 864 l 618 864 l 618 0 l 524 0 l 524 864 m 263 482 l 589 482 l 589 401 l 319 401 l 263 482 m 554 864 l 722 864 l 722 782 l 554 782 l 554 864 m 267 864 q 349 837 322 864 q 376 754 376 810 l 376 550 q 363 503 376 519 q 325 485 349 488 l 325 482 q 363 465 349 481 q 376 418 376 449 l 376 218 q 349 135 376 163 q 267 108 322 108 l 151 108 q 69 135 96 108 q 42 218 42 163 l 42 351 l 138 351 l 138 233 q 146 199 138 207 q 181 190 154 190 l 238 190 q 273 199 265 190 q 281 233 281 207 l 281 394 q 271 432 281 422 q 233 442 261 442 l 139 442 l 139 524 l 233 524 q 271 534 261 524 q 281 571 281 544 l 281 739 q 273 774 281 767 q 238 782 265 782 l 181 782 q 146 774 154 782 q 138 739 138 767 l 138 621 l 42 621 l 42 754 q 69 837 42 810 q 151 864 96 864 l 267 864 m 772 808 l 867 808 l 867 0 l 772 0 l 772 808 m 668 864 l 971 864 l 971 782 l 668 782 l 668 864 z "},"ा":{"ha":250,"x_min":-26,"x_max":276,"o":"m 78 808 l 172 808 l 172 0 l 78 0 l 78 808 m -26 864 l 276 864 l 276 782 l -26 782 l -26 864 z "},"ऐ":{"ha":524,"x_min":-28,"x_max":551,"o":"m 76 803 l 172 803 l 172 125 q 181 90 172 99 q 215 82 189 82 l 318 82 q 353 90 346 82 q 361 125 361 99 l 361 272 l 457 272 l 457 110 q 430 27 457 54 q 347 0 403 0 l 186 0 q 103 27 131 0 q 76 110 76 54 l 76 803 m 365 803 l 461 803 l 461 504 q 434 422 461 449 q 351 394 407 394 l 261 394 l 261 476 l 322 476 q 358 485 350 476 q 365 519 365 493 l 365 803 m -28 864 l 551 864 l 551 782 l -28 782 l -28 864 m 261 1129 l 460 846 l 364 846 q 310 906 342 867 q 240 996 278 944 l 146 1129 l 261 1129 z "},"औ":{"ha":944,"x_min":42,"x_max":971,"o":"m 465 1129 l 592 1129 l 650 1065 q 746 953 711 999 q 807 864 781 908 l 813 864 q 772 951 790 904 q 728 1057 754 997 l 697 1129 l 800 1129 l 865 850 l 774 850 q 761 859 774 850 q 724 889 749 868 q 660 946 699 910 l 465 1129 m 524 864 l 618 864 l 618 0 l 524 0 l 524 864 m 263 482 l 589 482 l 589 401 l 319 401 l 263 482 m 554 864 l 722 864 l 722 782 l 554 782 l 554 864 m 267 864 q 349 837 322 864 q 376 754 376 810 l 376 550 q 363 503 376 519 q 325 485 349 488 l 325 482 q 363 465 349 481 q 376 418 376 449 l 376 218 q 349 135 376 163 q 267 108 322 108 l 151 108 q 69 135 96 108 q 42 218 42 163 l 42 351 l 138 351 l 138 233 q 146 199 138 207 q 181 190 154 190 l 238 190 q 273 199 265 190 q 281 233 281 207 l 281 394 q 271 432 281 422 q 233 442 261 442 l 139 442 l 139 524 l 233 524 q 271 534 261 524 q 281 571 281 544 l 281 739 q 273 774 281 767 q 238 782 265 782 l 181 782 q 146 774 154 782 q 138 739 138 767 l 138 621 l 42 621 l 42 754 q 69 837 42 810 q 151 864 96 864 l 267 864 m 772 808 l 867 808 l 867 0 l 772 0 l 772 808 m 668 864 l 971 864 l 971 782 l 668 782 l 668 864 z "},"ौ":{"ha":250,"x_min":-229,"x_max":276,"o":"m 78 808 l 172 808 l 172 0 l 78 0 l 78 808 m -26 864 l 276 864 l 276 782 l -26 782 l -26 864 m -229 1129 l -103 1129 l -44 1065 q 51 953 17 999 q 113 864 86 908 l 118 864 q 78 951 96 904 q 33 1057 60 997 l 3 1129 l 106 1129 l 171 850 l 79 850 q 67 859 79 850 q 29 889 54 868 q -35 946 4 910 l -229 1129 z "},"ए":{"ha":524,"x_min":-28,"x_max":551,"o":"m 76 803 l 172 803 l 172 125 q 181 90 172 99 q 215 82 189 82 l 318 82 q 353 90 346 82 q 361 125 361 99 l 361 272 l 457 272 l 457 110 q 430 27 457 54 q 347 0 403 0 l 186 0 q 103 27 131 0 q 76 110 76 54 l 76 803 m 365 803 l 461 803 l 461 504 q 434 422 461 449 q 351 394 407 394 l 261 394 l 261 476 l 322 476 q 358 485 350 476 q 365 519 365 493 l 365 803 m -28 864 l 551 864 l 551 782 l -28 782 l -28 864 z "},"इ":{"ha":472,"x_min":-28,"x_max":500,"o":"m -28 864 l 500 864 l 500 782 l -28 782 l -28 864 m 67 264 l 163 264 l 163 0 l 67 0 l 67 264 m 299 825 l 394 825 l 394 592 l 188 592 q 153 584 161 592 q 144 549 144 576 l 144 493 q 153 458 144 467 q 188 450 161 450 l 300 450 q 383 423 356 450 q 410 340 410 396 l 410 218 q 383 135 410 163 q 300 108 356 108 l 114 108 l 114 190 l 271 190 q 306 199 299 190 q 314 233 314 207 l 314 325 q 306 360 314 353 q 271 368 299 368 l 158 368 q 76 395 103 368 q 49 478 49 422 l 49 564 q 76 647 49 619 q 158 674 103 674 l 299 674 l 299 825 z "},"ि":{"ha":249,"x_min":-28,"x_max":647,"o":"m -28 864 l 276 864 l 276 782 l -28 782 l -28 864 m 76 824 l 172 824 l 172 0 l 76 0 l 76 824 m 538 1129 q 620 1102 593 1129 q 647 1019 647 1075 l 647 926 l 551 926 l 551 1004 q 544 1040 551 1032 q 508 1047 538 1047 l 215 1047 q 181 1040 189 1047 q 172 1004 172 1032 l 172 847 l 76 847 l 76 1019 q 103 1102 76 1075 q 186 1129 131 1129 l 538 1129 z "},"ई":{"ha":472,"x_min":-28,"x_max":500,"o":"m -28 864 l 500 864 l 500 782 l -28 782 l -28 864 m 67 264 l 163 264 l 163 0 l 67 0 l 67 264 m 299 825 l 394 825 l 394 592 l 188 592 q 153 584 161 592 q 144 549 144 576 l 144 493 q 153 458 144 467 q 188 450 161 450 l 300 450 q 383 423 356 450 q 410 340 410 396 l 410 218 q 383 135 410 163 q 300 108 356 108 l 114 108 l 114 190 l 271 190 q 306 199 299 190 q 314 233 314 207 l 314 325 q 306 360 314 353 q 271 368 299 368 l 158 368 q 76 395 103 368 q 49 478 49 422 l 49 564 q 76 647 49 619 q 158 674 103 674 l 299 674 l 299 825 m 485 992 l 438 992 q 403 985 411 992 q 394 950 394 978 l 394 846 l 299 846 l 299 965 q 326 1047 299 1021 q 408 1074 353 1074 l 485 1074 l 485 992 z "},"ी":{"ha":249,"x_min":-172,"x_max":276,"o":"m 276 864 l 276 782 l -28 782 l -28 864 l 276 864 m 172 824 l 172 0 l 76 0 l 76 824 l 172 824 m 63 1129 q 145 1102 118 1129 q 172 1019 172 1075 l 172 847 l 76 847 l 76 1004 q 69 1040 76 1032 q 33 1047 61 1047 l -33 1047 q -69 1040 -62 1047 q -76 1004 -76 1032 l -76 926 l -172 926 l -172 1019 q -145 1102 -172 1075 q -62 1129 -118 1129 l 63 1129 z "},"ऌ":{"ha":678,"x_min":-28,"x_max":706,"o":"m -28 864 l 706 864 l 706 782 l -28 782 l -28 864 m 272 674 q 319 660 303 674 q 338 622 336 646 l 340 622 q 358 660 343 646 q 404 674 374 674 l 560 674 l 560 592 l 428 592 q 393 584 401 592 q 385 549 385 576 l 385 263 l 289 263 l 289 549 q 281 584 289 576 q 246 592 274 592 l 201 592 q 167 584 175 592 q 158 549 158 576 l 158 129 q 167 94 158 103 q 201 86 175 86 l 286 86 l 286 0 l 172 0 q 90 27 117 0 q 63 110 63 54 l 63 564 q 90 647 63 619 q 172 674 117 674 l 272 674 m 515 822 l 611 822 l 611 47 l 544 47 q 510 40 518 47 q 501 4 501 32 l 501 -46 q 510 -81 501 -72 q 544 -89 518 -89 l 668 -89 l 668 -171 l 515 -171 q 433 -144 460 -171 q 406 -61 406 -117 l 406 19 q 432 102 406 75 q 511 129 458 129 l 515 129 l 515 822 z "},"ॡ":{"ha":678,"x_min":-28,"x_max":706,"o":"m -28 864 l 706 864 l 706 782 l -28 782 l -28 864 m 272 674 q 319 660 303 674 q 338 622 336 646 l 340 622 q 358 660 343 646 q 404 674 374 674 l 560 674 l 560 592 l 428 592 q 393 584 401 592 q 385 549 385 576 l 385 358 l 289 358 l 289 549 q 281 584 289 576 q 246 592 274 592 l 201 592 q 167 584 175 592 q 158 549 158 576 l 158 129 q 167 94 158 103 q 201 86 175 86 l 286 86 l 286 0 l 172 0 q 90 27 117 0 q 63 110 63 54 l 63 564 q 90 647 63 619 q 172 674 117 674 l 272 674 m 406 238 q 433 320 406 293 q 515 347 460 347 l 611 347 l 611 265 l 544 265 q 510 258 518 265 q 501 222 501 250 l 501 172 q 510 138 501 146 q 544 129 518 129 l 611 129 l 611 47 l 544 47 q 510 40 518 47 q 501 4 501 32 l 501 -46 q 510 -81 501 -72 q 544 -89 518 -89 l 668 -89 l 668 -171 l 515 -171 q 433 -144 460 -171 q 406 -61 406 -117 l 406 21 q 419 67 406 51 q 457 85 433 83 l 457 88 q 419 106 433 90 q 406 153 406 122 l 406 238 m 515 808 l 611 808 l 611 322 l 515 322 l 515 808 z "},"ओ":{"ha":943,"x_min":42,"x_max":971,"o":"m 683 1129 l 882 846 l 786 846 q 732 906 764 867 q 663 996 700 944 l 568 1129 l 683 1129 m 524 864 l 618 864 l 618 0 l 524 0 l 524 864 m 263 482 l 589 482 l 589 401 l 319 401 l 263 482 m 554 864 l 722 864 l 722 782 l 554 782 l 554 864 m 267 864 q 349 837 322 864 q 376 754 376 810 l 376 550 q 363 503 376 519 q 325 485 349 488 l 325 482 q 363 465 349 481 q 376 418 376 449 l 376 218 q 349 135 376 163 q 267 108 322 108 l 151 108 q 69 135 96 108 q 42 218 42 163 l 42 351 l 138 351 l 138 233 q 146 199 138 207 q 181 190 154 190 l 238 190 q 273 199 265 190 q 281 233 281 207 l 281 394 q 271 432 281 422 q 233 442 261 442 l 139 442 l 139 524 l 233 524 q 271 534 261 524 q 281 571 281 544 l 281 739 q 273 774 281 767 q 238 782 265 782 l 181 782 q 146 774 154 782 q 138 739 138 767 l 138 621 l 42 621 l 42 754 q 69 837 42 810 q 151 864 96 864 l 267 864 m 772 808 l 867 808 l 867 0 l 772 0 l 772 808 m 668 864 l 971 864 l 971 782 l 668 782 l 668 864 z "},"ॉ":{"ha":250,"x_min":-54,"x_max":304,"o":"m 78 808 l 172 808 l 172 0 l 78 0 l 78 808 m -26 864 l 276 864 l 276 782 l -26 782 l -26 864 m -54 1099 l 35 1099 l 35 1043 q 43 1008 35 1017 q 78 1000 51 1000 l 172 1000 q 208 1008 200 1000 q 215 1043 215 1017 l 215 1099 l 304 1099 l 304 1035 q 277 952 304 979 q 194 925 250 925 l 56 925 q -27 952 0 925 q -54 1035 -54 979 l -54 1099 z "},"ो":{"ha":250,"x_min":-143,"x_max":276,"o":"m 78 808 l 172 808 l 172 0 l 78 0 l 78 808 m -26 864 l 276 864 l 276 782 l -26 782 l -26 864 m -28 1129 l 171 846 l 75 846 q 21 906 53 867 q -49 996 -11 944 l -143 1129 l -28 1129 z "},"ऋ":{"ha":865,"x_min":-28,"x_max":886,"o":"m 440 833 l 440 0 l 346 0 l 346 833 l 440 833 m -28 864 l 886 864 l 886 782 l -28 782 l -28 864 m 58 674 q 140 665 110 674 q 190 637 171 657 q 228 579 210 617 l 351 333 l 113 0 l 6 0 l 285 390 l 276 283 l 164 511 q 124 569 144 551 q 58 588 103 588 l 7 588 l 7 674 l 58 674 m 722 547 q 716 582 722 572 q 682 592 710 592 l 671 592 q 638 582 644 592 q 631 547 631 572 l 631 410 q 638 375 631 385 q 671 365 644 365 l 682 365 q 716 375 710 365 q 722 410 722 385 l 722 547 m 829 0 l 644 0 q 574 26 600 0 q 549 96 549 51 l 549 132 q 574 202 549 176 q 644 228 600 228 l 668 228 l 611 282 l 299 282 l 299 365 l 614 365 l 581 349 q 542 381 550 356 q 535 449 535 406 l 535 565 q 560 644 535 615 q 644 674 586 674 l 707 674 q 791 644 765 674 q 817 565 817 615 l 817 390 q 791 311 817 340 q 707 282 765 282 l 706 282 l 765 228 l 765 149 l 671 149 q 649 142 654 149 q 644 119 644 136 l 644 107 q 649 84 644 90 q 671 78 654 78 l 829 78 l 829 0 z "},"ॠ":{"ha":858,"x_min":-28,"x_max":886,"o":"m 440 833 l 440 0 l 346 0 l 346 833 l 440 833 m -28 864 l 886 864 l 886 782 l -28 782 l -28 864 m 58 674 q 140 665 110 674 q 190 637 171 657 q 228 579 210 617 l 351 333 l 113 0 l 6 0 l 285 390 l 276 283 l 164 511 q 124 569 144 551 q 58 588 103 588 l 7 588 l 7 674 l 58 674 m 722 547 q 716 582 722 572 q 682 592 710 592 l 671 592 q 638 582 644 592 q 631 547 631 572 l 631 410 q 638 375 631 385 q 671 365 644 365 l 682 365 q 716 375 710 365 q 722 410 722 385 l 722 547 m 707 674 q 791 644 765 674 q 817 565 817 615 l 817 390 q 791 311 817 340 q 707 282 765 282 l 668 282 q 639 274 647 281 q 631 239 631 267 l 631 189 q 639 154 631 163 q 674 146 647 146 l 733 146 l 733 64 l 674 64 q 639 56 647 64 q 631 21 631 49 l 631 -29 q 639 -64 631 -56 q 674 -72 647 -72 l 790 -72 l 790 -154 l 644 -154 q 562 -127 589 -154 q 535 -44 535 -100 l 535 38 q 549 84 535 68 q 586 101 563 100 l 586 104 q 549 123 563 107 q 535 169 535 139 l 535 239 q 551 281 535 269 q 597 286 568 292 l 617 282 l 299 282 l 299 365 l 614 365 l 581 349 q 542 381 550 356 q 535 449 535 406 l 535 565 q 560 644 535 615 q 644 674 586 674 l 707 674 z "},"उ":{"ha":450,"x_min":-28,"x_max":478,"o":"m -28 864 l 478 864 l 478 782 l -28 782 l -28 864 m 374 564 q 360 517 374 533 q 322 499 346 501 l 322 496 q 360 478 346 494 q 374 432 374 463 l 374 110 q 347 27 374 54 q 264 0 319 0 l 144 0 q 62 27 89 0 q 35 110 35 54 l 35 286 l 131 286 l 131 125 q 139 90 131 99 q 174 82 147 82 l 235 82 q 270 90 263 82 q 278 125 278 99 l 278 410 q 270 445 278 438 q 235 453 263 453 l 117 453 l 117 535 l 235 535 q 270 543 263 535 q 278 578 278 551 l 278 738 q 269 774 278 767 q 214 782 260 782 l 325 793 q 361 783 349 793 q 374 744 374 774 l 374 564 z "},"ऑ":{"ha":944,"x_min":42,"x_max":999,"o":"m 910 1043 l 910 1043 l 910 1099 l 999 1099 l 999 1035 q 972 952 999 979 q 889 925 944 925 l 750 925 q 667 952 694 925 q 640 1035 640 979 l 640 1099 l 729 1099 l 729 1043 q 737 1008 729 1017 q 772 1000 744 1000 l 867 1000 q 902 1008 894 1000 q 910 1043 910 1017 m 524 864 l 524 864 l 971 864 l 971 782 l 867 782 l 867 0 l 772 0 l 772 782 l 618 782 l 618 0 l 524 0 l 524 401 l 376 401 l 376 218 q 349 135 376 163 q 267 108 322 108 l 151 108 q 69 135 96 108 q 42 218 42 163 l 42 351 l 138 351 l 138 233 q 145 198 138 206 q 181 190 153 190 l 238 190 q 272 198 264 190 q 281 233 281 206 l 281 394 q 271 432 281 422 q 233 442 261 442 l 139 442 l 139 524 l 233 524 q 271 534 261 524 q 281 571 281 544 l 281 739 q 272 774 281 767 q 238 782 264 782 l 181 782 q 145 774 153 782 q 138 739 138 767 l 138 621 l 42 621 l 42 754 q 69 837 42 810 q 151 864 96 864 l 267 864 q 349 837 322 864 q 376 754 376 810 l 376 550 q 325 482 376 490 l 524 482 l 524 864 z "},"ऊ":{"ha":633,"x_min":-28,"x_max":661,"o":"m 482 496 q 565 469 538 496 q 592 386 592 442 l 592 110 q 565 27 592 54 q 482 0 538 0 l 422 0 l 422 82 l 453 82 q 488 90 481 82 q 496 125 496 99 l 496 371 q 488 406 496 399 q 453 414 481 414 l 292 414 l 292 496 l 482 496 m 661 864 l 661 782 l -28 782 l -28 864 l 661 864 m 374 564 q 360 517 374 533 q 322 499 346 501 l 322 496 q 360 478 346 494 q 374 432 374 463 l 374 110 q 347 27 374 54 q 264 0 319 0 l 144 0 q 62 27 89 0 q 35 110 35 54 l 35 286 l 131 286 l 131 125 q 139 90 131 99 q 174 82 147 82 l 235 82 q 270 90 263 82 q 278 125 278 99 l 278 410 q 270 445 278 438 q 235 453 263 453 l 117 453 l 117 535 l 235 535 q 270 543 263 535 q 278 578 278 551 l 278 738 q 269 774 278 767 q 214 782 260 782 l 325 793 q 361 783 349 793 q 374 744 374 774 l 374 564 z "},"ब":{"ha":533,"x_min":-28,"x_max":561,"o":"m -28 864 l 561 864 l 561 782 l -28 782 l -28 864 m 306 674 l 306 592 l 200 592 l 306 397 q 338 334 324 365 q 361 283 353 303 q 369 264 369 264 q 367 285 369 264 q 363 348 365 306 q 361 451 361 390 l 361 825 l 457 825 l 457 0 l 361 0 l 361 136 l 368 153 l 236 400 q 182 510 199 471 q 165 549 165 549 l 165 233 q 174 199 165 207 q 208 190 182 190 l 314 190 q 351 201 342 190 q 361 238 361 211 l 376 174 q 363 122 376 136 q 317 108 349 108 l 179 108 q 97 135 124 108 q 69 218 69 163 l 69 564 q 97 647 69 619 q 179 674 124 674 l 306 674 z "},"भ":{"ha":735,"x_min":63,"x_max":763,"o":"m 563 829 l 658 829 l 658 0 l 563 0 l 563 829 m 563 864 l 763 864 l 763 782 l 563 782 l 563 864 m 296 864 q 378 837 351 864 q 406 754 406 810 l 406 218 q 378 135 406 163 q 296 108 351 108 l 172 108 q 90 135 117 108 q 63 218 63 163 l 63 447 q 90 530 63 503 q 172 557 117 557 l 592 557 l 592 475 l 201 475 q 167 467 175 475 q 158 432 158 460 l 158 233 q 167 199 158 207 q 201 190 175 190 l 267 190 q 302 199 294 190 q 310 233 310 207 l 310 739 q 302 774 310 767 q 267 782 294 782 l 213 782 q 178 774 186 782 q 169 739 169 767 l 169 661 l 74 661 l 74 754 q 101 837 74 810 q 183 864 128 864 l 296 864 z "},"च":{"ha":536,"x_min":-28,"x_max":564,"o":"m -28 864 l 564 864 l 564 782 l -28 782 l -28 864 m 364 825 l 460 825 l 460 0 l 364 0 l 364 825 m 7 674 l 290 674 l 290 592 l 7 592 l 7 674 m 94 556 q 115 598 94 593 q 172 600 136 603 l 275 592 q 220 591 239 592 q 196 581 201 590 q 190 549 190 572 l 190 233 q 199 199 190 207 q 233 190 207 190 l 317 190 q 354 201 344 190 q 364 238 364 211 l 379 174 q 365 122 379 136 q 319 108 351 108 l 204 108 q 122 135 149 108 q 94 218 94 163 l 94 556 z "},"छ":{"ha":696,"x_min":-28,"x_max":724,"o":"m -28 864 l 724 864 l 724 782 l -28 782 l -28 864 m 442 821 l 531 821 l 531 646 l 442 646 l 442 821 m 76 746 q 97 788 76 783 q 154 790 118 793 l 257 781 q 187 779 201 783 q 172 739 172 775 l 172 513 q 181 478 172 486 q 215 469 189 469 l 267 469 l 267 388 l 215 388 q 181 380 189 388 q 172 344 172 372 l 172 125 q 181 90 172 99 q 215 82 189 82 l 497 82 q 533 90 525 82 q 540 125 540 99 l 540 549 q 533 584 540 576 q 497 592 525 592 l 469 592 q 435 584 443 592 q 426 549 426 576 l 426 365 q 435 331 426 339 q 469 322 443 322 l 497 322 l 497 240 l 447 240 q 365 267 392 240 q 338 350 338 294 l 338 564 q 365 647 338 619 q 447 674 392 674 l 519 674 q 602 647 575 674 q 629 564 629 619 l 629 110 q 602 27 629 54 q 519 0 575 0 l 186 0 q 103 27 131 0 q 76 110 76 54 l 76 361 q 90 408 76 392 q 128 425 104 424 l 128 428 q 90 447 104 431 q 76 493 76 463 l 76 746 z "},"द":{"ha":482,"x_min":-28,"x_max":510,"o":"m -28 864 l 510 864 l 510 782 l -28 782 l -28 864 m 310 806 l 406 806 l 406 592 l 215 592 q 181 584 189 592 q 172 549 172 576 l 172 233 q 181 199 172 207 q 215 190 189 190 l 272 190 q 310 201 300 190 q 319 238 319 211 l 335 174 q 321 122 335 136 q 275 108 307 108 l 186 108 q 103 135 131 108 q 76 218 76 163 l 76 564 q 103 647 76 619 q 186 674 131 674 l 310 674 l 310 806 m 319 369 l 415 369 l 415 0 l 319 0 l 319 369 z "},"ड":{"ha":488,"x_min":-28,"x_max":515,"o":"m -28 864 l 515 864 l 515 782 l -28 782 l -28 864 m 294 825 l 390 825 l 390 592 l 222 592 q 188 584 196 592 q 179 549 179 576 l 179 451 q 188 417 179 425 q 222 408 196 408 l 294 408 q 377 381 350 408 q 404 299 404 354 l 404 110 q 377 27 404 54 q 294 0 350 0 l 176 0 q 94 27 121 0 q 67 110 67 54 l 67 229 l 163 229 l 163 125 q 171 90 163 99 q 206 82 179 82 l 265 82 q 301 90 293 82 q 308 125 308 99 l 308 283 q 301 319 308 311 q 265 326 293 326 l 193 326 q 110 353 138 326 q 83 436 83 381 l 83 564 q 110 647 83 619 q 193 674 138 674 l 294 674 l 294 825 z "},"ड़":{"ha":488,"x_min":-28,"x_max":515,"o":"m -28 864 l 515 864 l 515 782 l -28 782 l -28 864 m 294 825 l 390 825 l 390 592 l 222 592 q 188 584 196 592 q 179 549 179 576 l 179 451 q 188 417 179 425 q 222 408 196 408 l 294 408 q 377 381 350 408 q 404 299 404 354 l 404 110 q 377 27 404 54 q 294 0 350 0 l 176 0 q 94 27 121 0 q 67 110 67 54 l 67 229 l 163 229 l 163 125 q 171 90 163 99 q 206 82 179 82 l 265 82 q 301 90 293 82 q 308 125 308 99 l 308 283 q 301 319 308 311 q 265 326 293 326 l 193 326 q 110 353 138 326 q 83 436 83 381 l 83 564 q 110 647 83 619 q 193 674 138 674 l 294 674 l 294 825 m 179 -74 l 281 -74 l 281 -193 l 179 -193 l 179 -74 z "},"ढ":{"ha":524,"x_min":-28,"x_max":551,"o":"m -28 864 l 551 864 l 551 782 l -28 782 l -28 864 m 296 806 l 392 806 l 392 592 l 215 592 q 181 584 189 592 q 172 549 172 576 l 172 125 q 181 90 172 99 q 215 82 189 82 l 308 82 q 344 90 336 82 q 351 125 351 99 l 351 268 q 344 303 351 296 q 308 311 336 311 l 251 311 l 251 393 l 338 393 q 420 366 393 393 q 447 283 447 339 l 447 110 q 420 27 447 54 q 338 0 393 0 l 186 0 q 103 27 131 0 q 76 110 76 54 l 76 564 q 103 647 76 619 q 186 674 131 674 l 296 674 l 296 806 z "},"ध":{"ha":617,"x_min":100,"x_max":644,"o":"m 444 864 l 644 864 l 644 782 l 444 782 l 444 864 m 444 822 l 540 822 l 540 0 l 444 0 l 444 822 m 196 561 q 204 526 196 535 q 239 518 213 518 l 333 518 l 333 436 l 239 436 q 204 428 213 436 q 196 393 196 421 l 196 233 q 204 199 196 207 q 239 190 213 190 l 397 190 q 435 201 425 190 q 444 238 444 211 l 460 174 q 446 122 460 136 q 400 108 432 108 l 210 108 q 127 135 154 108 q 100 218 100 163 l 100 410 q 114 456 100 440 q 151 474 128 472 l 151 476 q 114 495 128 479 q 100 542 100 511 l 100 761 q 127 844 100 817 q 210 871 154 871 l 258 871 q 341 844 314 871 q 368 761 368 817 l 368 683 l 296 683 l 296 746 q 288 781 296 774 q 253 789 281 789 l 239 789 q 204 781 213 789 q 196 746 196 774 l 196 561 z "},"फ़":{"ha":708,"x_min":-28,"x_max":736,"o":"m 308 822 l 404 822 l 404 0 l 308 0 l 308 822 m 67 821 l 163 821 l 163 233 q 171 199 163 207 q 206 190 179 190 l 261 190 q 299 201 289 190 q 308 238 308 211 l 324 174 q 310 122 324 136 q 264 108 296 108 l 176 108 q 94 135 121 108 q 67 218 67 163 l 67 821 m 536 674 q 619 647 592 674 q 646 564 646 619 l 646 218 q 619 135 646 163 q 536 108 592 108 l 460 108 l 460 190 l 507 190 q 542 199 535 190 q 550 233 550 207 l 550 549 q 542 584 550 576 q 507 592 535 592 l 451 592 q 415 582 425 592 q 404 544 404 572 l 389 608 q 403 660 389 646 q 449 674 418 674 l 536 674 m -28 864 l 736 864 l 736 782 l -28 782 l -28 864 m 135 1 l 236 1 l 236 -118 l 135 -118 l 135 1 z "},"ग":{"ha":711,"x_min":-28,"x_max":739,"o":"m 539 832 l 635 832 l 635 0 l 539 0 l 539 832 m -28 864 l 739 864 l 739 782 l -28 782 l -28 864 m 299 825 l 394 825 l 394 218 q 367 135 394 163 q 285 108 340 108 l 158 108 q 76 135 103 108 q 49 218 49 163 l 49 482 q 76 565 49 538 q 158 592 103 592 l 319 592 l 319 510 l 188 510 q 153 502 161 510 q 144 467 144 494 l 144 233 q 153 199 144 207 q 188 190 161 190 l 256 190 q 291 199 283 190 q 299 233 299 207 l 299 825 z "},"घ":{"ha":578,"x_min":-28,"x_max":606,"o":"m 67 739 q 88 783 67 775 q 144 792 108 792 l 247 782 q 192 781 211 782 q 168 772 174 781 q 163 739 163 763 l 163 569 q 171 535 163 543 q 206 526 179 526 l 300 526 l 300 444 l 206 444 q 171 437 179 444 q 163 401 163 429 l 163 233 q 171 199 163 207 q 206 190 179 190 l 358 190 q 396 201 386 190 q 406 238 406 211 l 421 174 q 407 122 421 136 q 361 108 393 108 l 176 108 q 94 135 121 108 q 67 218 67 163 l 67 418 q 81 465 67 449 q 118 482 94 481 l 118 485 q 81 503 94 488 q 67 550 67 519 l 67 739 m -28 864 l 606 864 l 606 782 l -28 782 l -28 864 m 406 822 l 501 822 l 501 0 l 406 0 l 406 822 z "},"ग़":{"ha":711,"x_min":-28,"x_max":739,"o":"m 539 832 l 635 832 l 635 0 l 539 0 l 539 832 m -28 864 l 739 864 l 739 782 l -28 782 l -28 864 m 299 825 l 394 825 l 394 218 q 367 135 394 163 q 285 108 340 108 l 158 108 q 76 135 103 108 q 49 218 49 163 l 49 482 q 76 565 49 538 q 158 592 103 592 l 319 592 l 319 510 l 188 510 q 153 502 161 510 q 144 467 144 494 l 144 233 q 153 199 144 207 q 188 190 161 190 l 256 190 q 291 199 283 190 q 299 233 299 207 l 299 825 m 165 -1 l 267 -1 l 267 -121 l 165 -121 l 165 -1 z "},"ह":{"ha":504,"x_min":-28,"x_max":546,"o":"m -28 864 l 546 864 l 546 782 l -28 782 l -28 864 m 332 674 l 332 806 l 428 806 l 428 592 l 215 592 q 181 584 189 592 q 172 549 172 576 l 172 481 q 181 446 172 454 q 215 438 189 438 l 332 438 q 415 410 388 438 q 442 328 442 383 l 442 242 l 346 242 l 346 313 q 338 348 346 340 q 303 356 331 356 l 215 356 q 181 348 189 356 q 172 313 172 340 l 172 125 q 181 90 172 99 q 215 82 189 82 l 442 82 l 442 0 l 186 0 q 103 27 131 0 q 76 110 76 54 l 76 329 q 90 376 76 360 q 128 393 104 392 l 128 396 q 90 415 104 399 q 76 461 76 431 l 76 564 q 103 647 76 619 q 186 674 131 674 l 332 674 z "},"ज":{"ha":681,"x_min":-28,"x_max":708,"o":"m 508 822 l 604 822 l 604 0 l 508 0 l 508 822 m -28 864 l 708 864 l 708 782 l -28 782 l -28 864 m 63 674 l 158 674 l 158 233 q 167 199 158 207 q 201 190 175 190 l 249 190 q 284 199 276 190 q 292 233 292 207 l 292 674 l 561 674 l 561 592 l 388 592 l 388 218 q 360 135 388 163 q 278 108 333 108 l 172 108 q 90 135 117 108 q 63 218 63 163 l 63 674 z "},"झ":{"ha":739,"x_min":-28,"x_max":767,"o":"m 67 264 l 163 264 l 163 0 l 67 0 l 67 264 m -28 864 l 767 864 l 767 782 l -28 782 l -28 864 m 567 822 l 663 822 l 663 0 l 567 0 l 567 822 m 310 825 l 406 825 l 406 592 l 203 592 q 168 584 176 592 q 160 549 160 576 l 160 493 q 168 458 160 467 q 203 450 176 450 l 599 450 l 599 368 l 353 368 l 404 401 q 417 340 417 379 l 417 218 q 390 135 417 163 q 307 108 363 108 l 110 108 l 110 190 l 278 190 q 313 199 306 190 q 321 233 321 207 l 321 325 q 313 360 321 353 q 278 368 306 368 l 174 368 q 91 395 118 368 q 64 478 64 422 l 64 564 q 91 647 64 619 q 174 674 118 674 l 310 674 l 310 825 z "},"क":{"ha":704,"x_min":-28,"x_max":732,"o":"m 304 822 l 400 822 l 400 0 l 304 0 l 304 822 m 249 674 l 249 592 l 201 592 q 167 584 175 592 q 158 549 158 576 l 158 233 q 167 199 158 207 q 201 190 175 190 l 257 190 q 294 201 285 190 q 304 238 304 211 l 319 174 q 306 122 319 136 q 260 108 292 108 l 172 108 q 90 135 117 108 q 63 218 63 163 l 63 564 q 90 647 63 619 q 172 674 117 674 l 249 674 m 532 674 q 615 647 588 674 q 642 564 642 619 l 642 218 q 615 135 642 163 q 532 108 588 108 l 456 108 l 456 190 l 503 190 q 538 199 531 190 q 546 233 546 207 l 546 549 q 538 584 546 576 q 503 592 531 592 l 447 592 q 410 582 421 592 q 400 544 400 572 l 385 608 q 399 660 385 646 q 444 674 414 674 l 532 674 m -28 864 l 732 864 l 732 782 l -28 782 l -28 864 z "},"ख":{"ha":811,"x_min":-28,"x_max":839,"o":"m 644 835 l 735 835 l 735 0 l 644 0 l 644 835 m 603 654 l 603 572 l 544 572 q 510 565 518 572 q 501 529 501 557 l 501 290 q 510 256 501 264 q 544 247 518 247 l 588 247 q 632 259 619 247 q 644 301 644 271 l 654 231 q 640 179 654 193 q 593 165 625 165 l 521 165 q 438 192 465 165 q 411 275 411 219 l 411 544 q 438 627 411 600 q 521 654 465 654 l 603 654 m 67 654 l 163 654 l 163 129 q 171 94 163 103 q 206 86 179 86 l 501 86 l 501 0 l 176 0 q 94 27 121 0 q 67 110 67 54 l 67 654 m -28 864 l 839 864 l 839 782 l 301 782 l 301 792 q 338 783 325 792 q 350 746 350 775 l 350 451 q 323 369 350 396 q 240 342 296 342 l 114 342 l 114 424 l 211 424 q 247 432 239 424 q 254 467 254 440 l 254 739 q 247 774 254 767 q 211 782 239 782 l -28 782 l -28 864 z "},"ख़":{"ha":811,"x_min":-28,"x_max":839,"o":"m 644 835 l 735 835 l 735 0 l 644 0 l 644 835 m 603 654 l 603 572 l 544 572 q 510 565 518 572 q 501 529 501 557 l 501 290 q 510 256 501 264 q 544 247 518 247 l 588 247 q 632 259 619 247 q 644 301 644 271 l 654 231 q 640 179 654 193 q 593 165 625 165 l 521 165 q 438 192 465 165 q 411 275 411 219 l 411 544 q 438 627 411 600 q 521 654 465 654 l 603 654 m 67 654 l 163 654 l 163 129 q 171 94 163 103 q 206 86 179 86 l 501 86 l 501 0 l 176 0 q 94 27 121 0 q 67 110 67 54 l 67 654 m -28 864 l 839 864 l 839 782 l 301 782 l 301 792 q 338 783 325 792 q 350 746 350 775 l 350 451 q 323 369 350 396 q 240 342 296 342 l 114 342 l 114 424 l 211 424 q 247 432 239 424 q 254 467 254 440 l 254 739 q 247 774 254 767 q 211 782 239 782 l -28 782 l -28 864 m 175 -86 l 276 -86 l 276 -206 l 175 -206 l 175 -86 z "},"ल":{"ha":678,"x_min":-28,"x_max":706,"o":"m -28 864 l 706 864 l 706 782 l -28 782 l -28 864 m 272 674 q 319 660 303 674 q 338 622 336 646 l 340 622 q 358 660 343 646 q 404 674 374 674 l 560 674 l 560 592 l 428 592 q 393 584 401 592 q 385 549 385 576 l 385 263 l 289 263 l 289 549 q 281 584 289 576 q 246 592 274 592 l 201 592 q 167 584 175 592 q 158 549 158 576 l 158 129 q 167 94 158 103 q 201 86 175 86 l 286 86 l 286 0 l 172 0 q 90 27 117 0 q 63 110 63 54 l 63 564 q 90 647 63 619 q 172 674 117 674 l 272 674 m 611 0 l 515 0 l 515 822 l 611 822 l 611 0 z "},"ळ":{"ha":726,"x_min":-56,"x_max":782,"o":"m -56 864 l 782 864 l 782 782 l -56 782 l -56 864 m 449 822 l 544 822 l 544 639 l 449 639 l 449 822 m 568 674 q 651 647 624 674 q 678 564 678 619 l 678 218 q 651 135 678 163 q 568 108 624 108 l 431 108 q 367 160 371 108 l 364 160 q 299 108 360 108 l 158 108 q 76 135 103 108 q 49 218 49 163 l 49 564 q 76 647 49 619 q 158 674 103 674 l 299 674 q 364 622 360 674 l 367 622 q 431 674 371 674 l 568 674 m 582 549 q 574 584 582 576 q 539 592 567 592 l 454 592 q 419 584 428 592 q 411 549 411 576 l 411 233 q 419 199 411 207 q 454 190 428 190 l 539 190 q 574 199 567 190 q 582 233 582 207 l 582 549 m 315 549 q 308 584 315 576 q 272 592 300 592 l 188 592 q 153 584 161 592 q 144 549 144 576 l 144 233 q 153 199 144 207 q 188 190 161 190 l 272 190 q 308 199 300 190 q 315 233 315 207 l 315 549 m 168 39 l 269 39 l 269 -81 l 168 -81 l 168 39 z "},"ऴ":{"ha":726,"x_min":-56,"x_max":782,"o":"m -56 864 l 782 864 l 782 782 l -56 782 l -56 864 m 449 822 l 544 822 l 544 639 l 449 639 l 449 822 m 568 674 q 651 647 624 674 q 678 564 678 619 l 678 218 q 651 135 678 163 q 568 108 624 108 l 431 108 q 367 160 371 108 l 364 160 q 299 108 360 108 l 158 108 q 76 135 103 108 q 49 218 49 163 l 49 564 q 76 647 49 619 q 158 674 103 674 l 299 674 q 364 622 360 674 l 367 622 q 431 674 371 674 l 568 674 m 582 549 q 574 584 582 576 q 539 592 567 592 l 454 592 q 419 584 428 592 q 411 549 411 576 l 411 233 q 419 199 411 207 q 454 190 428 190 l 539 190 q 574 199 567 190 q 582 233 582 207 l 582 549 m 315 549 q 308 584 315 576 q 272 592 300 592 l 188 592 q 153 584 161 592 q 144 549 144 576 l 144 233 q 153 199 144 207 q 188 190 161 190 l 272 190 q 308 199 300 190 q 315 233 315 207 l 315 549 m 168 39 l 269 39 l 269 -81 l 168 -81 l 168 39 z "},"म":{"ha":721,"x_min":-28,"x_max":749,"o":"m 296 797 l 392 797 l 392 260 q 365 177 392 204 q 282 150 338 150 l 158 150 q 76 177 103 150 q 49 260 49 204 l 49 490 q 76 573 49 546 q 158 600 103 600 l 578 600 l 578 518 l 188 518 q 153 510 161 518 q 144 475 144 503 l 144 275 q 153 240 144 249 q 188 232 161 232 l 253 232 q 288 240 281 232 q 296 275 296 249 l 296 797 m 549 829 l 644 829 l 644 0 l 549 0 l 549 829 m -28 864 l 749 864 l 749 782 l -28 782 l -28 864 z "},"न":{"ha":661,"x_min":-28,"x_max":689,"o":"m 489 829 l 585 829 l 585 0 l 489 0 l 489 829 m -28 864 l 689 864 l 689 782 l -28 782 l -28 864 m 367 218 q 340 135 367 163 q 257 108 313 108 l 158 108 q 76 135 103 108 q 49 218 49 163 l 49 564 q 76 647 49 619 q 158 674 103 674 l 518 674 l 518 592 l 188 592 q 153 584 161 592 q 144 549 144 576 l 144 233 q 153 199 144 207 q 188 190 161 190 l 228 190 q 263 199 256 190 q 271 233 271 207 l 271 617 l 367 617 l 367 218 z "},"ङ":{"ha":488,"x_min":-28,"x_max":515,"o":"m -28 864 l 515 864 l 515 782 l -28 782 l -28 864 m 294 825 l 390 825 l 390 592 l 222 592 q 188 584 196 592 q 179 549 179 576 l 179 451 q 188 417 179 425 q 222 408 196 408 l 294 408 q 377 381 350 408 q 404 299 404 354 l 404 110 q 377 27 404 54 q 294 0 350 0 l 176 0 q 94 27 121 0 q 67 110 67 54 l 67 229 l 163 229 l 163 125 q 171 90 163 99 q 206 82 179 82 l 265 82 q 301 90 293 82 q 308 125 308 99 l 308 283 q 301 319 308 311 q 265 326 293 326 l 193 326 q 110 353 138 326 q 83 436 83 381 l 83 564 q 110 647 83 619 q 193 674 138 674 l 294 674 l 294 825 m 379 547 l 481 547 l 481 428 l 379 428 l 379 547 z "},"ण":{"ha":681,"x_min":-28,"x_max":708,"o":"m 508 822 l 604 822 l 604 0 l 508 0 l 508 822 m -28 864 l 708 864 l 708 782 l -28 782 l -28 864 m 63 813 l 158 813 l 158 233 q 167 199 158 207 q 201 190 175 190 l 249 190 q 284 199 276 190 q 292 233 292 207 l 292 813 l 388 813 l 388 218 q 360 135 388 163 q 278 108 333 108 l 172 108 q 90 135 117 108 q 63 218 63 163 l 63 813 z "},"ञ":{"ha":672,"x_min":-28,"x_max":700,"o":"m 500 829 l 596 829 l 596 0 l 500 0 l 500 829 m -28 864 l 700 864 l 700 782 l -28 782 l -28 864 m 42 356 l 138 356 l 138 233 q 146 199 138 207 q 181 190 154 190 l 221 190 q 256 199 249 190 q 264 233 264 207 l 264 549 q 256 584 264 576 q 221 592 249 592 l 101 592 l 101 674 l 250 674 q 333 647 306 674 q 360 564 360 619 l 360 218 q 333 135 360 163 q 250 108 306 108 l 151 108 q 69 135 96 108 q 42 218 42 163 l 42 356 m 321 381 l 321 463 l 524 463 l 524 381 l 321 381 z "},"प":{"ha":490,"x_min":-28,"x_max":518,"o":"m -28 864 l 518 864 l 518 782 l -28 782 l -28 864 m 318 825 l 414 825 l 414 0 l 318 0 l 318 825 m 76 821 l 172 821 l 172 233 q 181 199 172 207 q 215 190 189 190 l 271 190 q 308 201 299 190 q 318 238 318 211 l 333 174 q 319 122 333 136 q 274 108 306 108 l 186 108 q 103 135 131 108 q 76 218 76 163 l 76 821 z "},"फ":{"ha":708,"x_min":-28,"x_max":736,"o":"m 308 822 l 404 822 l 404 0 l 308 0 l 308 822 m 67 821 l 163 821 l 163 233 q 171 199 163 207 q 206 190 179 190 l 261 190 q 299 201 289 190 q 308 238 308 211 l 324 174 q 310 122 324 136 q 264 108 296 108 l 176 108 q 94 135 121 108 q 67 218 67 163 l 67 821 m 536 674 q 619 647 592 674 q 646 564 646 619 l 646 218 q 619 135 646 163 q 536 108 592 108 l 460 108 l 460 190 l 507 190 q 542 199 535 190 q 550 233 550 207 l 550 549 q 542 584 550 576 q 507 592 535 592 l 451 592 q 415 582 425 592 q 404 544 404 572 l 389 608 q 403 660 389 646 q 449 674 418 674 l 536 674 m -28 864 l 736 864 l 736 782 l -28 782 l -28 864 z "},"क़":{"ha":704,"x_min":-28,"x_max":732,"o":"m 304 822 l 400 822 l 400 0 l 304 0 l 304 822 m 249 674 l 249 592 l 201 592 q 167 584 175 592 q 158 549 158 576 l 158 233 q 167 199 158 207 q 201 190 175 190 l 257 190 q 294 201 285 190 q 304 238 304 211 l 319 174 q 306 122 319 136 q 260 108 292 108 l 172 108 q 90 135 117 108 q 63 218 63 163 l 63 564 q 90 647 63 619 q 172 674 117 674 l 249 674 m 532 674 q 615 647 588 674 q 642 564 642 619 l 642 218 q 615 135 642 163 q 532 108 588 108 l 456 108 l 456 190 l 503 190 q 538 199 531 190 q 546 233 546 207 l 546 549 q 538 584 546 576 q 503 592 531 592 l 447 592 q 410 582 421 592 q 400 544 400 572 l 385 608 q 399 660 385 646 q 444 674 414 674 l 532 674 m -28 864 l 732 864 l 732 782 l -28 782 l -28 864 m 72 42 l 174 42 l 174 -78 l 72 -78 l 72 42 z "},"र":{"ha":460,"x_min":-28,"x_max":488,"o":"m 63 619 l 158 619 l 158 125 q 167 90 158 99 q 201 82 175 82 l 263 82 q 298 90 290 82 q 306 125 306 99 l 306 293 l 401 293 l 401 110 q 374 27 401 54 q 292 0 347 0 l 172 0 q 90 27 117 0 q 63 110 63 54 l 63 619 m -28 864 l 488 864 l 488 782 l 356 782 l 356 792 q 392 783 379 792 q 404 746 404 775 l 404 506 q 377 423 404 450 q 294 396 350 396 l 128 396 l 128 478 l 265 478 q 301 486 293 478 q 308 521 308 494 l 308 739 q 301 774 308 767 q 265 782 293 782 l -28 782 l -28 864 z "},"ढ़":{"ha":524,"x_min":-28,"x_max":551,"o":"m -28 864 l 551 864 l 551 782 l -28 782 l -28 864 m 296 806 l 392 806 l 392 592 l 215 592 q 181 584 189 592 q 172 549 172 576 l 172 125 q 181 90 172 99 q 215 82 189 82 l 308 82 q 344 90 336 82 q 351 125 351 99 l 351 268 q 344 303 351 296 q 308 311 336 311 l 251 311 l 251 393 l 338 393 q 420 366 393 393 q 447 283 447 339 l 447 110 q 420 27 447 54 q 338 0 393 0 l 186 0 q 103 27 131 0 q 76 110 76 54 l 76 564 q 103 647 76 619 q 186 674 131 674 l 296 674 l 296 806 m 214 -74 l 315 -74 l 315 -193 l 214 -193 l 214 -74 z "},"ऱ":{"ha":460,"x_min":-28,"x_max":488,"o":"m 63 619 l 158 619 l 158 125 q 167 90 158 99 q 201 82 175 82 l 263 82 q 298 90 290 82 q 306 125 306 99 l 306 293 l 401 293 l 401 110 q 374 27 401 54 q 292 0 347 0 l 172 0 q 90 27 117 0 q 63 110 63 54 l 63 619 m -28 864 l 488 864 l 488 782 l 356 782 l 356 792 q 392 783 379 792 q 404 746 404 775 l 404 506 q 377 423 404 450 q 294 396 350 396 l 128 396 l 128 478 l 265 478 q 301 486 293 478 q 308 521 308 494 l 308 739 q 301 774 308 767 q 265 782 293 782 l -28 782 l -28 864 m 169 -99 l 271 -99 l 271 -218 l 169 -218 l 169 -99 z "},"स":{"ha":706,"x_min":-28,"x_max":733,"o":"m 63 619 l 158 619 l 158 125 q 167 90 158 99 q 201 82 175 82 l 263 82 q 298 90 290 82 q 306 125 306 99 l 306 293 l 401 293 l 401 110 q 374 27 401 54 q 292 0 347 0 l 172 0 q 90 27 117 0 q 63 110 63 54 l 63 619 m -28 864 l 733 864 l 733 782 l 356 782 l 356 792 q 392 783 379 792 q 404 746 404 775 l 404 561 q 397 493 404 518 q 358 461 389 468 l 325 478 l 553 478 l 553 396 l 128 396 l 128 478 l 265 478 q 301 486 293 478 q 308 521 308 494 l 308 739 q 301 774 308 767 q 265 782 293 782 l -28 782 l -28 864 m 535 808 l 629 808 l 629 0 l 535 0 l 535 808 z "},"श":{"ha":689,"x_min":63,"x_max":717,"o":"m 63 519 l 158 519 l 158 125 q 167 90 158 99 q 201 82 175 82 l 263 82 q 298 90 290 82 q 306 125 306 99 l 306 269 l 401 269 l 401 110 q 374 27 401 54 q 292 0 347 0 l 172 0 q 90 27 117 0 q 63 110 63 54 l 63 519 m 294 865 q 377 838 350 865 q 404 756 404 811 l 404 482 q 377 399 404 426 q 294 372 350 372 l 128 372 l 128 454 l 265 454 q 301 463 293 454 q 308 497 308 471 l 308 740 q 301 776 308 768 q 265 783 293 783 l 204 783 q 169 776 178 783 q 161 740 161 768 l 161 624 l 65 624 l 65 756 q 92 838 65 811 q 175 865 119 865 l 294 865 m 517 864 l 717 864 l 717 782 l 611 782 l 611 0 l 517 0 l 517 864 z "},"ष":{"ha":544,"x_min":-28,"x_max":572,"o":"m -28 864 l 572 864 l 572 782 l -28 782 l -28 864 m 76 821 l 167 821 l 167 782 l 311 481 q 364 361 344 410 q 383 313 383 313 q 378 367 383 313 q 372 508 372 422 l 372 825 l 468 825 l 468 0 l 372 0 l 372 161 l 379 189 l 228 507 q 178 615 197 572 q 160 658 160 658 q 166 611 160 658 q 172 490 172 564 l 172 233 q 181 199 172 207 q 215 190 189 190 l 325 190 q 363 201 353 190 q 372 238 372 211 l 388 174 q 374 122 388 136 q 328 108 360 108 l 186 108 q 103 135 131 108 q 76 218 76 163 l 76 821 z "},"त":{"ha":518,"x_min":-28,"x_max":546,"o":"m 442 839 l 442 0 l 346 0 l 346 839 l 442 839 m -28 864 l 546 864 l 546 782 l -28 782 l -28 864 m 393 674 l 393 592 l 201 592 q 167 584 175 592 q 158 549 158 576 l 158 129 q 167 94 158 103 q 201 86 175 86 l 249 86 l 249 0 l 172 0 q 90 27 117 0 q 63 110 63 54 l 63 564 q 90 647 63 619 q 172 674 117 674 l 393 674 z "},"थ":{"ha":597,"x_min":64,"x_max":625,"o":"m 425 864 l 625 864 l 625 782 l 425 782 l 425 864 m 425 822 l 521 822 l 521 0 l 425 0 l 425 822 m 225 871 q 308 844 281 871 q 335 761 335 817 l 335 517 q 308 434 335 461 q 225 407 281 407 l 160 407 l 160 233 q 168 199 160 207 q 203 190 176 190 l 378 190 q 415 201 406 190 q 425 238 425 211 l 440 174 q 426 122 440 136 q 381 108 413 108 l 174 108 q 91 135 118 108 q 64 218 64 163 l 64 489 l 196 489 q 231 497 224 489 q 239 532 239 506 l 239 746 q 231 781 239 774 q 196 789 224 789 l 189 789 q 154 781 163 789 q 146 746 146 774 l 146 683 l 74 683 l 74 761 q 99 844 74 817 q 179 871 124 871 l 225 871 z "},"ट":{"ha":464,"x_min":-28,"x_max":492,"o":"m 296 806 l 392 806 l 392 592 l 215 592 q 181 584 189 592 q 172 549 172 576 l 172 125 q 181 90 172 99 q 215 82 189 82 l 263 82 q 298 90 290 82 q 306 125 306 99 l 306 269 l 401 269 l 401 110 q 374 27 401 54 q 292 0 347 0 l 186 0 q 103 27 131 0 q 76 110 76 54 l 76 564 q 103 647 76 619 q 186 674 131 674 l 296 674 l 296 806 m -28 864 l 492 864 l 492 782 l -28 782 l -28 864 z "},"ठ":{"ha":511,"x_min":-28,"x_max":539,"o":"m -28 864 l 539 864 l 539 782 l -28 782 l -28 864 m 335 674 q 417 647 390 674 q 444 564 444 619 l 444 110 q 417 27 444 54 q 335 0 390 0 l 186 0 q 103 27 131 0 q 76 110 76 54 l 76 564 q 103 647 76 619 q 186 674 131 674 l 335 674 m 213 806 l 308 806 l 308 649 l 213 649 l 213 806 m 349 549 q 341 584 349 576 q 306 592 333 592 l 215 592 q 181 584 189 592 q 172 549 172 576 l 172 125 q 181 90 172 99 q 215 82 189 82 l 306 82 q 341 90 333 82 q 349 125 349 99 l 349 549 z "},"व":{"ha":481,"x_min":-28,"x_max":508,"o":"m -28 864 l 508 864 l 508 782 l -28 782 l -28 864 m 308 825 l 404 825 l 404 0 l 308 0 l 308 825 m 253 674 l 253 592 l 206 592 q 171 584 179 592 q 163 549 163 576 l 163 233 q 171 199 163 207 q 206 190 179 190 l 261 190 q 299 201 289 190 q 308 238 308 211 l 324 174 q 310 122 324 136 q 264 108 296 108 l 176 108 q 94 135 121 108 q 67 218 67 163 l 67 564 q 94 647 67 619 q 176 674 121 674 l 253 674 z "},"य":{"ha":594,"x_min":-56,"x_max":622,"o":"m -56 864 l 622 864 l 622 782 l -56 782 l -56 864 m 422 822 l 518 822 l 518 0 l 422 0 l 422 822 m 299 547 q 287 486 299 511 q 251 449 275 461 q 189 438 226 438 l 144 438 l 144 233 q 153 199 144 207 q 188 190 161 190 l 375 190 q 413 201 403 190 q 422 238 422 211 l 438 174 q 424 122 438 136 q 378 108 410 108 l 158 108 q 76 135 103 108 q 49 218 49 163 l 49 519 l 160 519 q 195 528 188 519 q 203 563 203 536 l 203 738 q 194 774 203 767 q 139 782 185 782 l 250 793 q 286 783 274 793 q 299 744 299 774 l 299 547 z "},"ज़":{"ha":681,"x_min":-28,"x_max":708,"o":"m 508 822 l 604 822 l 604 0 l 508 0 l 508 822 m -28 864 l 708 864 l 708 782 l -28 782 l -28 864 m 63 674 l 158 674 l 158 233 q 167 199 158 207 q 201 190 175 190 l 249 190 q 284 199 276 190 q 292 233 292 207 l 292 674 l 561 674 l 561 592 l 388 592 l 388 218 q 360 135 388 163 q 278 108 333 108 l 172 108 q 90 135 117 108 q 63 218 63 163 l 63 674 m 168 0 l 269 0 l 269 -119 l 168 -119 l 168 0 z "},"८":{"ha":500,"x_min":69,"x_max":431,"o":"m 164 350 l 164 125 q 172 90 164 99 q 207 82 181 82 l 250 82 l 250 0 l 179 0 q 97 27 124 0 q 69 110 69 54 l 69 368 q 83 414 69 399 q 121 433 97 429 q 83 453 97 436 q 69 500 69 469 l 69 754 q 97 837 69 810 q 179 864 124 864 l 254 864 l 254 782 l 207 782 q 172 774 181 782 q 164 739 164 767 l 164 519 q 172 485 164 493 q 207 476 181 476 l 258 476 l 258 393 l 207 393 q 172 385 181 393 q 164 350 164 378 m 336 519 l 336 739 q 328 774 336 767 q 293 782 321 782 l 246 782 l 246 864 l 321 864 q 403 837 376 864 q 431 754 431 810 l 431 500 q 417 453 431 469 q 379 433 403 436 q 417 414 403 429 q 431 368 431 399 l 431 110 q 403 27 431 54 q 321 0 376 0 l 236 0 l 236 82 l 293 82 q 328 90 321 82 q 336 125 336 99 l 336 350 q 328 385 336 378 q 293 393 321 393 l 242 393 l 242 476 l 293 476 q 328 485 321 476 q 336 519 336 493 z "},"५":{"ha":446,"x_min":56,"x_max":394,"o":"m 151 267 l 151 125 q 160 90 151 99 q 194 82 168 82 l 256 82 q 291 90 283 82 q 299 125 299 99 l 299 407 q 291 442 299 435 q 256 450 283 450 l 115 450 l 115 532 l 285 532 q 367 505 340 532 q 394 422 394 478 l 394 110 q 367 27 394 54 q 285 0 340 0 l 165 0 q 83 27 110 0 q 56 110 56 54 l 56 267 l 151 267 m 151 450 l 56 450 l 56 864 l 394 864 l 394 782 l 151 782 l 151 450 z "},"४":{"ha":451,"x_min":7,"x_max":451,"o":"m 53 176 l 53 258 l 451 258 l 451 176 l 53 176 m 7 176 l 7 250 l 235 864 l 328 864 l 74 176 l 7 176 m 286 422 l 378 422 l 378 0 l 286 0 l 286 422 z "},"९":{"ha":482,"x_min":56,"x_max":413,"o":"m 151 739 l 151 485 q 160 450 151 458 q 194 442 168 442 l 351 442 l 351 360 l 165 360 q 83 387 110 360 q 56 469 56 414 l 56 754 q 83 837 56 810 q 165 864 110 864 l 240 864 l 240 782 l 194 782 q 160 774 168 782 q 151 739 151 767 m 317 125 l 317 739 q 309 774 317 767 q 274 782 301 782 l 228 782 l 228 864 l 303 864 q 385 837 358 864 q 413 754 413 810 l 413 110 q 385 27 413 54 q 303 0 358 0 l 229 0 l 229 82 l 274 82 q 309 90 301 82 q 317 125 317 99 m 151 272 l 151 125 q 160 90 151 99 q 194 82 168 82 l 244 82 l 244 0 l 167 0 q 84 27 111 0 q 57 110 57 54 l 57 272 l 151 272 z "},"१":{"ha":293,"x_min":28,"x_max":217,"o":"m 160 864 l 160 782 l 28 782 l 28 864 l 160 864 m 122 864 l 217 864 l 217 0 l 122 0 l 122 864 z "},"७":{"ha":356,"x_min":7,"x_max":349,"o":"m 311 864 l 311 782 l 7 782 l 7 864 l 311 864 m 349 864 l 349 800 l 125 0 l 31 0 l 268 864 l 349 864 z "},"६":{"ha":489,"x_min":69,"x_max":426,"o":"m 331 125 l 331 365 q 323 401 331 393 q 288 408 315 408 l 131 408 l 131 490 l 317 490 q 399 463 372 490 q 426 381 426 436 l 426 110 q 399 27 426 54 q 317 0 372 0 l 242 0 l 242 82 l 288 82 q 323 90 315 82 q 331 125 331 99 m 165 739 l 165 125 q 174 90 165 99 q 208 82 182 82 l 254 82 l 254 0 l 179 0 q 97 27 124 0 q 69 110 69 54 l 69 754 q 97 837 69 810 q 179 864 124 864 l 253 864 l 253 782 l 208 782 q 174 774 182 782 q 165 739 165 767 m 331 592 l 331 739 q 323 774 331 767 q 288 782 315 782 l 238 782 l 238 864 l 315 864 q 398 837 371 864 q 425 754 425 810 l 425 592 l 331 592 z "},"३":{"ha":447,"x_min":42,"x_max":378,"o":"m 136 739 l 136 597 l 42 597 l 42 754 q 69 837 42 810 q 151 864 96 864 l 268 864 q 351 837 324 864 q 378 754 378 810 l 378 506 q 364 458 378 475 q 326 439 350 442 q 364 419 350 435 q 378 374 378 404 l 378 110 q 351 27 378 54 q 268 0 324 0 l 151 0 q 69 27 96 0 q 42 110 42 54 l 42 265 l 136 265 l 136 125 q 144 90 136 99 q 179 82 153 82 l 240 82 q 276 90 268 82 q 283 125 283 99 l 283 353 q 276 388 283 381 q 240 396 268 396 l 139 396 l 139 479 l 240 479 q 276 488 268 479 q 283 522 283 496 l 283 739 q 276 774 283 767 q 240 782 268 782 l 179 782 q 144 774 153 782 q 136 739 136 767 z "},"२":{"ha":403,"x_min":35,"x_max":368,"o":"m 129 739 l 129 586 l 35 586 l 35 754 q 62 837 35 810 q 144 864 89 864 l 251 864 q 334 837 307 864 q 361 754 361 810 l 361 678 q 353 586 361 626 q 325 497 346 546 l 135 82 l 368 82 l 368 0 l 36 0 l 36 81 l 233 513 q 259 595 253 557 q 265 683 265 633 l 265 739 q 258 774 265 767 q 222 782 250 782 l 172 782 q 138 774 146 782 q 129 739 129 767 z "},"०":{"ha":501,"x_min":69,"x_max":432,"o":"m 432 754 l 432 110 q 405 27 432 54 q 322 0 378 0 l 179 0 q 97 27 124 0 q 69 110 69 54 l 69 754 q 97 837 69 810 q 179 864 124 864 l 322 864 q 405 837 378 864 q 432 754 432 810 m 336 125 l 336 739 q 328 774 336 767 q 293 782 321 782 l 208 782 q 174 774 182 782 q 165 739 165 767 l 165 125 q 174 90 165 99 q 208 82 182 82 l 293 82 q 328 90 321 82 q 336 125 336 99 z "},"⁄":{"ha":533,"x_min":11,"x_max":472,"o":"m 378 971 l 472 971 l 106 -189 l 11 -189 l 378 971 z "},"¹":{"ha":175,"x_min":15,"x_max":133,"o":"m 88 864 l 88 806 l 15 806 l 15 864 l 88 864 m 67 864 l 133 864 l 133 389 l 67 389 l 67 864 z "},"³":{"ha":272,"x_min":22,"x_max":236,"o":"m 89 782 l 89 718 l 22 718 l 22 804 q 38 849 22 835 q 83 864 53 864 l 175 864 q 221 849 206 864 q 236 804 236 835 l 236 667 q 228 641 236 650 q 207 631 221 632 q 228 620 221 629 q 236 594 236 611 l 236 449 q 221 403 236 418 q 175 389 206 389 l 83 389 q 38 403 53 389 q 22 449 22 418 l 22 535 l 89 535 l 89 472 q 94 452 89 457 q 113 447 99 447 l 146 447 q 165 452 161 447 q 169 472 169 457 l 169 576 q 165 596 169 592 q 146 600 161 600 l 104 600 l 104 660 l 146 660 q 165 665 161 660 q 169 683 169 669 l 169 782 q 165 801 169 797 q 146 806 161 806 l 113 806 q 94 801 99 806 q 89 782 89 797 z "},"²":{"ha":249,"x_min":19,"x_max":231,"o":"m 85 782 l 85 711 l 19 711 l 19 804 q 34 849 19 835 q 79 864 49 864 l 167 864 q 212 849 197 864 q 226 804 226 835 l 226 761 q 222 707 226 733 q 204 654 218 681 l 94 451 l 231 451 l 231 389 l 19 389 l 19 450 l 139 669 q 156 715 151 693 q 160 765 160 738 l 160 782 q 156 801 160 797 q 136 806 151 806 l 108 806 q 90 801 94 806 q 85 782 85 797 z "},"\r":{"ha":181,"x_min":0,"x_max":0,"o":""},"\u0000":{"ha":0,"x_min":0,"x_max":0,"o":""},"‍":{"ha":0,"x_min":0,"x_max":0,"o":""},"﻿":{"ha":0,"x_min":0,"x_max":0,"o":""},"‌":{"ha":0,"x_min":-32,"x_max":33,"o":"m 33 -319 l -32 -319 l -32 1126 l 33 1126 l 33 -319 z "}," ":{"ha":181,"x_min":0,"x_max":0,"o":""}," ":{"ha":181,"x_min":0,"x_max":0,"o":""},"​":{"ha":0,"x_min":0,"x_max":0,"o":""},"॰":{"ha":490,"x_min":83,"x_max":407,"o":"m 83 424 q 128 553 83 507 q 244 599 172 599 q 363 553 318 599 q 407 424 407 507 q 363 294 407 340 q 244 249 318 249 q 128 294 172 249 q 83 424 83 340 m 171 424 q 190 352 171 376 q 244 328 208 328 q 300 352 281 328 q 319 424 319 376 q 300 495 319 471 q 244 519 281 519 q 190 495 208 519 q 171 424 171 471 z "},"।":{"ha":450,"x_min":181,"x_max":269,"o":"m 269 907 l 269 -43 l 181 -43 l 181 907 l 269 907 z "},"॥":{"ha":679,"x_min":181,"x_max":499,"o":"m 269 907 l 269 -43 l 181 -43 l 181 907 l 269 907 m 499 907 l 499 -43 l 410 -43 l 410 907 l 499 907 z "},"*":{"ha":419,"x_min":21,"x_max":399,"o":"m 231 679 l 189 679 q 183 694 189 679 q 172 737 178 708 q 167 807 167 765 l 167 864 l 253 864 l 253 807 q 247 737 253 765 q 236 694 242 708 q 231 679 231 679 m 217 699 l 203 660 q 188 659 203 660 q 144 662 172 658 q 75 678 115 665 l 21 696 l 47 778 l 101 760 q 167 733 142 747 q 204 708 192 718 q 217 699 217 699 m 193 692 l 226 667 q 223 651 226 667 q 207 610 219 636 q 169 550 194 585 l 136 504 l 65 556 l 100 601 q 146 654 125 635 q 180 683 167 674 q 193 692 193 692 m 193 667 l 226 692 q 240 683 226 692 q 274 656 253 675 q 319 601 296 636 l 353 556 l 283 504 l 250 551 q 214 610 226 585 q 197 651 201 636 q 193 667 193 667 m 217 660 l 203 699 q 215 709 203 699 q 252 733 226 719 q 318 760 278 747 l 371 776 l 399 694 l 343 678 q 276 662 304 665 q 232 659 247 658 q 217 660 217 660 z "},"\\":{"ha":535,"x_min":61,"x_max":524,"o":"m 61 971 l 157 971 l 524 -189 l 428 -189 l 61 971 z "},"•":{"ha":550,"x_min":99,"x_max":451,"o":"m 99 446 q 122 535 99 494 q 186 599 146 575 q 275 622 226 622 q 364 599 324 622 q 428 535 404 575 q 451 446 451 494 q 428 357 451 397 q 364 293 404 317 q 275 269 324 269 q 186 293 226 269 q 122 357 146 317 q 99 446 99 397 z "},":":{"ha":197,"x_min":42,"x_max":156,"o":"m 42 518 l 42 674 l 156 674 l 156 518 l 42 518 m 42 0 l 42 156 l 156 156 l 156 0 l 42 0 z "},",":{"ha":197,"x_min":42,"x_max":156,"o":"m 42 156 l 156 156 l 156 75 l 79 -190 l 42 -190 l 42 156 z "},"…":{"ha":697,"x_min":76,"x_max":704,"o":"m 76 0 l 76 149 l 204 149 l 204 0 l 76 0 m 326 0 l 326 149 l 454 149 l 454 0 l 326 0 m 576 0 l 576 149 l 704 149 l 704 0 l 576 0 z "},"!":{"ha":257,"x_min":69,"x_max":188,"o":"m 69 864 l 188 864 l 169 272 l 88 272 l 69 864 m 71 0 l 71 156 l 185 156 l 185 0 l 71 0 z "},"¡":{"ha":257,"x_min":69,"x_max":188,"o":"m 69 -190 l 88 401 l 169 401 l 188 -190 l 69 -190 m 71 674 l 185 674 l 185 518 l 71 518 l 71 674 z "},"#":{"ha":622,"x_min":42,"x_max":581,"o":"m 214 864 l 301 864 l 158 0 l 71 0 l 214 864 m 581 633 l 581 553 l 83 553 l 83 633 l 581 633 m 408 0 l 321 0 l 464 864 l 551 864 l 408 0 m 42 231 l 42 311 l 539 311 l 539 231 l 42 231 z "},".":{"ha":197,"x_min":42,"x_max":156,"o":"m 42 0 l 42 156 l 156 156 l 156 0 l 42 0 z "},"·":{"ha":281,"x_min":42,"x_max":156,"o":"m 42 360 l 42 515 l 156 515 l 156 360 l 42 360 z "},"?":{"ha":428,"x_min":28,"x_max":365,"o":"m 269 492 l 269 738 q 263 773 269 763 q 231 783 257 783 l 175 783 l 175 864 l 256 864 q 340 835 314 864 q 365 757 365 806 l 365 474 q 340 395 365 425 q 256 365 314 365 l 188 365 l 188 447 l 231 447 q 263 457 257 447 q 269 492 269 467 m 139 447 l 235 447 l 226 272 l 147 272 l 139 447 m 129 0 l 129 156 l 243 156 l 243 0 l 129 0 m 124 738 l 124 638 l 28 638 l 28 757 q 53 835 28 806 q 138 864 79 864 l 218 864 l 218 783 l 164 783 q 131 773 138 783 q 124 738 124 763 z "},"¿":{"ha":428,"x_min":28,"x_max":365,"o":"m 124 182 l 124 -64 q 130 -99 124 -89 q 163 -110 136 -110 l 218 -110 l 218 -190 l 138 -190 q 53 -161 79 -190 q 28 -83 28 -132 l 28 200 q 53 278 28 249 q 138 308 79 308 l 206 308 l 206 226 l 163 226 q 130 217 136 226 q 124 182 124 207 m 254 226 l 158 226 l 167 401 l 246 401 l 254 226 m 264 674 l 264 518 l 150 518 l 150 674 l 264 674 m 269 -64 l 269 36 l 365 36 l 365 -83 q 340 -161 365 -132 q 256 -190 314 -190 l 175 -190 l 175 -110 l 229 -110 q 263 -99 257 -110 q 269 -64 269 -89 z "},";":{"ha":197,"x_min":42,"x_max":156,"o":"m 42 156 l 156 156 l 156 75 l 79 -190 l 42 -190 l 42 156 m 42 518 l 42 674 l 156 674 l 156 518 l 42 518 z "},"/":{"ha":533,"x_min":11,"x_max":472,"o":"m 378 971 l 472 971 l 106 -189 l 11 -189 l 378 971 z "},"—":{"ha":665,"x_min":0,"x_max":665,"o":"m 0 365 l 0 446 l 665 446 l 665 365 l 0 365 z "},"–":{"ha":514,"x_min":28,"x_max":486,"o":"m 28 365 l 28 446 l 486 446 l 486 365 l 28 365 z "},"-":{"ha":426,"x_min":76,"x_max":349,"o":"m 76 365 l 76 446 l 349 446 l 349 365 l 76 365 z "},"­":{"ha":426,"x_min":76,"x_max":349,"o":"m 76 365 l 76 446 l 349 446 l 349 365 l 76 365 z "},"_":{"ha":658,"x_min":0,"x_max":658,"o":"m 0 -143 l 0 -61 l 658 -61 l 658 -143 l 0 -143 z "},"{":{"ha":376,"x_min":7,"x_max":367,"o":"m 250 957 l 250 594 q 224 478 250 522 q 146 428 199 435 q 224 377 199 421 q 250 263 250 333 l 250 -103 q 260 -138 250 -128 q 297 -149 271 -149 l 367 -149 l 367 -231 l 251 -231 q 174 -201 193 -231 q 156 -122 156 -172 l 156 226 q 126 349 156 310 q 33 388 97 388 l 7 388 l 7 468 l 33 468 q 126 507 97 468 q 156 631 156 546 l 156 976 q 174 1055 156 1025 q 251 1085 193 1085 l 367 1085 l 367 1003 l 297 1003 q 260 992 271 1003 q 250 957 250 982 z "},"}":{"ha":376,"x_min":8,"x_max":368,"o":"m 125 594 l 125 957 q 115 992 125 982 q 78 1003 106 1003 l 8 1003 l 8 1085 l 124 1085 q 201 1055 182 1085 q 219 976 219 1025 l 219 631 q 249 507 219 546 q 342 468 278 468 l 368 468 l 368 388 l 342 388 q 249 349 278 388 q 219 226 219 310 l 219 -122 q 201 -201 219 -172 q 124 -231 182 -231 l 8 -231 l 8 -149 l 78 -149 q 115 -138 106 -149 q 125 -103 125 -128 l 125 263 q 151 377 125 333 q 229 428 176 421 q 151 478 176 435 q 125 594 125 522 z "},"[":{"ha":429,"x_min":88,"x_max":324,"o":"m 142 1003 l 142 1085 l 324 1085 l 324 1003 l 142 1003 m 88 1085 l 183 1085 l 183 -232 l 88 -232 l 88 1085 m 126 -232 l 126 -150 l 324 -150 l 324 -232 l 126 -232 z "},"]":{"ha":429,"x_min":74,"x_max":310,"o":"m 256 1085 l 256 1003 l 74 1003 l 74 1085 l 256 1085 m 214 1085 l 310 1085 l 310 -232 l 214 -232 l 214 1085 m 271 -150 l 271 -232 l 74 -232 l 74 -150 l 271 -150 z "},"(":{"ha":340,"x_min":68,"x_max":376,"o":"m 68 475 q 137 935 68 772 q 354 1099 206 1099 l 376 1099 l 376 1019 l 357 1018 q 238 941 281 1013 q 178 749 194 869 q 161 476 161 628 l 161 375 q 178 103 161 224 q 238 -89 194 -17 q 357 -167 281 -161 l 376 -168 l 376 -247 l 354 -247 q 137 -84 206 -247 q 68 376 68 79 l 68 475 z "},")":{"ha":340,"x_min":-40,"x_max":268,"o":"m 268 376 q 199 -84 268 79 q -18 -247 131 -247 l -40 -247 l -40 -168 l -21 -167 q 99 -89 57 -161 q 158 103 142 -17 q 175 375 175 224 l 175 476 q 158 749 175 628 q 99 941 142 869 q -21 1018 57 1013 l -40 1019 l -40 1099 l -18 1099 q 199 935 131 1099 q 268 475 268 772 l 268 376 z "},"«":{"ha":676,"x_min":60,"x_max":613,"o":"m 228 147 l 60 364 l 228 581 l 335 581 l 163 363 l 335 147 l 228 147 m 506 147 l 338 364 l 506 581 l 613 581 l 440 363 l 613 147 l 506 147 z "},"»":{"ha":676,"x_min":60,"x_max":613,"o":"m 335 364 l 167 147 l 60 147 l 232 363 l 60 581 l 167 581 l 335 364 m 613 364 l 444 147 l 338 147 l 510 363 l 338 581 l 444 581 l 613 364 z "},"‹":{"ha":399,"x_min":60,"x_max":335,"o":"m 228 147 l 60 364 l 228 581 l 335 581 l 163 363 l 335 147 l 228 147 z "},"›":{"ha":401,"x_min":60,"x_max":335,"o":"m 335 364 l 167 147 l 60 147 l 232 363 l 60 581 l 167 581 l 335 364 z "},"\"":{"ha":353,"x_min":49,"x_max":304,"o":"m 49 864 l 138 864 l 138 569 l 49 569 l 49 864 m 215 864 l 304 864 l 304 569 l 215 569 l 215 864 z "},"„":{"ha":381,"x_min":42,"x_max":339,"o":"m 42 156 l 156 156 l 156 75 l 79 -190 l 42 -190 l 42 156 m 225 156 l 339 156 l 339 75 l 263 -190 l 225 -190 l 225 156 z "},"“":{"ha":381,"x_min":42,"x_max":339,"o":"m 339 518 l 225 518 l 225 599 l 301 864 l 339 864 l 339 518 m 156 518 l 42 518 l 42 599 l 118 864 l 156 864 l 156 518 z "},"”":{"ha":381,"x_min":42,"x_max":339,"o":"m 42 864 l 156 864 l 156 783 l 79 518 l 42 518 l 42 864 m 225 864 l 339 864 l 339 783 l 263 518 l 225 518 l 225 864 z "},"‘":{"ha":197,"x_min":42,"x_max":156,"o":"m 156 518 l 42 518 l 42 599 l 118 864 l 156 864 l 156 518 z "},"’":{"ha":197,"x_min":42,"x_max":156,"o":"m 42 864 l 156 864 l 156 783 l 79 518 l 42 518 l 42 864 z "},"‚":{"ha":197,"x_min":42,"x_max":156,"o":"m 42 156 l 156 156 l 156 75 l 79 -190 l 42 -190 l 42 156 z "},"'":{"ha":193,"x_min":49,"x_max":144,"o":"m 49 864 l 144 864 l 144 569 l 49 569 l 49 864 z "},"ƒ":{"ha":456,"x_min":-33,"x_max":388,"o":"m 281 797 l 169 -86 q 153 -147 165 -122 q 119 -184 142 -172 q 60 -196 97 -196 l -33 -196 l -33 -107 l 31 -107 q 65 -99 58 -107 q 74 -64 71 -90 l 185 819 q 201 881 189 857 q 235 917 213 906 q 294 929 258 929 l 388 929 l 388 840 l 324 840 q 290 833 297 840 q 281 797 283 825 m 388 674 l 388 592 l 65 592 l 65 674 l 388 674 z "},"ऽ":{"ha":476,"x_min":69,"x_max":407,"o":"m 389 782 l 225 782 q 190 774 199 782 q 182 739 182 767 l 182 554 q 190 519 182 528 q 225 511 199 511 l 297 511 q 380 484 353 511 q 407 401 407 457 l 407 110 q 380 27 407 54 q 297 0 353 0 l 179 0 q 97 27 124 0 q 69 110 69 54 l 69 229 l 165 229 l 165 125 q 174 90 165 99 q 208 82 182 82 l 268 82 q 303 90 296 82 q 311 125 311 99 l 311 386 q 303 422 311 414 q 268 429 296 429 l 196 429 q 113 456 140 429 q 86 539 86 483 l 86 754 q 113 837 86 810 q 196 864 140 864 l 389 864 l 389 782 z "},"ॐ":{"ha":833,"x_min":42,"x_max":768,"o":"m 438 864 l 532 864 l 532 768 l 438 768 l 438 864 m 349 674 l 567 674 q 602 682 594 674 q 610 717 610 690 l 610 772 l 699 772 l 699 703 q 672 619 699 647 q 589 592 644 592 l 349 592 l 349 674 m 267 864 q 349 837 322 864 q 376 754 376 810 l 376 535 q 363 481 376 497 q 326 465 350 465 l 326 474 l 658 474 q 741 447 714 474 q 768 364 768 419 l 768 110 q 741 27 768 54 q 658 0 714 0 l 571 0 q 488 27 515 0 q 461 110 461 54 l 461 243 l 557 243 l 557 125 q 565 90 557 99 q 600 82 574 82 l 629 82 q 665 90 657 82 q 672 125 672 99 l 672 349 q 665 384 672 376 q 629 392 657 392 l 326 392 l 326 400 q 363 384 350 400 q 376 331 376 368 l 376 110 q 349 27 376 54 q 267 0 322 0 l 151 0 q 69 27 96 0 q 42 110 42 54 l 42 243 l 138 243 l 138 125 q 146 90 138 99 q 181 82 154 82 l 238 82 q 273 90 265 82 q 281 125 281 99 l 281 344 q 271 382 281 372 q 233 392 261 392 l 139 392 l 139 474 l 233 474 q 271 484 261 474 q 281 521 281 494 l 281 739 q 273 774 281 767 q 238 782 265 782 l 181 782 q 146 774 154 782 q 138 739 138 767 l 138 621 l 42 621 l 42 754 q 69 837 42 810 q 151 864 96 864 l 267 864 z "},"&":{"ha":581,"x_min":56,"x_max":660,"o":"m 660 -49 l 556 -49 l 197 399 q 121 502 158 451 q 83 611 83 553 l 83 754 q 110 837 83 810 q 193 864 138 864 l 321 864 q 403 837 376 864 q 431 754 431 810 l 431 617 q 419 534 431 568 q 388 476 408 500 q 335 432 367 453 l 193 331 q 160 299 171 315 q 150 246 150 282 l 150 125 q 158 90 150 99 q 193 82 167 82 l 421 82 q 456 90 449 82 q 464 125 464 99 l 464 311 l 542 311 l 542 110 q 515 27 542 54 q 432 0 488 0 l 165 0 q 83 27 110 0 q 56 110 56 54 l 56 271 q 63 317 56 297 q 85 355 69 338 q 128 390 101 372 l 257 490 q 317 544 297 518 q 336 617 336 571 l 336 739 q 328 774 336 767 q 293 782 321 782 l 221 782 q 186 774 194 782 q 178 739 178 767 l 178 603 q 194 549 178 576 q 233 495 211 521 q 271 447 254 469 l 660 -49 z "},"@":{"ha":904,"x_min":118,"x_max":840,"o":"m 318 483 q 345 566 318 539 q 428 593 372 593 l 469 593 q 517 582 497 593 q 546 546 538 571 l 546 593 l 640 593 l 640 194 l 703 194 q 738 203 731 194 q 746 238 746 211 l 746 654 q 738 690 746 682 q 703 699 731 699 l 257 699 q 222 690 231 699 q 214 654 214 682 l 214 43 q 222 8 214 17 q 257 0 231 0 l 642 0 l 642 -85 l 228 -85 q 145 -58 172 -85 q 118 25 118 -31 l 118 674 q 145 756 118 729 q 228 783 172 783 l 731 783 q 813 756 786 783 q 840 674 840 729 l 840 222 q 813 140 840 167 q 731 113 786 113 l 556 113 l 556 181 q 526 128 551 143 q 469 113 501 113 l 428 113 q 345 140 372 113 q 318 222 318 167 l 318 483 m 414 468 l 414 238 q 422 203 414 211 q 457 194 431 194 l 499 194 q 535 206 524 194 q 546 244 546 217 l 546 461 q 535 500 546 489 q 499 511 524 511 l 457 511 q 422 503 431 511 q 414 468 414 496 z "},"|":{"ha":249,"x_min":76,"x_max":172,"o":"m 76 999 l 172 999 l 172 -136 l 76 -136 l 76 999 z "},"¦":{"ha":249,"x_min":76,"x_max":172,"o":"m 76 343 l 172 343 l 172 -136 l 76 -136 l 76 343 m 172 519 l 76 519 l 76 999 l 172 999 l 172 519 z "},"©":{"ha":947,"x_min":68,"x_max":904,"o":"m 904 475 l 904 376 q 874 165 904 249 q 781 40 844 81 q 618 0 718 0 l 354 0 q 192 40 256 0 q 98 165 128 81 q 68 376 68 249 l 68 475 q 98 690 68 604 q 192 820 128 776 q 354 864 256 864 l 618 864 q 781 820 718 864 q 874 690 844 776 q 904 475 904 604 m 357 83 l 615 83 q 735 122 693 83 q 794 227 778 161 q 811 375 811 293 l 811 476 q 794 628 811 558 q 735 741 778 699 q 615 783 693 783 l 357 783 q 238 741 281 783 q 178 628 194 699 q 161 476 161 558 l 161 375 q 178 227 161 293 q 238 122 194 161 q 357 83 281 83 m 564 333 l 564 367 l 660 367 l 660 318 q 633 235 660 263 q 550 208 606 208 l 422 208 q 340 235 367 208 q 313 318 313 263 l 313 564 q 340 647 313 619 q 422 674 367 674 l 550 674 q 633 647 606 674 q 660 564 660 619 l 660 515 l 564 515 l 564 549 q 556 584 564 576 q 521 592 549 592 l 451 592 q 417 584 425 592 q 408 549 408 576 l 408 333 q 417 299 408 307 q 451 290 425 290 l 521 290 q 556 299 549 290 q 564 333 564 307 z "},"†":{"ha":469,"x_min":7,"x_max":463,"o":"m 188 864 l 282 864 l 282 -153 l 188 -153 l 188 864 m 463 636 l 463 554 l 7 554 l 7 636 l 463 636 z "},"‡":{"ha":497,"x_min":21,"x_max":476,"o":"m 201 864 l 296 864 l 296 -218 l 201 -218 l 201 864 m 476 636 l 476 554 l 21 554 l 21 636 l 476 636 m 476 92 l 476 10 l 21 10 l 21 92 l 476 92 z "},"°":{"ha":494,"x_min":81,"x_max":406,"o":"m 406 757 l 406 597 q 379 517 406 543 q 299 490 353 490 l 188 490 q 107 517 133 490 q 81 597 81 543 l 81 757 q 107 838 81 811 q 188 864 133 864 l 299 864 q 379 838 353 864 q 406 757 406 811 m 317 610 l 317 744 q 309 778 317 771 q 274 786 301 786 l 213 786 q 178 778 186 786 q 169 744 169 771 l 169 610 q 178 576 169 583 q 213 568 186 568 l 274 568 q 309 576 301 568 q 317 610 317 583 z "},"℮":{"ha":838,"x_min":47,"x_max":808,"o":"m 192 325 l 808 325 l 808 333 q 757 507 808 429 q 619 631 706 585 q 426 678 532 678 q 280 651 349 678 q 159 576 211 624 q 77 467 107 529 q 47 333 47 404 q 77 201 47 263 q 159 93 107 140 q 280 19 211 46 q 426 -7 349 -7 q 599 29 521 -7 q 728 125 676 65 l 674 125 q 565 43 629 74 q 428 13 501 13 q 300 40 360 13 q 194 114 240 67 q 188 135 188 124 l 188 322 q 192 325 188 325 m 668 538 l 668 350 q 664 343 668 343 l 192 343 q 188 350 188 343 l 188 533 q 196 557 188 547 q 301 629 242 601 q 428 657 360 657 q 555 631 496 657 q 660 560 614 604 q 668 538 668 551 z "},"¶":{"ha":681,"x_min":76,"x_max":590,"o":"m 338 864 l 338 319 l 186 319 q 103 347 131 319 q 76 429 76 374 l 76 754 q 103 837 76 810 q 186 864 131 864 l 338 864 m 288 864 l 382 864 l 382 -196 l 288 -196 l 288 864 m 496 864 l 590 864 l 590 -196 l 496 -196 l 496 864 z "},"®":{"ha":551,"x_min":49,"x_max":503,"o":"m 503 735 l 503 681 q 487 566 503 611 q 436 499 471 521 q 347 476 401 476 l 204 476 q 115 499 150 476 q 65 566 81 521 q 49 681 49 611 l 49 735 q 65 851 49 804 q 115 922 81 899 q 204 946 150 946 l 347 946 q 436 922 401 946 q 487 851 471 899 q 503 735 503 804 m 206 522 l 347 522 q 412 543 389 522 q 444 600 435 564 q 453 679 453 636 l 453 735 q 444 817 453 779 q 412 879 435 856 q 347 903 389 903 l 206 903 q 141 879 164 903 q 109 817 118 856 q 100 735 100 779 l 100 679 q 109 600 100 636 q 141 543 118 564 q 206 522 164 522 m 211 861 l 300 861 q 333 851 322 861 q 343 819 343 842 l 343 728 q 314 686 343 693 l 358 565 l 314 565 l 271 685 l 254 685 l 254 565 l 211 565 l 211 861 m 300 732 l 300 815 q 292 825 300 825 l 254 825 l 254 724 l 292 724 q 300 732 300 724 z "},"§":{"ha":538,"x_min":69,"x_max":468,"o":"m 296 282 l 296 336 l 329 336 q 365 344 357 336 q 372 379 372 353 l 372 506 q 365 541 372 533 q 329 549 357 549 l 235 549 q 152 576 179 549 q 125 658 125 603 l 125 818 q 152 901 125 874 q 235 928 179 928 l 357 928 q 440 901 413 928 q 467 818 467 874 l 467 750 l 371 750 l 371 803 q 363 838 371 831 q 328 846 356 846 l 264 846 q 229 838 238 846 q 221 803 221 831 l 221 674 q 229 639 221 647 q 264 631 238 631 l 358 631 q 441 603 414 631 q 468 521 468 576 l 468 406 q 448 316 468 350 q 372 282 428 282 l 296 282 m 242 603 l 242 549 l 208 549 q 174 541 182 549 q 165 506 165 533 l 165 379 q 174 344 165 353 q 208 336 182 336 l 303 336 q 385 309 358 336 q 413 226 413 282 l 413 67 q 385 -16 413 11 q 303 -43 358 -43 l 181 -43 q 98 -16 125 -43 q 71 67 71 11 l 71 135 l 167 135 l 167 82 q 175 47 167 56 q 210 39 183 39 l 274 39 q 309 47 301 39 q 317 82 317 56 l 317 211 q 309 247 317 239 q 274 254 301 254 l 179 254 q 97 281 124 254 q 69 364 69 308 l 69 479 q 90 569 69 535 q 165 603 110 603 l 242 603 z "},"™":{"ha":831,"x_min":7,"x_max":789,"o":"m 118 864 l 213 864 l 213 417 l 118 417 l 118 864 m 324 864 l 324 782 l 7 782 l 7 864 l 324 864 m 376 864 l 497 864 l 583 606 l 667 864 l 789 864 l 789 417 l 701 417 l 701 724 l 629 497 l 539 497 l 464 725 l 464 417 l 376 417 l 376 864 z "},"ℓ":{"ha":603,"x_min":92,"x_max":511,"o":"m 386 711 l 381 711 q 346 703 354 711 q 338 668 338 696 l 338 125 q 346 90 338 99 q 381 82 354 82 l 493 82 l 493 0 l 351 0 q 269 27 296 0 q 242 110 242 54 l 242 683 q 269 766 242 739 q 351 793 296 793 l 415 793 q 472 781 451 793 q 502 747 493 768 q 511 699 511 725 q 496 623 511 660 q 453 553 481 586 l 92 110 l 92 226 l 374 582 q 403 628 389 600 q 417 678 417 656 q 410 701 417 692 q 386 711 404 711 z "},"€":{"ha":511,"x_min":35,"x_max":456,"o":"m 197 739 l 197 124 q 206 89 197 97 q 240 81 214 81 l 281 81 l 281 -1 l 211 -1 q 128 26 156 -1 q 101 108 101 53 l 101 754 q 128 837 101 810 q 211 864 156 864 l 290 864 l 290 782 l 240 782 q 206 774 214 782 q 197 739 197 767 m 360 608 l 360 739 q 352 774 360 767 q 317 782 344 782 l 269 782 l 269 864 l 346 864 q 428 837 401 864 q 456 754 456 810 l 456 608 l 360 608 m 360 124 l 360 254 l 456 254 l 456 108 q 428 26 456 53 q 346 -1 401 -1 l 269 -1 l 269 81 l 317 81 q 352 89 344 81 q 360 124 360 97 m 329 393 l 329 311 l 35 311 l 35 393 l 329 393 m 329 553 l 329 472 l 35 472 l 35 553 l 329 553 z "},"¢":{"ha":451,"x_min":56,"x_max":403,"o":"m 151 549 l 151 125 q 160 90 151 99 q 194 82 168 82 l 228 82 l 228 0 l 165 0 q 83 27 110 0 q 56 110 56 54 l 56 564 q 83 647 56 619 q 165 674 110 674 l 238 674 l 238 592 l 194 592 q 160 584 168 592 q 151 549 151 576 m 307 474 l 307 549 q 299 584 307 576 q 264 592 292 592 l 217 592 l 217 674 l 293 674 q 376 647 349 674 q 403 564 403 619 l 403 474 l 307 474 m 307 125 l 307 200 l 403 200 l 403 110 q 376 27 403 54 q 293 0 349 0 l 217 0 l 217 82 l 264 82 q 299 90 292 82 q 307 125 307 99 m 279 660 l 189 660 l 189 779 l 279 779 l 279 660 m 279 -104 l 189 -104 l 189 14 l 279 14 l 279 -104 z "},"¤":{"ha":631,"x_min":90,"x_max":560,"o":"m 511 565 l 511 264 q 499 203 511 228 q 463 166 488 178 q 401 154 439 154 l 260 154 q 199 166 224 154 q 162 203 174 178 q 150 264 150 228 l 150 565 q 162 627 150 603 q 199 663 174 651 q 260 675 224 675 l 401 675 q 463 663 439 675 q 499 627 488 651 q 511 565 511 603 m 288 236 l 374 236 q 409 244 401 236 q 417 279 417 253 l 417 550 q 409 585 417 578 q 374 593 401 593 l 288 593 q 253 585 261 593 q 244 550 244 578 l 244 279 q 253 244 244 253 q 288 236 261 236 m 267 628 l 203 564 l 90 675 l 154 739 l 267 628 m 447 564 l 383 628 l 496 739 l 560 675 l 447 564 m 203 268 l 267 204 l 154 93 l 90 157 l 203 268 m 383 204 l 447 268 l 560 157 l 496 93 l 383 204 z "},"$":{"ha":454,"x_min":56,"x_max":399,"o":"m 272 850 l 182 850 l 182 968 l 272 968 l 272 850 m 272 -104 l 182 -104 l 182 14 l 272 14 l 272 -104 m 303 125 l 303 361 q 295 397 303 389 q 260 404 288 404 l 165 404 q 83 431 110 404 q 56 514 56 458 l 56 754 q 83 837 56 810 q 165 864 110 864 l 288 864 q 370 837 343 864 q 397 754 397 810 l 397 621 l 301 621 l 301 739 q 294 774 301 767 q 258 782 286 782 l 194 782 q 160 774 168 782 q 151 739 151 767 l 151 529 q 160 494 151 503 q 194 486 168 486 l 289 486 q 372 459 344 486 q 399 376 399 432 l 399 110 q 372 27 399 54 q 289 0 344 0 l 168 0 q 85 27 113 0 q 58 110 58 54 l 58 243 l 154 243 l 154 125 q 163 90 154 99 q 197 82 171 82 l 260 82 q 295 90 288 82 q 303 125 303 99 z "},"₹":{"ha":476,"x_min":56,"x_max":407,"o":"m 407 654 l 407 572 l 56 572 l 56 654 l 407 654 m 407 864 l 407 782 l 56 782 l 56 864 l 407 864 m 194 813 q 280 805 250 813 q 322 779 310 797 q 333 726 333 761 l 333 472 q 306 390 333 417 q 224 363 279 363 l 92 363 l 124 417 l 363 0 l 260 0 l 56 363 l 56 444 l 194 444 q 230 453 222 444 q 238 488 238 461 l 238 739 q 230 774 238 767 q 194 782 222 782 l 194 813 z "},"£":{"ha":493,"x_min":49,"x_max":458,"o":"m 213 739 l 213 197 q 207 128 213 158 q 176 82 201 97 l 458 82 l 458 0 l 49 0 l 49 82 q 101 115 85 82 q 117 218 117 147 l 117 754 q 144 837 117 810 q 226 864 171 864 l 343 864 q 426 837 399 864 q 453 754 453 810 l 453 628 l 358 628 l 358 739 q 351 774 358 767 q 315 782 343 782 l 256 782 q 221 774 229 782 q 213 739 213 767 m 49 379 l 49 461 l 389 461 l 389 379 l 49 379 z "},"₺":{"ha":467,"x_min":-46,"x_max":400,"o":"m 304 419 l 400 419 l 400 110 q 373 27 400 54 q 290 0 346 0 l 119 0 l 96 82 l 261 82 q 297 90 289 82 q 304 125 304 99 l 304 419 m 63 929 l 158 929 l 158 83 l 158 74 l 158 0 l 63 0 l 63 929 m 285 656 l 285 574 l -46 421 l -46 503 l 285 656 m 285 822 l 285 740 l -46 588 l -46 669 l 285 822 z "},"¥":{"ha":478,"x_min":21,"x_max":457,"o":"m 197 472 l 197 390 l 24 390 l 24 472 l 197 472 m 454 472 l 454 390 l 296 390 l 296 472 l 454 472 m 454 299 l 454 221 l 24 221 l 24 299 l 454 299 m 286 264 l 192 264 l 21 864 l 115 864 l 239 382 l 363 864 l 457 864 l 286 264 m 192 318 l 286 318 l 286 0 l 192 0 l 192 318 z "},"≈":{"ha":656,"x_min":71,"x_max":585,"o":"m 440 536 q 360 553 390 536 q 308 593 331 571 q 262 633 286 615 q 201 650 238 650 q 167 638 175 650 q 160 603 160 625 l 160 538 l 71 538 l 71 621 q 96 698 71 669 q 178 726 121 726 l 218 726 q 288 709 260 726 q 340 669 317 692 q 390 630 363 647 q 458 613 417 613 q 490 625 483 613 q 496 661 496 638 l 496 725 l 585 725 l 585 642 q 560 565 585 594 q 476 536 535 536 l 440 536 m 440 300 q 360 317 390 300 q 308 357 331 335 q 262 397 286 379 q 201 414 238 414 q 167 401 175 414 q 160 367 160 389 l 160 301 l 71 301 l 71 385 q 96 462 71 433 q 178 490 121 490 l 218 490 q 288 473 260 490 q 340 433 317 456 q 390 394 363 411 q 458 376 417 376 q 490 389 483 376 q 496 425 496 401 l 496 489 l 585 489 l 585 406 q 560 329 585 358 q 476 300 535 300 l 440 300 z "},"^":{"ha":615,"x_min":63,"x_max":553,"o":"m 250 932 l 365 932 l 553 454 l 453 454 l 307 839 l 163 454 l 63 454 l 250 932 z "},"~":{"ha":656,"x_min":72,"x_max":586,"o":"m 442 300 q 362 317 392 300 q 310 357 332 335 q 263 397 288 379 q 203 414 239 414 q 169 401 176 414 q 161 367 161 389 l 161 301 l 72 301 l 72 385 q 97 462 72 433 q 179 490 122 490 l 219 490 q 290 473 261 490 q 341 433 318 456 q 391 394 364 411 q 460 376 418 376 q 491 389 485 376 q 497 425 497 401 l 497 489 l 586 489 l 586 406 q 561 329 586 358 q 478 300 536 300 l 442 300 z "},"∙":{"ha":197,"x_min":42,"x_max":156,"o":"m 42 354 l 42 510 l 156 510 l 156 354 l 42 354 z "},"÷":{"ha":528,"x_min":35,"x_max":493,"o":"m 35 390 l 35 474 l 493 474 l 493 390 l 35 390 m 215 682 l 313 682 l 313 571 l 215 571 l 215 682 m 215 293 l 313 293 l 313 182 l 215 182 l 215 293 z "},"∕":{"ha":533,"x_min":11,"x_max":472,"o":"m 378 971 l 472 971 l 106 -189 l 11 -189 l 378 971 z "},"=":{"ha":542,"x_min":42,"x_max":500,"o":"m 42 508 l 42 594 l 500 594 l 500 508 l 42 508 m 42 269 l 42 356 l 500 356 l 500 269 l 42 269 z "},">":{"ha":542,"x_min":42,"x_max":500,"o":"m 413 432 l 42 554 l 42 646 l 500 486 l 500 378 l 42 218 l 42 310 l 413 432 z "},"≥":{"ha":603,"x_min":69,"x_max":533,"o":"m 419 494 l 69 617 l 69 706 l 533 532 l 533 463 l 69 279 l 69 369 l 419 494 m 69 150 l 69 229 l 533 229 l 533 150 l 69 150 z "},"∞":{"ha":814,"x_min":69,"x_max":744,"o":"m 201 294 l 215 369 l 246 369 q 285 383 267 369 q 314 411 304 396 l 433 586 q 473 640 457 621 q 510 665 489 658 q 572 672 532 672 l 590 672 l 590 599 l 553 599 q 525 589 535 599 q 503 563 515 579 l 400 400 q 350 334 372 357 q 298 303 328 311 q 218 294 268 294 l 201 294 m 229 369 l 211 294 l 176 294 q 94 323 119 294 q 69 400 69 351 l 69 568 q 94 644 69 615 q 176 672 119 672 l 228 672 l 228 597 l 203 597 q 165 586 172 597 q 158 549 158 575 l 158 418 q 165 381 158 392 q 203 369 172 369 l 229 369 m 418 528 l 363 472 l 304 553 q 274 587 288 576 q 231 597 260 597 l 215 597 l 215 672 l 226 672 q 288 666 265 672 q 328 644 311 660 q 367 597 344 628 l 418 528 m 396 424 l 444 485 l 514 396 q 536 376 525 382 q 569 369 547 369 l 597 369 l 597 294 l 582 294 q 519 300 543 294 q 476 322 494 306 q 435 369 458 338 l 396 424 m 593 294 l 593 369 l 611 369 q 649 381 642 369 q 656 418 656 392 l 656 550 q 649 588 656 576 q 611 599 642 599 l 589 599 l 589 672 l 636 672 q 719 644 694 672 q 744 568 744 615 l 744 400 q 719 323 744 351 q 636 294 694 294 l 593 294 z "},"∫":{"ha":338,"x_min":14,"x_max":324,"o":"m 217 888 l 217 -51 q 190 -134 217 -107 q 107 -161 163 -161 l 14 -161 l 14 -72 l 78 -72 q 112 -64 106 -72 q 121 -29 118 -56 l 121 910 q 148 992 121 965 q 231 1019 175 1019 l 324 1019 l 324 931 l 260 931 q 225 923 233 931 q 217 888 217 915 z "},"<":{"ha":542,"x_min":42,"x_max":500,"o":"m 500 554 l 129 432 l 500 310 l 500 218 l 42 378 l 42 486 l 500 646 l 500 554 z "},"≤":{"ha":603,"x_min":56,"x_max":519,"o":"m 519 617 l 169 494 l 519 369 l 519 279 l 56 463 l 56 532 l 519 706 l 519 617 m 519 229 l 519 150 l 56 150 l 56 229 l 519 229 z "},"¬":{"ha":600,"x_min":42,"x_max":544,"o":"m 544 549 l 544 454 l 42 454 l 42 549 l 544 549 m 544 246 l 463 246 l 463 549 l 544 549 l 544 246 z "},"−":{"ha":528,"x_min":35,"x_max":493,"o":"m 35 390 l 35 474 l 493 474 l 493 390 l 35 390 z "},"×":{"ha":486,"x_min":35,"x_max":451,"o":"m 451 286 l 389 224 l 35 578 l 97 640 l 451 286 m 389 640 l 451 578 l 97 224 l 35 286 l 389 640 z "},"≠":{"ha":658,"x_min":69,"x_max":589,"o":"m 589 289 l 69 289 l 69 369 l 589 369 l 589 289 m 589 506 l 69 506 l 69 586 l 589 586 l 589 506 m 236 150 l 160 150 l 422 717 l 499 717 l 236 150 z "},"%":{"ha":796,"x_min":42,"x_max":754,"o":"m 307 765 l 307 510 q 285 435 307 458 q 214 411 263 411 l 135 411 q 65 435 88 411 q 42 510 42 458 l 42 765 q 65 840 42 817 q 135 864 88 864 l 214 864 q 285 840 263 864 q 307 765 307 817 m 754 354 l 754 99 q 732 24 754 47 q 661 0 710 0 l 582 0 q 512 24 535 0 q 489 99 489 47 l 489 354 q 512 429 489 406 q 582 453 535 453 l 661 453 q 732 429 710 453 q 754 354 754 406 m 229 522 l 229 753 q 223 787 229 779 q 190 794 217 794 l 158 794 q 126 787 132 794 q 119 753 119 779 l 119 522 q 126 488 119 496 q 158 481 132 481 l 190 481 q 223 488 217 481 q 229 522 229 496 m 676 111 l 676 342 q 670 376 676 368 q 638 383 664 383 l 606 383 q 573 376 579 383 q 567 342 567 368 l 567 111 q 573 77 567 85 q 606 69 579 69 l 638 69 q 670 77 664 69 q 676 111 676 85 m 544 864 l 629 864 l 250 0 l 167 0 l 544 864 z "},"‰":{"ha":1139,"x_min":42,"x_max":1097,"o":"m 307 765 l 307 510 q 285 435 307 458 q 214 411 263 411 l 135 411 q 65 435 88 411 q 42 510 42 458 l 42 765 q 65 840 42 817 q 135 864 88 864 l 214 864 q 285 840 263 864 q 307 765 307 817 m 754 354 l 754 99 q 732 24 754 47 q 661 0 710 0 l 582 0 q 512 24 535 0 q 489 99 489 47 l 489 354 q 512 429 489 406 q 582 453 535 453 l 661 453 q 732 429 710 453 q 754 354 754 406 m 229 522 l 229 753 q 223 787 229 779 q 190 794 217 794 l 158 794 q 126 787 132 794 q 119 753 119 779 l 119 522 q 126 488 119 496 q 158 481 132 481 l 190 481 q 223 488 217 481 q 229 522 229 496 m 676 111 l 676 342 q 670 376 676 368 q 638 383 664 383 l 606 383 q 573 376 579 383 q 567 342 567 368 l 567 111 q 573 77 567 85 q 606 69 579 69 l 638 69 q 670 77 664 69 q 676 111 676 85 m 544 864 l 629 864 l 250 0 l 167 0 l 544 864 m 1097 354 l 1097 99 q 1075 24 1097 47 q 1004 0 1053 0 l 925 0 q 855 24 878 0 q 832 99 832 47 l 832 354 q 855 429 832 406 q 925 453 878 453 l 1004 453 q 1075 429 1053 453 q 1097 354 1097 406 m 1019 111 l 1019 342 q 1013 376 1019 368 q 981 383 1007 383 l 949 383 q 916 376 922 383 q 910 342 910 368 l 910 111 q 916 77 910 85 q 949 69 922 69 l 981 69 q 1013 77 1007 69 q 1019 111 1019 85 z "},"+":{"ha":528,"x_min":35,"x_max":493,"o":"m 35 390 l 35 474 l 493 474 l 493 390 l 35 390 m 215 682 l 313 682 l 313 182 l 215 182 l 215 682 z "},"±":{"ha":542,"x_min":42,"x_max":500,"o":"m 42 485 l 42 568 l 500 568 l 500 485 l 42 485 m 222 679 l 319 679 l 319 374 l 222 374 l 222 679 m 42 249 l 42 332 l 500 332 l 500 249 l 42 249 z "},"∏":{"ha":567,"x_min":14,"x_max":490,"o":"m 97 132 l 97 822 l 193 822 l 193 110 q 166 27 193 54 q 83 0 139 0 l 14 0 l 14 89 l 54 89 q 90 97 82 89 q 97 132 97 106 m 396 822 l 490 822 l 490 0 l 396 0 l 396 822 m 490 864 l 490 782 l 97 782 l 97 864 l 490 864 z "},"√":{"ha":896,"x_min":104,"x_max":819,"o":"m 188 347 l 282 347 l 406 -82 l 725 971 l 819 971 l 453 -189 l 358 -189 l 188 347 m 247 347 l 247 265 l 104 265 l 104 347 l 247 347 z "},"Ω":{"ha":514,"x_min":14,"x_max":500,"o":"m 343 196 l 343 739 q 335 774 343 767 q 300 782 328 782 l 253 782 l 253 864 l 328 864 q 410 837 383 864 q 438 754 438 810 l 438 196 l 343 196 m 343 125 l 343 265 l 438 265 l 438 151 q 410 83 438 96 q 328 69 383 69 l 285 69 l 285 82 l 300 82 q 335 90 328 82 q 343 125 343 99 m 171 739 l 171 194 l 76 194 l 76 754 q 103 837 76 810 q 186 864 131 864 l 261 864 l 261 782 l 214 782 q 179 774 188 782 q 171 739 171 767 m 171 276 l 171 125 q 179 90 171 99 q 214 82 188 82 l 229 82 l 229 69 l 186 69 q 103 83 131 69 q 76 151 76 96 l 76 276 l 171 276 m 500 82 l 500 0 l 281 0 l 281 82 l 500 82 m 233 82 l 233 0 l 14 0 l 14 82 l 233 82 z "},"µ":{"ha":471,"x_min":56,"x_max":393,"o":"m 56 674 l 151 674 l 151 125 q 160 90 151 99 q 194 82 168 82 l 250 82 q 286 93 275 82 q 297 132 297 104 l 297 179 l 303 179 l 303 85 q 280 19 303 38 q 221 0 257 0 l 165 0 q 83 27 110 0 q 56 110 56 54 l 56 674 m 297 674 l 393 674 l 393 0 l 297 0 l 297 72 l 297 82 l 297 674 m 56 604 l 151 604 l 151 -196 l 56 -196 l 56 604 z "},"◌":{"ha":917,"x_min":61,"x_max":856,"o":"m 193 718 q 210 762 193 744 q 254 779 228 779 q 299 762 282 779 q 315 718 315 744 q 299 674 315 692 q 254 656 282 656 q 210 674 228 656 q 193 718 193 692 m 79 565 q 98 609 79 592 q 143 626 117 626 q 186 609 168 626 q 204 565 204 592 q 186 522 204 539 q 143 504 168 504 q 98 522 117 504 q 79 565 79 539 m 61 390 q 78 435 61 418 q 122 453 96 453 q 167 435 150 453 q 183 390 183 418 q 167 347 183 364 q 122 331 150 331 q 78 347 96 331 q 61 390 61 364 m 133 229 q 151 273 133 256 q 194 290 168 290 q 238 273 221 290 q 256 229 256 256 q 238 185 256 203 q 194 168 221 168 q 151 185 168 168 q 133 229 133 203 m 274 125 q 292 168 274 150 q 336 186 310 186 q 380 168 363 186 q 397 125 397 150 q 380 80 397 99 q 336 61 363 61 q 292 80 310 61 q 274 125 274 99 m 450 103 q 467 147 450 131 q 511 164 485 164 q 556 147 539 164 q 574 103 574 131 q 556 59 574 76 q 511 42 539 42 q 467 59 485 42 q 450 103 450 76 m 618 176 q 635 220 618 203 q 679 238 653 238 q 724 220 706 238 q 742 176 742 203 q 724 133 742 150 q 679 115 706 115 q 635 133 653 115 q 618 176 618 150 m 719 313 q 738 358 719 340 q 782 375 756 375 q 824 358 807 375 q 842 313 842 340 q 824 269 842 286 q 782 251 807 251 q 738 269 756 251 q 719 313 719 286 m 733 499 q 751 543 733 526 q 794 560 768 560 q 838 543 821 560 q 856 499 856 526 q 838 455 856 472 q 794 438 821 438 q 751 455 768 438 q 733 499 733 472 m 664 663 q 681 708 664 690 q 725 725 699 725 q 769 708 753 725 q 786 663 786 690 q 769 619 786 636 q 725 601 753 601 q 681 619 699 601 q 664 663 664 636 m 532 757 q 550 802 532 785 q 594 819 568 819 q 638 802 621 819 q 654 757 654 785 q 638 714 654 732 q 594 696 621 696 q 550 714 568 696 q 532 757 532 732 m 357 778 q 374 822 357 806 q 418 839 392 839 q 463 822 446 839 q 479 778 479 806 q 463 734 479 751 q 418 717 446 717 q 374 734 392 717 q 357 778 357 751 z "},"◊":{"ha":619,"x_min":67,"x_max":576,"o":"m 576 432 l 476 432 l 322 768 l 167 432 l 67 432 l 282 864 l 361 864 l 576 432 m 476 432 l 576 432 l 361 0 l 282 0 l 67 432 l 167 432 l 322 97 l 476 432 z "},"ै":{"ha":0,"x_min":-481,"x_max":-81,"o":"m -481 1129 l -354 1129 l -296 1065 q -200 953 -235 999 q -139 864 -165 908 l -133 864 q -174 951 -156 904 q -218 1057 -192 997 l -249 1129 l -146 1129 l -81 850 l -172 850 q -185 859 -172 850 q -222 889 -197 868 q -286 946 -247 910 l -481 1129 z "},"ं":{"ha":0,"x_min":-181,"x_max":-79,"o":"m -181 1129 l -79 1129 l -79 1010 l -181 1010 l -181 1129 z "},"ँ":{"ha":0,"x_min":-303,"x_max":56,"o":"m -303 1099 l -214 1099 l -214 1043 q -206 1008 -214 1017 q -171 1000 -197 1000 l -76 1000 q -41 1008 -49 1000 q -33 1043 -33 1017 l -33 1099 l 56 1099 l 56 1035 q 28 952 56 979 q -54 925 1 925 l -193 925 q -276 952 -249 925 q -303 1035 -303 979 l -303 1099 m -172 1153 l -78 1153 l -78 1057 l -172 1057 l -172 1153 z "},"े":{"ha":0,"x_min":-396,"x_max":-82,"o":"m -281 1129 l -82 846 l -178 846 q -232 906 -200 867 q -301 996 -264 944 l -396 1129 l -281 1129 z "},"्":{"ha":0,"x_min":-194,"x_max":50,"o":"m -89 -85 l 50 -265 l -56 -265 l -194 -85 l -89 -85 z "},"ॢ":{"ha":0,"x_min":-360,"x_max":-62,"o":"m -253 14 q -221 -11 -224 14 l -219 -11 q -210 7 -218 0 q -189 14 -203 14 l -114 14 l -114 -33 l -171 -33 q -187 -37 -183 -33 q -192 -53 -192 -40 l -192 -183 l -251 -183 l -251 -53 q -255 -37 -251 -40 q -272 -33 -258 -33 l -279 -33 q -297 -37 -293 -33 q -300 -53 -300 -40 l -300 -240 q -297 -258 -300 -254 q -279 -261 -293 -261 l -246 -261 l -246 -310 l -307 -310 q -347 -297 -333 -310 q -360 -257 -360 -283 l -360 -39 q -347 1 -360 -12 q -307 14 -333 14 l -253 14 m -136 14 l -76 14 l -76 -293 l -108 -293 q -125 -297 -121 -293 q -129 -314 -129 -301 l -129 -325 q -125 -341 -129 -337 q -108 -344 -121 -344 l -62 -344 l -62 -392 l -136 -392 q -176 -378 -162 -392 q -189 -339 -189 -365 l -189 -300 q -176 -260 -189 -274 q -137 -247 -164 -247 l -136 -247 l -136 14 z "},"ॣ":{"ha":0,"x_min":-374,"x_max":-35,"o":"m -35 -344 l -35 -392 l -136 -392 q -176 -378 -162 -392 q -189 -339 -189 -365 l -189 -304 q -182 -281 -189 -289 q -164 -272 -175 -274 l -164 -271 q -182 -262 -175 -269 q -189 -240 -189 -254 l -189 -201 q -176 -162 -189 -175 q -137 -149 -164 -149 l -136 -149 l -136 -33 l -178 -33 q -194 -37 -190 -33 q -199 -53 -199 -40 l -199 -156 l -258 -156 l -258 -53 q -262 -37 -258 -40 q -279 -33 -265 -33 l -293 -33 q -310 -37 -307 -33 q -314 -53 -314 -40 l -314 -240 q -310 -258 -314 -254 q -293 -261 -307 -261 l -260 -261 l -260 -310 l -321 -310 q -360 -297 -347 -310 q -374 -257 -374 -283 l -374 -39 q -360 1 -374 -12 q -321 14 -347 14 l -260 14 q -228 -11 -231 14 l -226 -11 q -217 7 -225 0 q -196 14 -210 14 l -76 14 l -76 -194 l -108 -194 q -125 -199 -121 -194 q -129 -215 -129 -203 l -129 -226 q -125 -242 -129 -239 q -108 -246 -121 -246 l -76 -246 l -76 -293 l -108 -293 q -125 -297 -121 -293 q -129 -314 -129 -301 l -129 -325 q -125 -341 -129 -337 q -108 -344 -121 -344 l -35 -344 z "},"़":{"ha":0,"x_min":-174,"x_max":-72,"o":"m -174 -99 l -72 -99 l -72 -218 l -174 -218 l -174 -99 z "},"ृ":{"ha":0,"x_min":-282,"x_max":-19,"o":"m -76 0 l -76 -82 l -143 -82 q -178 -90 -169 -82 q -186 -125 -186 -97 l -186 -175 q -178 -210 -186 -201 q -143 -218 -169 -218 l -19 -218 l -19 -300 l -172 -300 q -255 -273 -228 -300 q -282 -190 -282 -246 l -282 -110 q -255 -27 -282 -54 q -172 0 -228 0 l -76 0 z "},"ॄ":{"ha":0,"x_min":-282,"x_max":-19,"o":"m -282 -110 q -255 -27 -282 -54 q -172 0 -228 0 l -76 0 l -76 -82 l -143 -82 q -178 -90 -169 -82 q -186 -125 -186 -97 l -186 -175 q -178 -210 -186 -201 q -143 -218 -169 -218 l -76 -218 l -76 -300 l -143 -300 q -178 -308 -169 -300 q -186 -343 -186 -315 l -186 -393 q -178 -428 -186 -419 q -143 -436 -169 -436 l -19 -436 l -19 -518 l -172 -518 q -255 -491 -228 -518 q -282 -408 -282 -464 l -282 -326 q -268 -280 -282 -296 q -231 -262 -254 -264 l -231 -260 q -268 -241 -254 -257 q -282 -194 -282 -225 l -282 -110 z "},"ु":{"ha":0,"x_min":-421,"x_max":60,"o":"m -50 1 q 33 -26 6 1 q 60 -108 60 -53 l 60 -189 q 33 -272 60 -244 q -50 -299 6 -299 l -189 -299 q -269 -292 -237 -299 q -322 -266 -300 -286 q -369 -204 -344 -246 l -421 -115 l -307 -115 l -271 -175 q -238 -207 -257 -197 q -193 -217 -219 -217 l -79 -217 q -44 -208 -51 -217 q -36 -174 -36 -200 l -36 -124 q -44 -88 -36 -96 q -79 -81 -51 -81 l -172 -81 l -172 1 l -50 1 z "},"ॆ":{"ha":0,"x_min":-421,"x_max":-76,"o":"m -421 1065 l -421 1065 l -421 1129 l -325 1129 l -325 1081 q -317 1045 -325 1053 q -282 1038 -308 1038 l -186 1038 q -76 928 -76 1038 l -76 811 l -172 811 l -172 913 q -181 947 -172 939 q -215 956 -189 956 l -311 956 q -421 1065 -421 956 z "},"ू":{"ha":0,"x_min":-289,"x_max":213,"o":"m -82 0 q -8 -7 -36 0 q 40 -33 19 -14 q 83 -90 61 -53 l 213 -297 l 97 -297 l -7 -131 q -35 -95 -21 -108 q -76 -82 -50 -82 l -150 -82 q -185 -90 -176 -82 q -193 -125 -193 -97 l -193 -175 q -185 -210 -193 -201 q -150 -218 -176 -218 l -74 -218 l -74 -300 l -179 -300 q -262 -273 -235 -300 q -289 -190 -289 -246 l -289 -110 q -262 -27 -289 -54 q -179 0 -235 0 l -82 0 z "},"ः":{"ha":213,"x_min":56,"x_max":157,"o":"m 56 207 l 157 207 l 157 88 l 56 88 l 56 207 m 56 693 l 157 693 l 157 574 l 56 574 l 56 693 z "},"´":{"ha":556,"x_min":164,"x_max":386,"o":"m 164 717 l 272 893 l 386 893 l 250 717 l 164 717 z "},"˘":{"ha":556,"x_min":97,"x_max":458,"o":"m 367 893 l 458 893 l 458 826 q 431 744 458 771 q 349 717 404 717 l 271 717 l 271 794 l 324 794 q 359 803 351 794 q 367 838 367 811 l 367 893 m 97 893 l 189 893 l 189 838 q 197 803 189 811 q 232 794 206 794 l 285 794 l 285 717 l 207 717 q 124 744 151 717 q 97 826 97 771 l 97 893 z "},"ˇ":{"ha":556,"x_min":99,"x_max":456,"o":"m 217 717 l 99 893 l 204 893 l 276 776 l 350 893 l 456 893 l 338 717 l 217 717 z "},"¸":{"ha":556,"x_min":189,"x_max":379,"o":"m 289 -101 l 289 -71 l 379 -71 l 379 -110 q 346 -203 379 -174 q 256 -233 313 -233 l 189 -233 l 189 -153 l 240 -153 q 278 -140 268 -153 q 289 -101 289 -128 z "},"ˆ":{"ha":556,"x_min":99,"x_max":456,"o":"m 99 717 l 217 893 l 338 893 l 456 717 l 350 717 l 276 833 l 204 717 l 99 717 z "},"¨":{"ha":556,"x_min":94,"x_max":461,"o":"m 94 751 l 94 868 l 217 868 l 217 751 l 94 751 m 339 751 l 339 868 l 461 868 l 461 751 l 339 751 z "},"˙":{"ha":556,"x_min":214,"x_max":342,"o":"m 214 744 l 214 864 l 342 864 l 342 744 l 214 744 z "},"`":{"ha":556,"x_min":168,"x_max":390,"o":"m 282 893 l 390 717 l 304 717 l 168 893 l 282 893 z "},"˝":{"ha":556,"x_min":103,"x_max":453,"o":"m 242 717 l 350 893 l 453 893 l 317 717 l 242 717 m 103 717 l 211 893 l 314 893 l 178 717 l 103 717 z "},"¯":{"ha":556,"x_min":114,"x_max":442,"o":"m 114 764 l 114 844 l 442 844 l 442 764 l 114 764 z "},"˛":{"ha":556,"x_min":157,"x_max":394,"o":"m 157 -144 q 184 -62 157 -89 q 267 -35 211 -35 l 369 -35 l 369 -108 l 286 -108 q 251 -115 260 -108 q 242 -150 242 -122 l 242 -178 q 251 -212 242 -204 q 286 -219 260 -219 l 394 -219 l 394 -294 l 267 -294 q 184 -267 211 -294 q 157 -185 157 -240 l 157 -144 m 369 -39 l 278 -39 l 278 14 l 369 14 l 369 -39 z "},"˚":{"ha":556,"x_min":146,"x_max":410,"o":"m 410 817 l 410 793 q 388 724 410 746 q 319 703 365 703 l 236 703 q 168 724 190 703 q 146 793 146 746 l 146 817 q 168 885 146 864 q 236 907 190 907 l 319 907 q 388 885 365 907 q 410 817 410 864 m 339 801 l 339 808 q 333 839 339 832 q 300 846 326 846 l 256 846 q 223 839 229 846 q 217 808 217 832 l 217 801 q 223 772 217 779 q 256 764 229 764 l 300 764 q 333 772 326 764 q 339 801 339 779 z "},"˜":{"ha":556,"x_min":104,"x_max":451,"o":"m 346 742 q 293 754 317 742 q 251 778 269 767 q 214 790 232 790 q 190 757 190 790 l 190 742 l 104 742 l 104 761 q 126 838 104 810 q 204 867 147 867 l 213 867 q 264 855 242 867 q 304 831 286 843 q 339 818 322 818 q 360 824 354 818 q 365 853 365 831 l 365 867 l 451 867 l 451 847 q 431 771 451 800 q 353 742 411 742 l 346 742 z "},"ʼ":{"ha":197,"x_min":42,"x_max":156,"o":"m 42 864 l 156 864 l 156 783 l 79 518 l 42 518 l 42 864 z "},"ˉ":{"ha":556,"x_min":114,"x_max":442,"o":"m 114 764 l 114 844 l 442 844 l 442 764 l 114 764 z "}}}
